<svg width="34" height="34" viewBox="0 0 34 34" fill="none" xmlns="http://www.w3.org/2000/svg">
<circle cx="17" cy="17" r="16" fill="#070D17" stroke="#1F2D42" stroke-width="2"/>
<path fill-rule="evenodd" clip-rule="evenodd" d="M25.4346 14.4162H24.1607C24.1249 14.3982 24.0934 14.3803 24.062 14.3624C24.0306 14.3444 23.9992 14.3265 23.9633 14.3085L22.2051 12.1555C21.9718 11.8684 21.6309 11.707 21.2541 11.6891C20.5365 11.653 18.1681 11.5454 17.271 11.5454C16.3739 11.5454 14.0056 11.653 13.2879 11.689C12.9291 11.7069 12.5703 11.8863 12.337 12.1554L10.5787 14.3084L10.5744 14.3106C10.5041 14.3458 10.4341 14.3809 10.3814 14.4161L9.10742 14.4162C9.0357 14.4162 8.96386 14.47 8.96386 14.5418L8.82031 15.3672C8.82031 15.4389 8.89203 15.4929 8.96386 15.4929H9.35859C9.28687 15.6362 9.23306 15.7797 9.19714 15.8873V15.995C9.14332 16.623 9.12542 17.2689 9.14332 17.8789V17.9865V21.5211C9.14332 22.1132 9.62779 22.5977 10.2199 22.5977H12.6959C13.0906 22.5977 13.4135 22.4003 13.6109 22.0953L14.5259 22.1312L14.795 22.1491L15.0103 21.9877L15.2076 21.8262L17.271 21.8261H19.3702L19.5676 21.9876L19.7829 22.149L20.0519 22.1311L20.967 22.0952C21.1643 22.4002 21.4872 22.5976 21.882 22.5976H24.358C24.9501 22.5976 25.4346 22.1131 25.4346 21.521L25.4347 17.9685V17.9506C25.4526 17.3225 25.4347 16.6409 25.3809 15.9769V15.9231L25.3449 15.8872C25.327 15.7795 25.2732 15.6181 25.1835 15.4745H25.5782C25.6499 15.4745 25.7218 15.4207 25.7218 15.3489L25.5782 14.5235C25.5782 14.4698 25.5064 14.416 25.4347 14.416L25.4346 14.4162ZM23.9095 16.4974L23.4251 18.1301C23.4072 18.1839 23.3533 18.2198 23.2994 18.2377L22.2766 18.3634C22.2228 18.3634 22.151 18.3455 22.1331 18.2736L21.5231 17.0177C21.4872 16.928 21.5231 16.8383 21.6128 16.8204L23.7299 16.3359C23.8557 16.2821 23.9454 16.3897 23.9095 16.4974ZM10.794 16.3001L12.9111 16.7846C13.0008 16.8025 13.0546 16.9102 13.0008 16.9819L12.3908 18.2378C12.3729 18.2917 12.3011 18.3276 12.2472 18.3276L11.2245 18.2019C11.1707 18.2019 11.1169 18.1481 11.0988 18.0943L10.6325 16.4973C10.5966 16.3897 10.6863 16.2821 10.794 16.3001L10.794 16.3001ZM17.2711 15.0083C15.8178 15.0083 11.4399 14.8647 11.4399 14.8647L13.1265 12.8194C13.1803 12.7476 13.2522 12.7117 13.3418 12.7117C13.9339 12.6758 16.374 12.5682 17.2711 12.5682C18.1681 12.5682 20.6083 12.6758 21.2003 12.7117C21.2901 12.7117 21.3618 12.7476 21.4156 12.8194L23.1022 14.8647C23.1022 14.8647 18.7244 15.0083 17.2711 15.0083Z" fill="url(#paint0_linear_620_8)"/>
<defs>
<linearGradient id="paint0_linear_620_8" x1="8.82031" y1="11.5454" x2="16.4783" y2="26.1582" gradientUnits="userSpaceOnUse">
<stop stop-color="#01EDFF"/>
<stop offset="1" stop-color="#0198D9"/>
</linearGradient>
</defs>
</svg>
