<svg width="62" height="62" viewBox="0 0 62 62" fill="none" xmlns="http://www.w3.org/2000/svg">
<circle cx="31" cy="31" r="31" fill="black" fill-opacity="0.26"/>
<path fill-rule="evenodd" clip-rule="evenodd" d="M25.6754 18.1423C23.9135 18.5219 22.2147 19.0887 20.656 19.8171L20.3981 19.9376L19.9953 20.5997C17.7472 24.295 16.5011 27.9389 16.1037 31.9801C15.9701 33.3383 15.9646 35.853 16.0929 36.9745C16.1152 37.1698 16.12 37.1758 16.4491 37.4234C18.2834 38.8035 20.6029 40.0349 22.8576 40.8256C23.1964 40.9444 23.4608 41.0175 23.4753 40.9964C23.9402 40.3219 24.4732 39.4421 24.8296 38.7607L25.0308 38.3761L24.9414 38.3385C24.4675 38.1392 23.9417 37.9003 23.6552 37.7543C23.3159 37.5813 22.5548 37.1525 22.5548 37.1342C22.5548 37.1291 22.6923 37.016 22.8605 36.8828L23.1661 36.6405L23.4879 36.7923C24.989 37.5005 26.8766 38.0306 28.7324 38.2651C29.3894 38.3481 31.8222 38.3341 32.4775 38.2435C34.1924 38.0064 35.7425 37.5737 37.2363 36.9151L37.8446 36.6469L38.134 36.8831C38.2932 37.013 38.4234 37.1258 38.4234 37.1338C38.4234 37.1973 36.9647 37.9569 36.3771 38.1994C36.1754 38.2826 36.0025 38.3569 35.993 38.3644C35.9659 38.3858 36.2028 38.8591 36.5222 39.4217C36.8219 39.9495 37.4661 40.957 37.5296 40.9972C37.5772 41.0272 38.6663 40.647 39.3998 40.3443C41.2182 39.5938 43.091 38.5272 44.6041 37.3803L44.8969 37.1584L44.9477 36.3951C45.0514 34.8376 44.9982 32.8239 44.8122 31.2665C44.3634 27.5072 42.9612 23.6694 40.7984 20.2805C40.5786 19.9361 40.5706 19.9287 40.2574 19.7814C38.9087 19.1473 37.1493 18.5531 35.601 18.2088C35.2103 18.1219 34.8195 18.0394 34.7325 18.0254L34.5744 18L34.283 18.6045C34.1228 18.937 33.952 19.3042 33.9036 19.4207L33.8156 19.6324L33.6388 19.6067C31.7127 19.3272 29.4292 19.3117 27.6542 19.5659C27.1655 19.6358 27.1494 19.6361 27.1493 19.5741C27.1492 19.547 26.9851 19.1828 26.7845 18.7648C26.5063 18.185 26.4034 18.0057 26.3503 18.0084C26.312 18.0103 26.0083 18.0706 25.6754 18.1423ZM26.3041 27.7016C27.1807 27.9678 27.8533 28.6887 28.1593 29.6904C28.2396 29.9533 28.2496 30.0615 28.2482 30.6576C28.2466 31.305 28.2422 31.342 28.1236 31.7037C27.9522 32.2266 27.764 32.5372 27.3817 32.9283C26.8635 33.4582 26.3443 33.6871 25.6629 33.686C25.0008 33.6849 24.4924 33.4529 23.9602 32.9088C23.6648 32.6068 23.5801 32.49 23.4289 32.176C23.1664 31.6309 23.0872 31.2813 23.0846 30.6576C23.0815 29.9124 23.2251 29.4158 23.6232 28.795C24.0248 28.1687 24.6127 27.7685 25.3253 27.6364C25.5683 27.5914 26.0456 27.6232 26.3041 27.7016ZM35.74 27.6571C36.244 27.7488 36.6348 27.9706 37.0545 28.4029C37.3472 28.7045 37.4326 28.8232 37.5833 29.1377C37.8229 29.6379 37.8846 29.8921 37.9099 30.4828C37.9263 30.8636 37.9159 31.0567 37.8654 31.3119C37.6388 32.4573 36.8667 33.3616 35.8945 33.6201C35.5984 33.6989 35.0318 33.6992 34.7456 33.6209C33.8211 33.3679 33.0977 32.5663 32.8016 31.4668C32.7494 31.2728 32.733 31.0706 32.7344 30.6378C32.736 30.1348 32.7487 30.0233 32.839 29.7177C33.1765 28.5756 33.9587 27.8131 34.9707 27.6399C35.253 27.5916 35.3983 27.5948 35.74 27.6571Z" fill="white"/>
</svg>
