<svg width="14" height="12" viewBox="0 0 14 12" fill="none" xmlns="http://www.w3.org/2000/svg">
<path d="M1.74588 1.70469L1.72379 1.72699C0.758731 2.70087 0.75851 4.26844 1.72449 5.24521L1.72461 5.24532L6.99712 10.5785C7.48289 10.0882 7.96867 9.59799 8.45446 9.10775C9.72821 7.82229 11.002 6.5368 12.2757 5.25153L1.74588 1.70469ZM1.74588 1.70469C2.70815 0.757674 4.23016 0.765178 5.1835 1.72711C5.1835 1.72711 5.18351 1.72712 5.18351 1.72713L6.29273 2.84643L7.00304 3.5632L7.71334 2.84641L8.81562 1.73407C8.81563 1.73406 8.81565 1.73404 8.81567 1.73402C9.77658 0.764531 11.3151 0.764615 12.2757 1.73399C13.2414 2.70864 13.2414 4.27701 12.2758 5.25149L1.74588 1.70469Z" stroke="#556982" stroke-width="2"/>
</svg>
