<svg width="34" height="34" viewBox="0 0 34 34" fill="none" xmlns="http://www.w3.org/2000/svg">
<circle cx="17" cy="17" r="16" fill="#070D17" stroke="#1F2D42" stroke-width="2"/>
<path d="M21.7719 14.2742C21.7719 11.5995 19.5692 9.43172 16.8769 9.50165C14.3246 9.55408 12.2442 11.6694 12.2267 14.2393C12.2093 16.5644 13.8525 18.5049 16.0378 18.9594C16.1077 18.9769 16.1602 19.0293 16.1602 19.1167V20.8824C16.1602 20.9698 16.0903 21.0397 16.0029 21.0397H14.412C14.3246 21.0397 14.2547 21.1096 14.2547 21.197V22.578C14.2547 22.6655 14.3246 22.7353 14.412 22.7353H16.0029C16.0903 22.7353 16.1602 22.8052 16.1602 22.8927V24.3787C16.1602 24.4661 16.2301 24.536 16.3175 24.536H17.6985C17.786 24.536 17.8559 24.4661 17.8559 24.3787V22.8927C17.8559 22.8052 17.9257 22.7353 18.0132 22.7353H19.6041C19.6915 22.7353 19.7614 22.6655 19.7614 22.578V21.197C19.7614 21.1096 19.6915 21.0397 19.6041 21.0397H18.0132C17.9257 21.0397 17.8559 20.9698 17.8559 20.8824L17.856 19.0993C17.856 19.0294 17.9084 18.9594 17.9784 18.942C20.1461 18.4875 21.772 16.5645 21.772 14.2743L21.7719 14.2742ZM16.9993 17.3511C16.7021 17.3511 16.4224 17.3161 16.1602 17.2286C14.8665 16.8614 13.9225 15.6727 13.9225 14.2567C13.9225 12.5609 15.3035 11.1799 16.9993 11.1799C18.6951 11.1799 20.0761 12.5609 20.0761 14.2567C20.0761 15.6727 19.1321 16.8616 17.8384 17.2286C17.5762 17.3161 17.2965 17.3511 16.9993 17.3511Z" fill="url(#paint0_linear_620_9)"/>
<defs>
<linearGradient id="paint0_linear_620_9" x1="12.2266" y1="9.5" x2="24.5601" y2="19.2701" gradientUnits="userSpaceOnUse">
<stop stop-color="#01EDFF"/>
<stop offset="1" stop-color="#0198D9"/>
</linearGradient>
</defs>
</svg>
