<svg width="66" height="65" viewBox="0 0 66 65" fill="none" xmlns="http://www.w3.org/2000/svg">
<path d="M65.6105 32.1781C65.6105 49.9496 50.9677 64.3563 32.9049 64.3563C14.842 64.3563 0.199219 49.9496 0.199219 32.1781C0.199219 14.4066 14.842 0 32.9049 0C50.9677 0 65.6105 14.4066 65.6105 32.1781Z" fill="#05053C"/>
<path fill-rule="evenodd" clip-rule="evenodd" d="M38.1687 19.0098C37.4315 19.13 36.2626 19.5276 35.8943 19.7834C35.7894 19.8563 35.6857 19.9159 35.664 19.9159C35.581 19.9159 35.0615 20.3075 34.6319 20.6937C33.1027 22.0688 32.2895 24.2579 32.5211 26.3759C32.5623 26.753 32.5798 27.0782 32.5599 27.0985C32.54 27.1188 32.1124 27.0973 31.6099 27.0506C28.2851 26.7416 24.7281 25.2446 22.002 23.0068C21.4013 22.5138 19.9175 21.045 19.534 20.5639C19.3838 20.3756 19.231 20.2435 19.1944 20.2704C19.1578 20.2974 19.0387 20.5176 18.9298 20.7597C18.2842 22.1945 18.1541 23.8204 18.5666 25.2987C18.9296 26.5994 19.4411 27.4599 20.4219 28.4202L21.052 29.0369L20.5431 28.9886C19.9947 28.9366 18.9745 28.6312 18.6249 28.4144C18.5063 28.3409 18.3802 28.2807 18.3446 28.2805C18.3077 28.2804 18.2988 28.5742 18.3239 28.9646C18.4377 30.7331 19.4035 32.5083 20.883 33.6682C21.4774 34.1342 22.5501 34.674 23.0711 34.7695C23.8262 34.9077 22.4298 35.1365 21.3014 35.0594C20.7733 35.0233 20.6008 35.0335 20.6008 35.1007C20.6008 35.2499 21.0178 36.1206 21.2998 36.5605C21.7014 37.1868 22.0995 37.6505 22.5768 38.048C22.8139 38.2454 23.0497 38.4423 23.1008 38.4854C23.307 38.6595 24.3824 39.165 24.8998 39.3309C25.2028 39.4281 25.7014 39.5287 26.0077 39.5544C26.6686 39.6098 26.6657 39.6196 25.8229 40.1782C25.0139 40.7144 25.0376 40.7006 24.2294 41.1048C23.1106 41.6643 22.1628 41.9778 20.8164 42.2335C20.0696 42.3754 19.679 42.4042 18.4992 42.4042C17.7186 42.4042 17.0801 42.4087 17.0801 42.4142C17.0801 42.4197 17.3145 42.5667 17.601 42.7409C20.3805 44.431 23.7462 45.3679 27.0316 45.3659C30.4057 45.3639 33.5656 44.5267 36.3193 42.9054C37.0563 42.4715 38.1594 41.7125 38.5666 41.3592C40.4636 39.7134 41.409 38.5898 42.8587 36.2579C43.3784 35.4217 44.1762 33.6247 44.5759 32.389C45.1672 30.5617 45.4597 28.872 45.5127 26.9779C45.5355 26.1608 45.58 25.4921 45.6116 25.4921C45.6994 25.4921 46.59 24.7102 47.1143 24.1729C47.6504 23.6236 48.1931 22.9724 48.5443 22.4573C48.7778 22.1148 48.7807 22.1027 48.6155 22.1548C48.521 22.1846 48.3562 22.2544 48.2494 22.3099C47.8524 22.516 46.367 22.935 45.4334 23.1042C45.1153 23.1618 45.1403 23.1189 45.6414 22.7482C46.4463 22.1526 47.3928 20.8717 47.772 19.8645C47.9063 19.5079 47.852 19.4706 47.509 19.6841C46.8462 20.0969 45.3467 20.6889 44.3203 20.943L43.7895 21.0745L43.494 20.8032C42.2073 19.6225 40.8202 19.0424 39.1747 18.9967C38.74 18.9845 38.2873 18.9905 38.1687 19.0098Z" fill="white"/>
</svg>
