<svg width="65" height="65" viewBox="0 0 65 65" fill="none" xmlns="http://www.w3.org/2000/svg">
<path d="M64.6785 32.1781C64.6785 49.9496 50.2719 64.3563 32.5004 64.3563C14.7289 64.3563 0.322266 49.9496 0.322266 32.1781C0.322266 14.4066 14.7289 0 32.5004 0C50.2719 0 64.6785 14.4066 64.6785 32.1781Z" fill="#05053C"/>
<path fill-rule="evenodd" clip-rule="evenodd" d="M42.6331 20.0794C42.418 20.158 26.1516 26.2524 20.8997 28.2221C18.5451 29.1051 16.5594 29.8653 16.4871 29.9113C16.3111 30.0233 16.1467 30.2943 16.1465 30.4728C16.1462 30.6928 16.2774 30.9514 16.4485 31.0682C16.533 31.1258 18.0135 31.6834 19.7386 32.3072C21.4637 32.931 22.9013 33.4674 22.9331 33.4992C22.965 33.531 23.5285 35.2444 24.1855 37.3068C24.8424 39.3693 25.4176 41.1357 25.4637 41.2321C25.5098 41.3286 25.6218 41.4515 25.7126 41.5053C25.9012 41.6171 26.3002 41.6335 26.4737 41.5366C26.5361 41.5019 27.3983 40.8289 28.3897 40.0411C30.3856 38.4553 30.529 38.3693 30.9958 38.4781C31.1867 38.5226 31.7817 38.9165 33.6798 40.2548C37.8898 43.2231 37.8932 43.2254 38.1149 43.2517C38.3661 43.2815 38.6485 43.1484 38.799 42.9293C38.872 42.8231 39.0092 42.2982 39.2141 41.3408C39.3826 40.5544 39.8351 38.4344 40.2198 36.6298C40.6046 34.8251 40.9788 33.0791 41.0514 32.7497C41.124 32.4203 41.4984 30.6742 41.8835 28.8696C42.2685 27.0649 42.7048 25.0259 42.8531 24.3385C43.4727 21.4659 43.6034 20.7933 43.5729 20.6329C43.497 20.2332 43.0049 19.9434 42.6331 20.0794ZM37.6578 24.9662C37.7151 25.0884 37.701 25.1171 37.4823 25.3234C37.3515 25.4468 35.0369 27.5391 32.3386 29.973C29.6403 32.4069 27.3508 34.489 27.2508 34.5998C26.9104 34.9769 26.8342 35.2372 26.6223 36.7462C26.5145 37.514 26.3931 38.1928 26.352 38.2573C26.2748 38.3786 26.0527 38.4146 25.9127 38.3284C25.8729 38.3039 25.5252 37.2203 25.14 35.9204C24.6204 34.1668 24.4397 33.483 24.4399 33.2705C24.4402 32.9552 24.5683 32.6556 24.7985 32.4321C24.8743 32.3585 27.2834 30.8943 30.1521 29.1783C33.0208 27.4624 35.8264 25.7831 36.3867 25.4465C36.947 25.1099 37.4482 24.8342 37.5004 24.8339C37.5527 24.8336 37.6234 24.8931 37.6578 24.9662Z" fill="white"/>
</svg>
