<svg width="66" height="65" viewBox="0 0 66 65" fill="none" xmlns="http://www.w3.org/2000/svg">
<path d="M65.7999 32.1781C65.7999 49.9496 51.1571 64.3563 33.0943 64.3563C15.0315 64.3563 0.388672 49.9496 0.388672 32.1781C0.388672 14.4066 15.0315 0 33.0943 0C51.1571 0 65.7999 14.4066 65.7999 32.1781Z" fill="#05053C"/>
<path fill-rule="evenodd" clip-rule="evenodd" d="M25.8648 17.942C22.884 18.1836 20.3306 20.4962 19.5936 23.6215C19.3636 24.5966 19.3791 24.0166 19.3791 31.6267C19.3791 37.1344 19.3869 38.4955 19.4197 38.7349C19.7698 41.2947 21.1544 43.3998 23.2371 44.5389C24.0625 44.9903 24.8973 45.2426 25.8648 45.3328C26.3415 45.3773 37.6931 45.3767 38.1829 45.3322C39.1494 45.2443 39.9205 45.0145 40.765 44.5626C41.4604 44.1905 41.9816 43.7932 42.536 43.2124C43.1488 42.5706 43.5846 41.924 43.9567 41.1043C44.375 40.1832 44.5867 39.3509 44.6665 38.3136C44.7094 37.7551 44.7108 25.5372 44.668 24.9792C44.5688 23.6871 44.2353 22.577 43.6249 21.5074C43.3446 21.0161 42.7405 20.2194 42.4468 19.9535C42.3739 19.8875 42.2664 19.7872 42.2079 19.7306C42.0298 19.5582 41.508 19.1533 41.2566 18.9924C40.5711 18.5535 39.822 18.2369 39.1025 18.0819C38.4204 17.935 38.8076 17.9431 32.2137 17.9368C28.797 17.9336 25.9399 17.9359 25.8648 17.942ZM40.7346 20.9806C41.4543 21.1081 41.9899 21.9207 41.8738 22.7087C41.7618 23.4683 41.1823 24.0084 40.4792 24.0084C40.08 24.0084 39.8017 23.89 39.5076 23.595C38.9297 23.0155 38.9121 22.0264 39.4687 21.4126C39.806 21.0406 40.2391 20.8928 40.7346 20.9806ZM33.1858 24.1036C33.9242 24.2481 34.4344 24.4252 35.0877 24.7639C37.0762 25.7947 38.515 27.8087 38.9441 30.1623C39.3302 32.2798 38.8691 34.4669 37.6685 36.2125C37.3544 36.6692 36.6605 37.4189 36.2392 37.7565C35.194 38.5944 34.0704 39.0728 32.7814 39.2288C29.6522 39.6075 26.6472 37.6419 25.4726 34.448C24.973 33.0894 24.8503 31.556 25.1245 30.0965C25.5799 27.672 27.1267 25.6142 29.2384 24.6237C29.8457 24.3388 30.5895 24.1247 31.2568 24.0427C31.6802 23.9907 32.7872 24.0256 33.1858 24.1036ZM31.5395 27.1021C31.206 27.1437 30.7314 27.2803 30.4012 27.4299C29.1096 28.0145 28.1996 29.2189 27.8957 30.7459C27.8103 31.1751 27.8023 32.0148 27.8796 32.4494C28.4266 35.5272 31.5169 37.1242 34.0501 35.6382C34.3818 35.4437 34.756 35.1317 35.0448 34.8091C35.5864 34.2042 35.9304 33.5327 36.1145 32.7214C36.6851 30.2061 35.2093 27.6898 32.8558 27.1652C32.5205 27.0904 31.8792 27.0597 31.5395 27.1021Z" fill="white"/>
</svg>
