<svg width="26" height="22" viewBox="0 0 26 22" fill="none" xmlns="http://www.w3.org/2000/svg">
<path fill-rule="evenodd" clip-rule="evenodd" d="M25.1053 0.0322178C24.9014 0.10676 9.48333 5.88333 4.50532 7.75028C2.27352 8.58728 0.391423 9.30777 0.322865 9.35141C0.156071 9.45755 0.000203843 9.71444 5.59542e-07 9.88357C-0.000304366 10.0921 0.124054 10.3372 0.286274 10.4479C0.366317 10.5025 1.76963 11.031 3.40479 11.6223C5.03996 12.2136 6.40251 12.722 6.4327 12.7522C6.46289 12.7823 6.99707 14.4063 7.61973 16.3612C8.24238 18.3161 8.78759 19.9904 8.83129 20.0818C8.875 20.1732 8.98117 20.2898 9.06726 20.3408C9.24599 20.4467 9.62415 20.4622 9.78866 20.3705C9.84776 20.3375 10.665 19.6996 11.6047 18.9529C13.4965 17.4498 13.6324 17.3683 14.0749 17.4714C14.2559 17.5136 14.8198 17.8869 16.619 19.1555C20.6093 21.969 20.6126 21.9712 20.8227 21.9961C21.0609 22.0243 21.3285 21.8982 21.4712 21.6905C21.5404 21.5898 21.6704 21.0923 21.8647 20.1848C22.0243 19.4394 22.4532 17.43 22.8179 15.7195C23.1826 14.009 23.5373 12.354 23.6061 12.0417C23.6749 11.7295 24.0298 10.0745 24.3948 8.364C24.7597 6.65348 25.1733 4.72082 25.3139 4.06919C25.9012 1.34643 26.025 0.708872 25.9961 0.556875C25.9241 0.177994 25.4577 -0.0966759 25.1053 0.0322178ZM20.3894 4.66414C20.4438 4.78005 20.4304 4.80726 20.2231 5.00274C20.0992 5.11969 17.9053 7.1029 15.3477 9.40986C12.7901 11.7169 10.62 13.6904 10.5252 13.7954C10.2026 14.1528 10.1304 14.3995 9.92953 15.8299C9.82733 16.5576 9.71222 17.201 9.67329 17.2622C9.60011 17.3771 9.38956 17.4112 9.25692 17.3295C9.21921 17.3063 8.88964 16.2792 8.52454 15.0471C8.03198 13.3849 7.86072 12.7369 7.86092 12.5354C7.86123 12.2366 7.98264 11.9526 8.20076 11.7408C8.27262 11.671 10.5562 10.2831 13.2752 8.65664C15.9943 7.03019 18.6536 5.43844 19.1847 5.11944C19.7157 4.80039 20.1908 4.5391 20.2403 4.5388C20.2898 4.53846 20.3569 4.59488 20.3894 4.66414Z" fill="white"/>
</svg>
