<svg width="34" height="34" viewBox="0 0 34 34" fill="none" xmlns="http://www.w3.org/2000/svg">
<circle cx="17" cy="17" r="16" fill="#070D17" stroke="#283A53" stroke-width="2"/>
<path d="M17.0004 8.13635C12.1114 8.13635 8.13672 12.111 8.13672 17C8.13672 21.889 12.1114 25.8636 17.0004 25.8636C21.8893 25.8636 25.864 21.889 25.864 17C25.864 12.111 21.8893 8.13635 17.0004 8.13635ZM24.2592 13.9957L22.7104 14.6301C22.3932 13.865 21.9453 13.1932 21.3669 12.6148L22.5611 11.4392C23.2889 12.167 23.8673 13.0253 24.2592 13.9957L24.2592 13.9957ZM17.0004 22.1875C14.1453 22.1875 11.8128 19.855 11.8128 17C11.8128 14.145 14.1453 11.8124 17.0004 11.8124C19.8554 11.8124 22.1879 14.145 22.1879 17C22.1879 19.855 19.874 22.1875 17.0004 22.1875ZM20.0047 9.74114L19.3702 11.2899C18.6425 10.9913 17.84 10.8234 17.0004 10.8234V9.14407C18.0641 9.14394 19.0903 9.34921 20.0047 9.74114ZM13.996 9.74114L14.6305 11.2899C13.8841 11.6071 13.1936 12.055 12.6152 12.6335L11.4209 11.4579C12.1674 10.7115 13.0444 10.133 13.996 9.7411V9.74114ZM9.7415 13.9957L11.2903 14.6301C10.9917 15.3579 10.8238 16.1603 10.8238 17H9.14444C9.14431 15.9363 9.34958 14.9101 9.7415 13.9957ZM9.7415 20.0043L11.2903 19.3699C11.6075 20.135 12.0554 20.8068 12.6338 21.3852L11.4396 22.5608C10.7118 21.8329 10.1334 20.9746 9.74147 20.0043L9.7415 20.0043ZM13.996 24.2588L14.6305 22.71C15.3582 23.0086 16.1607 23.1765 17.0004 23.1765V24.8559C15.9367 24.856 14.9291 24.6508 13.996 24.2588ZM20.0047 24.2588L19.3702 22.71C20.1166 22.3928 20.8071 21.9449 21.367 21.3665L22.5612 22.5421C21.8333 23.2885 20.975 23.8669 20.0047 24.2589V24.2588ZM22.7291 19.3698C23.0277 18.6421 23.1956 17.8396 23.1956 17H24.875C24.875 18.0637 24.6511 19.0899 24.2778 20.0043L22.7291 19.3698Z" fill="url(#paint0_linear_620_7)"/>
<defs>
<linearGradient id="paint0_linear_620_7" x1="8.13672" y1="8.13635" x2="22.7156" y2="26.3279" gradientUnits="userSpaceOnUse">
<stop stop-color="#01EDFF"/>
<stop offset="1" stop-color="#0198D9"/>
</linearGradient>
</defs>
</svg>
