<svg width="22" height="20" viewBox="0 0 22 20" fill="none" xmlns="http://www.w3.org/2000/svg">
<path d="M3.9799 19.9152C4.85949 19.9119 5.7134 19.6169 6.40776 19.0768C7.1023 18.5363 7.59814 17.7811 7.81815 16.9288H14.0698C14.2601 17.7099 14.6799 18.4158 15.275 18.9561C15.8701 19.4962 16.6133 19.8459 17.4087 19.9596C18.204 20.0732 19.0153 19.9461 19.7378 19.5943C20.4603 19.2425 21.0609 18.6822 21.4622 17.9857C21.8636 17.2893 22.0473 16.4885 21.9896 15.6866C21.932 14.8847 21.6357 14.1186 21.1389 13.4867C20.6419 12.8549 19.9673 12.3864 19.202 12.1416C18.4365 11.897 17.6156 11.8872 16.8446 12.1138L13.7455 6.81084C14.3058 6.25537 14.6885 5.54598 14.8451 4.77254C15.0018 3.99911 14.9252 3.19667 14.625 2.46676C14.3249 1.73701 13.8149 1.1129 13.1597 0.673772C12.5045 0.234474 11.7335 0 10.9448 0C10.1562 0 9.38522 0.234478 8.73 0.673772C8.07478 1.1129 7.56479 1.73701 7.26466 2.46676C6.96452 3.19667 6.88791 3.99911 7.04447 4.77254C7.2012 5.54598 7.58393 6.25541 8.14423 6.81084L5.05211 12.1168C4.70384 12.0125 4.34308 11.9568 3.97968 11.9515C2.92421 11.9515 1.9119 12.3709 1.16573 13.1177C0.419389 13.8645 0 14.8772 0 15.9334C0 16.9893 0.419385 18.0021 1.16573 18.749C1.9119 19.4956 2.92421 19.9152 3.97968 19.9152L3.9799 19.9152ZM17.9081 13.9424C18.3017 13.9424 18.6864 14.0592 19.0135 14.2779C19.3408 14.4967 19.5958 14.8075 19.7465 15.1714C19.8971 15.5351 19.9364 15.9355 19.8598 16.3217C19.7828 16.7078 19.5935 17.0626 19.3152 17.3411C19.0368 17.6196 18.6822 17.8092 18.2963 17.8859C17.9102 17.9627 17.5103 17.9234 17.1466 17.7728C16.7832 17.6219 16.4724 17.3668 16.2537 17.0395C16.035 16.712 15.9184 16.327 15.9184 15.9334C15.9184 15.4053 16.1279 14.8988 16.5012 14.5255C16.8743 14.1522 17.3804 13.9424 17.9081 13.9424H17.9081ZM10.944 1.99686C11.3376 1.99686 11.7221 2.11352 12.0494 2.33233C12.3767 2.55114 12.6317 2.86212 12.7824 3.2259C12.9328 3.5897 12.9723 3.98999 12.8955 4.37613C12.8187 4.76227 12.6292 5.11705 12.3509 5.39555C12.0728 5.67403 11.7181 5.86352 11.3322 5.94036C10.9462 6.01718 10.5461 5.97785 10.1825 5.8272C9.8189 5.67638 9.50813 5.42124 9.28961 5.09392C9.07092 4.76645 8.95416 4.38149 8.95416 3.98767C8.95416 3.45972 9.16386 2.95327 9.53711 2.57998C9.9102 2.20651 10.4164 1.99686 10.944 1.99686H10.944ZM9.87156 7.8041C10.2197 7.90843 10.5806 7.96409 10.944 7.96942C11.3089 7.96442 11.6714 7.90809 12.0204 7.8021L15.1165 13.1008C14.6087 13.6074 14.2469 14.242 14.0699 14.9375H7.81828C7.64256 14.2452 7.28381 13.6133 6.77965 13.1078L9.87156 7.8041ZM3.97982 13.9424C4.37322 13.9424 4.75797 14.0592 5.08526 14.2779C5.41254 14.4967 5.66752 14.8075 5.81812 15.1714C5.96869 15.5351 6.00816 15.9355 5.93138 16.3217C5.85459 16.7078 5.66505 17.0626 5.38676 17.3411C5.10845 17.6196 4.75401 17.8092 4.36792 17.8859C3.98201 17.9627 3.58193 17.9234 3.21835 17.7728C2.85476 17.6219 2.54399 17.3668 2.32529 17.0395C2.10677 16.712 1.99002 16.327 1.99002 15.9334C1.99002 15.4053 2.19971 14.8988 2.5728 14.5255C2.94605 14.1522 3.45204 13.9424 3.97986 13.9424H3.97982Z" fill="#25FF21"/>
</svg>
