<svg width="202" height="34" viewBox="0 0 202 34" fill="none" xmlns="http://www.w3.org/2000/svg">
<path d="M75.529 33.7667C79.5731 33.7667 82.7647 30.7957 82.7647 27.2675V11.2996C82.7647 7.77144 79.573 4.80034 75.529 4.80034L14.0223 4.80163C9.97825 4.80163 6.78662 7.77271 6.78662 11.3009V27.2688C6.78662 30.7969 9.9784 33.768 14.0223 33.768H27.4307C31.0486 33.768 34.454 32.0973 37.0075 29.6832C38.9226 28.0125 41.6897 26.8986 44.8817 26.8986C48.0735 26.8986 51.0529 28.0125 52.7559 29.6832C55.3094 32.0974 58.5026 33.768 62.3327 33.768L75.529 33.7667Z" fill="#E6F8FF"/>
<path d="M75.529 33.7667C79.5731 33.7667 82.7647 30.7957 82.7647 27.2675V11.2996C82.7647 7.77144 79.573 4.80034 75.529 4.80034L14.0223 4.80163C9.97825 4.80163 6.78662 7.77271 6.78662 11.3009V27.2688C6.78662 30.7969 9.9784 33.768 14.0223 33.768H27.4307C31.0486 33.768 34.454 32.0973 37.0075 29.6832C38.9226 28.0125 41.6897 26.8986 44.8817 26.8986C48.0735 26.8986 51.0529 28.0125 52.7559 29.6832C55.3094 32.0974 58.5026 33.768 62.3327 33.768L75.529 33.7667Z" fill="#E6F8FF"/>
<path fill-rule="evenodd" clip-rule="evenodd" d="M75.529 31.2838C78.4322 31.2838 80.2818 29.2049 80.2818 27.2675V11.2996C80.2818 9.36228 78.432 7.28328 75.529 7.28328L14.0224 7.28458C11.1193 7.28458 9.26957 9.36352 9.26957 11.3009V27.2688C9.26957 29.2061 11.1193 31.2851 14.0223 31.2851H27.4307C30.2832 31.2851 33.1044 29.9563 35.3018 27.8789L35.3378 27.8448L35.3752 27.8122C37.7624 25.7296 41.1164 24.4157 44.8817 24.4157C48.5517 24.4157 52.2037 25.6757 54.4764 27.8929C56.688 29.9787 59.294 31.285 62.3324 31.2851C62.3325 31.2851 62.3326 31.2851 62.3327 31.2851L75.529 31.2838ZM62.3327 33.768C58.5026 33.768 55.3094 32.0974 52.7559 29.6832C51.0529 28.0125 48.0735 26.8986 44.8817 26.8986C41.6897 26.8986 38.9226 28.0125 37.0075 29.6832C34.454 32.0973 31.0486 33.768 27.4307 33.768H14.0223C9.9784 33.768 6.78662 30.7969 6.78662 27.2688V11.3009C6.78662 7.77271 9.97825 4.80163 14.0223 4.80163L75.529 4.80034C79.573 4.80034 82.7647 7.77144 82.7647 11.2996V27.2675C82.7647 30.7957 79.5731 33.7667 75.529 33.7667L62.3327 33.768Z" fill="#4CC6F5"/>
<path fill-rule="evenodd" clip-rule="evenodd" d="M75.529 32.9391C79.1928 32.9391 81.9371 30.2654 81.9371 27.2675V11.2996C81.9371 8.30172 79.1926 5.62799 75.529 5.62799L14.0223 5.62928C10.3586 5.62928 7.61427 8.30298 7.61427 11.3009V27.2688C7.61427 30.2667 10.3587 32.9404 14.0223 32.9404H27.4307C30.7935 32.9404 34.0041 31.3836 36.439 29.0818L36.451 29.0704L36.4634 29.0596C38.5359 27.2515 41.4986 26.071 44.8817 26.071C48.2328 26.071 51.4366 27.2335 53.3298 29.0868C55.7694 31.3915 58.7667 32.9404 62.3326 32.9404C62.3326 32.9404 62.3326 32.9404 62.3326 32.9404L75.529 32.9391ZM62.3327 33.768C58.5026 33.768 55.3094 32.0974 52.7559 29.6832C51.0529 28.0125 48.0735 26.8986 44.8817 26.8986C41.6897 26.8986 38.9226 28.0125 37.0075 29.6832C34.454 32.0973 31.0486 33.768 27.4307 33.768H14.0223C9.9784 33.768 6.78662 30.7969 6.78662 27.2688V11.3009C6.78662 7.77271 9.97825 4.80163 14.0223 4.80163L75.529 4.80034C79.573 4.80034 82.7647 7.77144 82.7647 11.2996V27.2675C82.7647 30.7957 79.5731 33.7667 75.529 33.7667L62.3327 33.768Z" fill="#1CB4EF"/>
<path d="M84.2549 10.5939V27.809L87.0422 21.4716C87.0422 21.4716 91.9611 10.5939 88.026 11.6344C86.858 11.9432 84.2549 10.5939 84.2549 10.5939Z" fill="#98E1FE"/>
<path d="M5.29688 10.5939V27.809L2.50953 21.4716C2.50953 21.4716 -2.4093 10.5939 1.52577 11.6344C2.69372 11.9432 5.29688 10.5939 5.29688 10.5939Z" fill="#98E1FE"/>
<path d="M84.2549 10.5939V25.6571L84.8342 24.4984C84.8342 24.4984 90.7106 12.4147 87.5655 12.4147C86.6389 12.4147 84.2549 10.5939 84.2549 10.5939Z" fill="#1CB4EF"/>
<path d="M5.34766 10.5939V25.6571L4.7683 24.4984C4.7683 24.4984 -1.10804 12.4147 2.03702 12.4147C2.96366 12.4147 5.34766 10.5939 5.34766 10.5939Z" fill="#1CB4EF"/>
<path d="M75.3072 2.80092C73.8448 1.02694 71.4424 0 68.9353 0L20.6758 0.000651218C18.1686 0.000651218 15.7662 1.02763 14.3038 2.80157L13.5723 3.64165H76.1425L75.3072 2.80092Z" fill="#C9F0FF"/>
<path d="M75.3082 3.06838C73.8458 1.85885 71.4434 1.15866 68.9362 1.15866L20.6767 1.1591C18.1696 1.1591 15.7672 1.85932 14.3048 3.06883L13.5732 3.64161H76.1435L75.3082 3.06838Z" fill="#98E1FE"/>
<path d="M20.4236 24.0931C20.9933 23.1854 21.706 22.5986 22.7153 22.1571C24.5522 21.3531 25.4468 21.2168 27.4419 21.2793C28.6846 21.3178 29.6548 21.7035 30.6092 22.438C31.1618 22.8697 31.7563 23.2453 32.3836 23.5598C33.093 23.9071 33.8778 24.0173 34.6546 23.7764C35.6875 23.4519 36.1196 22.637 36.2672 21.6383C36.4076 20.6978 36.3203 19.9758 36.1287 19.0598C35.7087 16.9501 34.9261 14.9884 33.7056 13.2109C33.1417 12.3742 32.4195 11.6557 31.5794 11.0954C30.1238 10.0902 28.6743 10.2729 27.5116 11.6003C27.3855 11.7445 27.2677 11.8963 27.1488 12.0465C25.3769 14.306 23.3085 14.8362 20.7405 13.5612C20.3409 13.3623 19.9779 13.0948 19.5871 12.8792C18.2045 12.1145 16.8825 12.3644 15.8709 13.5681C15.1298 14.4544 14.7109 15.3097 14.404 16.3987C13.7584 18.6891 13.6996 21.0147 14.1142 23.3452C14.2445 24.0795 14.4465 24.6057 14.7528 25.2833C15.1669 26.2015 15.878 26.8058 16.9634 26.7838C17.6274 26.7704 18.1949 26.4788 18.7208 26.1046C19.4649 25.5817 19.9536 24.8435 20.4235 24.0934L20.4236 24.0931Z" fill="#3B2FEE"/>
<path d="M69.4284 24.0931C68.8587 23.1854 68.1461 22.5986 67.1367 22.1571C65.2998 21.3531 64.4052 21.2168 62.4101 21.2793C61.1675 21.3178 60.1973 21.7035 59.2428 22.438C58.6902 22.8697 58.0957 23.2453 57.4685 23.5598C56.7591 23.9071 55.9743 24.0173 55.1974 23.7764C54.1646 23.4519 53.7324 22.637 53.5849 21.6383C53.4445 20.6978 53.5317 19.9758 53.7234 19.0598C54.1433 16.9501 54.926 14.9884 56.1464 13.2109C56.7103 12.3742 57.4325 11.6557 58.2727 11.0954C59.7282 10.0902 61.1777 10.2729 62.3404 11.6003C62.4666 11.7445 62.5844 11.8963 62.7033 12.0465C64.4752 14.306 66.5435 14.8362 69.1115 13.5612C69.5111 13.3623 69.8741 13.0948 70.265 12.8792C71.6476 12.1145 72.9695 12.3644 73.9812 13.5681C74.7222 14.4544 75.1411 15.3097 75.4481 16.3987C76.0936 18.6891 76.1525 21.0147 75.7379 23.3452C75.6075 24.0795 75.4055 24.6057 75.0993 25.2833C74.6852 26.2015 73.974 26.8058 72.8887 26.7838C72.2247 26.7704 71.6571 26.4788 71.1313 26.1046C70.3872 25.5817 69.8984 24.8435 69.4286 24.0934L69.4284 24.0931Z" fill="#3B2FEE"/>
<path d="M20.8796 24.3399C21.4522 23.5551 22.1568 23.0404 23.1466 22.6433C24.948 21.9202 25.8199 21.7853 27.7566 21.7965C28.963 21.8031 29.8974 22.111 30.8091 22.7163C31.3368 23.0722 31.9064 23.3795 32.5091 23.634C33.1909 23.9148 33.951 23.992 34.7108 23.7707C35.7209 23.4726 36.1579 22.7698 36.3222 21.9163C36.4784 21.1127 36.4089 20.4998 36.2419 19.7239C35.8784 17.9366 35.1594 16.283 34.0113 14.7953C33.4811 14.0948 32.7946 13.4983 31.9903 13.039C30.5975 12.2138 29.1856 12.3999 28.0281 13.5545C27.9025 13.6799 27.7849 13.8117 27.6662 13.942C25.8974 15.903 23.877 16.398 21.4092 15.3665C21.0252 15.2056 20.6782 14.9855 20.3031 14.8102C18.9761 14.1882 17.6866 14.4288 16.6785 15.4749C15.94 16.2451 15.5151 16.9821 15.1939 17.9157C14.5186 19.8793 14.4125 21.8605 14.7662 23.8359C14.8774 24.4583 15.0625 24.9021 15.3457 25.4726C15.7287 26.2456 16.4068 26.7451 17.4616 26.7035C18.1069 26.6782 18.6644 26.4179 19.1831 26.0882C19.917 25.6274 20.4073 24.9886 20.8795 24.3401L20.8796 24.3399Z" fill="#594EFF"/>
<path d="M68.8621 24.3212C68.2944 23.5372 67.5952 23.0235 66.6125 22.6276C64.8243 21.9067 63.9585 21.7728 62.0349 21.7863C60.8367 21.7943 59.9084 22.1033 59.0022 22.7095C58.4776 23.0659 57.9116 23.3738 57.3127 23.629C56.6352 23.9105 55.8802 23.9886 55.1259 23.7681C54.1229 23.4714 53.6898 22.7691 53.5276 21.916C53.3734 21.1128 53.4432 20.4999 53.6098 19.724C53.9729 17.9366 54.6889 16.2825 55.831 14.7938C56.3584 14.0928 57.0409 13.4956 57.8403 13.0355C59.2245 12.2088 60.6266 12.3932 61.7748 13.5462C61.8994 13.6715 62.0161 13.8031 62.1338 13.9333C63.8883 15.8918 65.8944 16.3844 68.3466 15.3502C68.7281 15.1889 69.073 14.9684 69.4458 14.7927C70.7645 14.1693 72.0449 14.4084 73.0449 15.4531C73.7775 16.2222 74.1987 16.9586 74.5165 17.8917C75.1849 19.8541 75.2881 21.8348 74.9345 23.8102C74.8233 24.4327 74.639 24.8766 74.357 25.4473C73.9758 26.2206 73.3017 26.7208 72.2541 26.6804C71.6132 26.6558 71.0598 26.3963 70.545 26.0673C69.8167 25.6074 69.3305 24.9692 68.8623 24.3214L68.8621 24.3212Z" fill="#594EFF"/>
<path d="M51.4873 6.56262L48.5001 5.62788L39.6026 25.4813L42.6238 26.2363L51.4873 6.56262Z" fill="#4CC6F5"/>
<path d="M49.7314 5.52742L48.5725 5.46647L38.5131 27.8766L39.7408 27.7483L49.7314 5.52742Z" fill="#1CB4EF"/>
<path d="M126.951 12.0912C130.572 12.0912 132.383 13.3185 132.383 15.773V23.5829H130.12L128.829 22.311C128.392 22.8168 127.796 23.211 127.041 23.4937C126.287 23.7763 125.57 23.9176 124.891 23.9176C124.227 23.9176 123.691 23.8656 123.283 23.7614C122.876 23.6573 122.476 23.4788 122.084 23.2259C121.224 22.6904 120.793 21.6937 120.793 20.2358C120.793 17.5582 122.846 16.2193 126.951 16.2193H127.856V15.416C127.373 15.3863 126.973 15.3714 126.656 15.3714C124.951 15.3714 123.487 15.5722 122.265 15.9739L121.722 12.783C123.231 12.3218 124.974 12.0912 126.951 12.0912ZM125.366 19.7449V20.6598H126.294C126.958 20.6598 127.381 20.5854 127.562 20.4367C127.758 20.2879 127.856 20.0945 127.856 19.8565V18.8077H126.928C126.385 18.8077 125.985 18.8672 125.728 18.9862C125.487 19.0904 125.366 19.3433 125.366 19.7449Z" fill="#F1FBFF"/>
<path d="M132.856 21.3631L137.299 15.7073L137.231 15.5682H133.65L133.31 12.0912H143.601V14.4092L139.226 20.0651L139.294 20.2041H143.737V23.6811H132.856V21.3631Z" fill="#1CB4EF"/>
<path d="M144.506 23.6811V12.8869L149.074 12.3188V23.6811H144.506ZM149.119 10.6372L145.146 11.4325L144.209 10.1372L148.526 6.97849C148.617 6.91789 148.716 6.88759 148.823 6.88759C148.929 6.88759 149.051 6.97091 149.188 7.13756L150.627 8.81918C150.764 8.97068 150.832 9.09945 150.832 9.2055C150.832 9.2964 150.809 9.37215 150.764 9.43275C150.733 9.4782 150.383 9.78877 149.713 10.3645C149.561 10.5008 149.363 10.5917 149.119 10.6372Z" fill="#F1FBFF"/>
<path d="M172.353 12.0912C176.048 12.0912 177.896 13.3185 177.896 15.773V23.5829H175.586L174.27 22.311C173.823 22.8168 173.215 23.211 172.445 23.4937C171.675 23.7763 170.944 23.9176 170.251 23.9176C169.573 23.9176 169.026 23.8656 168.611 23.7614C168.195 23.6573 167.787 23.4788 167.386 23.2259C166.509 22.6904 166.07 21.6937 166.07 20.2358C166.07 17.5582 168.164 16.2193 172.353 16.2193H173.277V15.416C172.784 15.3863 172.376 15.3714 172.052 15.3714C170.312 15.3714 168.819 15.5722 167.571 15.9739L167.017 12.783C168.557 12.3218 170.335 12.0912 172.353 12.0912ZM170.736 19.7449V20.6598H171.683C172.36 20.6598 172.791 20.5854 172.976 20.4367C173.176 20.2879 173.277 20.0945 173.277 19.8565V18.8077H172.33C171.775 18.8077 171.367 18.8672 171.105 18.9862C170.859 19.0904 170.736 19.3433 170.736 19.7449Z" fill="#F1FBFF"/>
<path d="M178.369 15.1783V12.227H179.518V10.3968L184.116 9.25291V12.227H185.702V15.1783H184.116V20.3945C184.514 20.4707 184.966 20.5241 185.472 20.5546L185.265 23.9177C183.165 23.9177 181.802 23.8033 181.173 23.5745C180.392 23.3 179.902 22.9339 179.702 22.4764C179.58 22.2018 179.518 21.8815 179.518 21.5155V15.1783H178.369Z" fill="#F1FBFF"/>
<path d="M186.905 23.6811V12.8621L191.572 12.2927V23.6811H186.905ZM187.161 11.5638C186.819 11.3057 186.648 10.835 186.648 10.1517C186.648 9.46836 186.819 8.99005 187.161 8.71673C187.519 8.44341 188.211 8.30675 189.238 8.30675C190.28 8.30675 190.973 8.44341 191.315 8.71673C191.673 8.99005 191.852 9.46836 191.852 10.1517C191.852 10.835 191.673 11.3057 191.315 11.5638C190.973 11.822 190.28 11.951 189.238 11.951C188.211 11.951 187.519 11.822 187.161 11.5638Z" fill="#F1FBFF"/>
<path d="M201.278 20.2358L201.549 23.449C200.768 23.7614 199.762 23.9176 198.53 23.9176C196.428 23.9176 194.903 23.4342 193.957 22.4672C193.026 21.4854 192.561 19.9978 192.561 18.0044C192.561 16.011 193.026 14.5309 193.957 13.5639C194.903 12.5821 196.428 12.0912 198.53 12.0912C199.837 12.0912 200.843 12.2474 201.549 12.5598L201.008 15.5945C200.212 15.4309 199.581 15.3491 199.116 15.3491C197.974 15.3491 197.404 15.7433 197.404 16.5317V20.5259C197.839 20.6152 198.395 20.6598 199.071 20.6598C199.762 20.6598 200.497 20.5185 201.278 20.2358Z" fill="#F1FBFF"/>
<path d="M106.169 24.6275C104.944 24.0314 104.25 23.3437 104.016 22.0141C103.964 20.3635 104.014 20.416 104.536 18.0252C105.057 15.6343 105.064 13.8476 106.659 12.3399C108.303 10.7848 112.068 11.1936 112.068 11.1936L112.329 16.5203L112.552 15.4655L113.354 11.1936H119.262L120.084 23.9566H115.468C115.468 23.9566 115.497 16.3651 115.628 16.0193C115.697 15.8363 115.269 15.8676 115.18 16.0193C114.952 16.41 114.906 16.8221 114.906 16.8221C114.725 17.9668 114.457 20.7179 114.457 22.913C114.457 24.3634 114.552 25.2925 114.457 25.7278C114.361 26.1632 113.407 26.0258 113.407 26.0258L112.861 25.98L111.998 25.8885L109.68 25.5903C109.68 25.5903 109.68 16.8221 109.589 16.0193C109.577 15.9173 109.346 15.9181 109.328 16.0193C108.769 19.2489 108.769 19.3155 108.769 19.3155C108.414 21.173 108.065 21.6309 108.414 23.9566C108.492 24.477 108.496 24.8109 108.7 25.2694C108.904 25.7278 107.393 25.2235 106.169 24.6275Z" fill="#1CB4EF"/>
<path d="M151.713 24.6275C150.471 24.0314 149.766 23.3437 149.53 22.0141C149.476 20.3635 149.527 20.416 150.056 18.0252C150.586 15.6343 150.593 13.8476 152.211 12.3399C153.879 10.7848 157.699 11.1936 157.699 11.1936L157.964 16.5203L158.191 15.4655L159.004 11.1936H164.999L165.833 23.9566H161.15C161.15 23.9566 161.179 16.3651 161.312 16.0193C161.382 15.8363 160.948 15.8676 160.858 16.0193C160.626 16.41 160.58 16.8221 160.58 16.8221C160.395 17.9668 160.123 20.7179 160.123 22.913C160.123 24.3634 160.22 25.2925 160.123 25.7278C160.026 26.1632 159.058 26.0258 159.058 26.0258L158.505 25.98L157.629 25.8885L155.276 25.5903C155.276 25.5903 155.277 16.8221 155.184 16.0193C155.172 15.9173 154.937 15.9181 154.919 16.0193C154.352 19.2489 154.352 19.3155 154.352 19.3155C153.992 21.173 153.637 21.6309 153.992 23.9566C154.071 24.477 154.075 24.8109 154.282 25.2694C154.489 25.7278 152.956 25.2235 151.713 24.6275Z" fill="#1CB4EF"/>
</svg>
