<svg width="344" height="34" viewBox="0 0 344 34" fill="none" xmlns="http://www.w3.org/2000/svg">
<path d="M260.98 13.32C260.98 12.84 261.26 12.54 261.8 12.54C262.22 12.54 262.46 12.72 262.64 13.12L266.58 21.74C267.14 23.28 268 24.24 269.88 24.24C271.96 24.24 272.98 23.06 272.98 21.28V10.5H270.6V21.18C270.6 21.64 270.3 21.94 269.8 21.94C269.36 21.94 269.1 21.7 268.94 21.38L265 12.76C264.44 11.22 263.6 10.26 261.72 10.26C259.62 10.26 258.62 11.44 258.62 13.2V24H260.98V13.32ZM281.078 10.5C277.498 10.5 276.098 12.46 276.098 15.16V24H278.458V18.66H286.598V16.42H278.458V15.14C278.458 13.88 279.098 12.86 281.238 12.86H286.678V10.5H281.078ZM288.42 10.5V12.86H292.36V24H294.74V12.86H298.68V10.5H288.42ZM300.906 10.5V24H303.266V18.36H304.566C307.106 18.36 307.586 18.56 308.326 20L310.386 24H313.026L310.846 19.76C310.046 18.2 309.426 17.5 308.166 17.16C309.266 16.68 309.906 15.9 310.506 14.7L312.626 10.5H310.086L308.026 14.54C307.266 16.02 306.886 16.22 304.566 16.22H303.266V10.5H300.906ZM314.917 13.44V15.48H321.237C322.397 15.48 322.857 16.12 322.857 16.94V17.74H317.837C315.237 17.74 314.277 18.86 314.277 20.78C314.277 22.78 315.317 24 317.817 24H322.757C324.537 24 324.937 23.4 324.937 21.88V16.92C324.937 14.92 323.897 13.44 321.257 13.44H314.917ZM322.277 21.94H317.837C316.777 21.94 316.357 21.44 316.357 20.66C316.357 19.88 316.757 19.42 317.877 19.42H322.857V21.4C322.857 21.78 322.697 21.94 322.277 21.94ZM330.774 13.44C328.694 13.44 327.914 14.4 327.914 16.52V24H330.034V16.84C330.034 15.92 330.454 15.48 331.394 15.48H335.114V13.44H330.774ZM336.523 13.44V15.48H337.963V20.36C337.963 23.12 338.903 24 341.083 24H342.983V22.06H341.523C340.523 22.06 340.103 21.66 340.103 20.48V15.48H343.023V13.44H340.103V10.94H337.963V13.44H336.523Z" fill="#25FF21"/>
<path d="M75.5276 33.7667C79.5716 33.7667 82.7633 30.7957 82.7633 27.2675V11.2996C82.7633 7.77144 79.5715 4.80034 75.5276 4.80034L14.0209 4.80163C9.97678 4.80163 6.78516 7.77271 6.78516 11.3009V27.2688C6.78516 30.7969 9.97693 33.768 14.0209 33.768H27.4293C31.0471 33.768 34.4525 32.0973 37.0061 29.6832C38.9212 28.0125 41.6882 26.8986 44.8802 26.8986C48.072 26.8986 51.0514 28.0125 52.7544 29.6832C55.3079 32.0974 58.5011 33.768 62.3312 33.768L75.5276 33.7667Z" fill="#E6F8FF"/>
<path d="M75.5276 33.7667C79.5716 33.7667 82.7633 30.7957 82.7633 27.2675V11.2996C82.7633 7.77144 79.5715 4.80034 75.5276 4.80034L14.0209 4.80163C9.97678 4.80163 6.78516 7.77271 6.78516 11.3009V27.2688C6.78516 30.7969 9.97693 33.768 14.0209 33.768H27.4293C31.0471 33.768 34.4525 32.0973 37.0061 29.6832C38.9212 28.0125 41.6882 26.8986 44.8802 26.8986C48.072 26.8986 51.0514 28.0125 52.7544 29.6832C55.3079 32.0974 58.5011 33.768 62.3312 33.768L75.5276 33.7667Z" fill="#E6F8FF"/>
<path fill-rule="evenodd" clip-rule="evenodd" d="M75.5276 31.2838C78.4307 31.2838 80.2803 29.2049 80.2803 27.2675V11.2996C80.2803 9.36228 78.4306 7.28328 75.5276 7.28328L14.0209 7.28458C11.1178 7.28458 9.2681 9.36352 9.2681 11.3009V27.2688C9.2681 29.2061 11.1179 31.2851 14.0209 31.2851H27.4293C30.2818 31.2851 33.1029 29.9563 35.3003 27.8789L35.3364 27.8448L35.3738 27.8122C37.761 25.7296 41.1149 24.4157 44.8802 24.4157C48.5503 24.4157 52.2023 25.6757 54.475 27.8929C56.6865 29.9787 59.2926 31.285 62.331 31.2851C62.3311 31.2851 62.3311 31.2851 62.3312 31.2851L75.5276 31.2838ZM62.3312 33.768C58.5011 33.768 55.3079 32.0974 52.7544 29.6832C51.0514 28.0125 48.072 26.8986 44.8802 26.8986C41.6882 26.8986 38.9212 28.0125 37.0061 29.6832C34.4525 32.0973 31.0471 33.768 27.4293 33.768H14.0209C9.97693 33.768 6.78516 30.7969 6.78516 27.2688V11.3009C6.78516 7.77271 9.97678 4.80163 14.0209 4.80163L75.5276 4.80034C79.5715 4.80034 82.7633 7.77144 82.7633 11.2996V27.2675C82.7633 30.7957 79.5716 33.7667 75.5276 33.7667L62.3312 33.768Z" fill="#4CC6F5"/>
<path fill-rule="evenodd" clip-rule="evenodd" d="M75.5276 32.9391C79.1913 32.9391 81.9356 30.2654 81.9356 27.2675V11.2996C81.9356 8.30172 79.1912 5.62799 75.5276 5.62799L14.0209 5.62928C10.3571 5.62928 7.6128 8.30298 7.6128 11.3009V27.2688C7.6128 30.2667 10.3572 32.9404 14.0209 32.9404H27.4293C30.792 32.9404 34.0027 31.3836 36.4375 29.0818L36.4495 29.0704L36.462 29.0596C38.5344 27.2515 41.4971 26.071 44.8802 26.071C48.2313 26.071 51.4351 27.2335 53.3283 29.0868C55.7679 31.3915 58.7653 32.9404 62.3311 32.9404C62.3312 32.9404 62.3311 32.9404 62.3311 32.9404L75.5276 32.9391ZM62.3312 33.768C58.5011 33.768 55.3079 32.0974 52.7544 29.6832C51.0514 28.0125 48.072 26.8986 44.8802 26.8986C41.6882 26.8986 38.9212 28.0125 37.0061 29.6832C34.4525 32.0973 31.0471 33.768 27.4293 33.768H14.0209C9.97693 33.768 6.78516 30.7969 6.78516 27.2688V11.3009C6.78516 7.77271 9.97678 4.80163 14.0209 4.80163L75.5276 4.80034C79.5715 4.80034 82.7633 7.77144 82.7633 11.2996V27.2675C82.7633 30.7957 79.5716 33.7667 75.5276 33.7667L62.3312 33.768Z" fill="#1CB4EF"/>
<path d="M84.2539 10.5939V27.809L87.0412 21.4716C87.0412 21.4716 91.9601 10.5939 88.025 11.6344C86.8571 11.9432 84.2539 10.5939 84.2539 10.5939Z" fill="#98E1FE"/>
<path d="M5.29688 10.5939V27.809L2.50953 21.4716C2.50953 21.4716 -2.4093 10.5939 1.52577 11.6344C2.69372 11.9432 5.29688 10.5939 5.29688 10.5939Z" fill="#98E1FE"/>
<path d="M84.2539 10.5939V25.6571L84.8333 24.4984C84.8333 24.4984 90.7096 12.4147 87.5645 12.4147C86.6379 12.4147 84.2539 10.5939 84.2539 10.5939Z" fill="#1CB4EF"/>
<path d="M5.34766 10.5939V25.6571L4.7683 24.4984C4.7683 24.4984 -1.10804 12.4147 2.03702 12.4147C2.96366 12.4147 5.34766 10.5939 5.34766 10.5939Z" fill="#1CB4EF"/>
<path d="M75.3091 2.80092C73.8468 1.02694 71.4444 0 68.9372 0L20.6777 0.000651218C18.1705 0.000651218 15.7682 1.02763 14.3058 2.80157L13.5742 3.64165H76.1444L75.3091 2.80092Z" fill="#C9F0FF"/>
<path d="M75.3091 3.06838C73.8468 1.85885 71.4444 1.15866 68.9372 1.15866L20.6777 1.1591C18.1705 1.1591 15.7682 1.85932 14.3058 3.06883L13.5742 3.64161H76.1444L75.3091 3.06838Z" fill="#98E1FE"/>
<path d="M20.4231 24.0931C20.9929 23.1854 21.7055 22.5986 22.7149 22.1571C24.5517 21.3531 25.4463 21.2168 27.4414 21.2793C28.6841 21.3178 29.6543 21.7035 30.6088 22.438C31.1614 22.8697 31.7559 23.2453 32.3831 23.5598C33.0925 23.9071 33.8773 24.0173 34.6542 23.7764C35.687 23.4519 36.1191 22.637 36.2667 21.6383C36.4071 20.6978 36.3198 19.9758 36.1282 19.0598C35.7082 16.9501 34.9256 14.9884 33.7051 13.2109C33.1412 12.3742 32.419 11.6557 31.5789 11.0954C30.1233 10.0902 28.6738 10.2729 27.5111 11.6003C27.385 11.7445 27.2672 11.8963 27.1483 12.0465C25.3764 14.306 23.308 14.8362 20.74 13.5612C20.3404 13.3623 19.9774 13.0948 19.5866 12.8792C18.204 12.1145 16.882 12.3644 15.8704 13.5681C15.1294 14.4544 14.7104 15.3097 14.4035 16.3987C13.758 18.6891 13.6991 21.0147 14.1137 23.3452C14.2441 24.0795 14.446 24.6057 14.7523 25.2833C15.1664 26.2015 15.8775 26.8058 16.9629 26.7838C17.6269 26.7704 18.1945 26.4788 18.7203 26.1046C19.4644 25.5817 19.9531 24.8435 20.423 24.0934L20.4231 24.0931Z" fill="#3B2FEE"/>
<path d="M69.4284 24.0931C68.8587 23.1854 68.1461 22.5986 67.1367 22.1571C65.2998 21.3531 64.4052 21.2168 62.4101 21.2793C61.1675 21.3178 60.1973 21.7035 59.2428 22.438C58.6902 22.8697 58.0957 23.2453 57.4685 23.5598C56.7591 23.9071 55.9743 24.0173 55.1974 23.7764C54.1646 23.4519 53.7324 22.637 53.5849 21.6383C53.4445 20.6978 53.5317 19.9758 53.7234 19.0598C54.1433 16.9501 54.926 14.9884 56.1464 13.2109C56.7103 12.3742 57.4325 11.6557 58.2727 11.0954C59.7282 10.0902 61.1777 10.2729 62.3404 11.6003C62.4666 11.7445 62.5844 11.8963 62.7033 12.0465C64.4752 14.306 66.5435 14.8362 69.1115 13.5612C69.5111 13.3623 69.8741 13.0948 70.265 12.8792C71.6476 12.1145 72.9695 12.3644 73.9812 13.5681C74.7222 14.4544 75.1411 15.3097 75.4481 16.3987C76.0936 18.6891 76.1525 21.0147 75.7379 23.3452C75.6075 24.0795 75.4055 24.6057 75.0993 25.2833C74.6852 26.2015 73.974 26.8058 72.8887 26.7838C72.2247 26.7704 71.6571 26.4788 71.1313 26.1046C70.3872 25.5817 69.8984 24.8435 69.4286 24.0934L69.4284 24.0931Z" fill="#3B2FEE"/>
<path d="M20.8787 24.3399C21.4512 23.5551 22.1558 23.0404 23.1457 22.6433C24.947 21.9202 25.8189 21.7853 27.7557 21.7965C28.962 21.8031 29.8964 22.111 30.8081 22.7163C31.3358 23.0722 31.9055 23.3795 32.5081 23.634C33.19 23.9148 33.95 23.992 34.7098 23.7707C35.7199 23.4726 36.1569 22.7698 36.3212 21.9163C36.4774 21.1127 36.4079 20.4998 36.241 19.7239C35.8774 17.9366 35.1585 16.283 34.0103 14.7953C33.4801 14.0948 32.7937 13.4983 31.9893 13.039C30.5965 12.2138 29.1846 12.3999 28.0272 13.5545C27.9016 13.6799 27.784 13.8117 27.6653 13.942C25.8964 15.903 23.876 16.398 21.4082 15.3665C21.0242 15.2056 20.6772 14.9855 20.3021 14.8102C18.9751 14.1882 17.6856 14.4288 16.6775 15.4749C15.939 16.2451 15.5141 16.9821 15.193 17.9157C14.5177 19.8793 14.4115 21.8605 14.7652 23.8359C14.8764 24.4583 15.0615 24.9021 15.3448 25.4726C15.7277 26.2456 16.4058 26.7451 17.4606 26.7035C18.1059 26.6782 18.6634 26.4179 19.1821 26.0882C19.916 25.6274 20.4063 24.9886 20.8785 24.3401L20.8787 24.3399Z" fill="#594EFF"/>
<path d="M68.8616 24.3212C68.2939 23.5372 67.5947 23.0235 66.612 22.6276C64.8238 21.9067 63.958 21.7728 62.0344 21.7863C60.8363 21.7943 59.9079 22.1033 59.0017 22.7095C58.4772 23.0659 57.9111 23.3738 57.3122 23.629C56.6347 23.9105 55.8797 23.9886 55.1254 23.7681C54.1225 23.4714 53.6893 22.7691 53.5271 21.916C53.3729 21.1128 53.4427 20.4999 53.6093 19.724C53.9725 17.9366 54.6885 16.2825 55.8305 14.7938C56.3579 14.0928 57.0404 13.4956 57.8398 13.0355C59.2241 12.2088 60.6261 12.3932 61.7743 13.5462C61.8989 13.6715 62.0156 13.8031 62.1333 13.9333C63.8878 15.8918 65.8939 16.3844 68.3461 15.3502C68.7276 15.1889 69.0725 14.9684 69.4453 14.7927C70.764 14.1693 72.0444 14.4084 73.0444 15.4531C73.777 16.2222 74.1982 16.9586 74.516 17.8917C75.1845 19.8541 75.2876 21.8348 74.934 23.8102C74.8228 24.4327 74.6385 24.8766 74.3565 25.4473C73.9753 26.2206 73.3012 26.7208 72.2536 26.6804C71.6128 26.6558 71.0594 26.3963 70.5446 26.0673C69.8163 25.6074 69.33 24.9692 68.8618 24.3214L68.8616 24.3212Z" fill="#594EFF"/>
<path d="M51.4883 6.56262L48.5011 5.62788L39.6036 25.4813L42.6248 26.2363L51.4883 6.56262Z" fill="#4CC6F5"/>
<path d="M49.7305 5.52742L48.5715 5.46647L38.5121 27.8766L39.7398 27.7483L49.7305 5.52742Z" fill="#1CB4EF"/>
<path d="M126.95 12.0912C130.572 12.0912 132.383 13.3185 132.383 15.773V23.5829H130.119L128.829 22.311C128.391 22.8168 127.795 23.211 127.041 23.4937C126.286 23.7763 125.569 23.9176 124.89 23.9176C124.226 23.9176 123.69 23.8656 123.283 23.7614C122.876 23.6573 122.476 23.4788 122.083 23.2259C121.223 22.6904 120.793 21.6937 120.793 20.2358C120.793 17.5582 122.845 16.2193 126.95 16.2193H127.856V15.416C127.373 15.3863 126.973 15.3714 126.656 15.3714C124.951 15.3714 123.487 15.5722 122.264 15.9739L121.721 12.783C123.23 12.3218 124.973 12.0912 126.95 12.0912ZM125.366 19.7449V20.6598H126.294C126.958 20.6598 127.38 20.5854 127.561 20.4367C127.757 20.2879 127.856 20.0945 127.856 19.8565V18.8077H126.927C126.384 18.8077 125.984 18.8672 125.728 18.9862C125.486 19.0904 125.366 19.3433 125.366 19.7449Z" fill="#F1FBFF"/>
<path d="M132.855 21.3631L137.298 15.7073L137.23 15.5682H133.649L133.309 12.0912H143.6V14.4092L139.225 20.0651L139.293 20.2041H143.736V23.6811H132.855V21.3631Z" fill="#1CB4EF"/>
<path d="M144.508 23.6811V12.8869L149.075 12.3188V23.6811H144.508ZM149.121 10.6372L145.147 11.4325L144.211 10.1372L148.527 6.97849C148.619 6.91789 148.717 6.88759 148.824 6.88759C148.931 6.88759 149.052 6.97091 149.189 7.13756L150.628 8.81918C150.765 8.97068 150.834 9.09945 150.834 9.2055C150.834 9.2964 150.811 9.37215 150.765 9.43275C150.735 9.4782 150.385 9.78877 149.715 10.3645C149.562 10.5008 149.365 10.5917 149.121 10.6372Z" fill="#F1FBFF"/>
<path d="M172.353 12.0912C176.049 12.0912 177.897 13.3185 177.897 15.773V23.5829H175.587L174.27 22.311C173.824 22.8168 173.215 23.211 172.445 23.4937C171.676 23.7763 170.944 23.9176 170.251 23.9176C169.574 23.9176 169.027 23.8656 168.611 23.7614C168.195 23.6573 167.787 23.4788 167.387 23.2259C166.509 22.6904 166.07 21.6937 166.07 20.2358C166.07 17.5582 168.165 16.2193 172.353 16.2193H173.277V15.416C172.784 15.3863 172.376 15.3714 172.053 15.3714C170.313 15.3714 168.819 15.5722 167.572 15.9739L167.017 12.783C168.557 12.3218 170.336 12.0912 172.353 12.0912ZM170.736 19.7449V20.6598H171.683C172.361 20.6598 172.792 20.5854 172.977 20.4367C173.177 20.2879 173.277 20.0945 173.277 19.8565V18.8077H172.33C171.776 18.8077 171.368 18.8672 171.106 18.9862C170.859 19.0904 170.736 19.3433 170.736 19.7449Z" fill="#F1FBFF"/>
<path d="M178.371 15.1783V12.227H179.52V10.3968L184.117 9.25291V12.227H185.703V15.1783H184.117V20.3945C184.516 20.4707 184.968 20.5241 185.474 20.5546L185.267 23.9177C183.167 23.9177 181.804 23.8033 181.175 23.5745C180.394 23.3 179.903 22.9339 179.704 22.4764C179.582 22.2018 179.52 21.8815 179.52 21.5155V15.1783H178.371Z" fill="#F1FBFF"/>
<path d="M186.905 23.6811V12.8621L191.572 12.2927V23.6811H186.905ZM187.162 11.5638C186.82 11.3057 186.648 10.835 186.648 10.1517C186.648 9.46836 186.82 8.99005 187.162 8.71673C187.52 8.44341 188.212 8.30675 189.239 8.30675C190.281 8.30675 190.973 8.44341 191.315 8.71673C191.673 8.99005 191.852 9.46836 191.852 10.1517C191.852 10.835 191.673 11.3057 191.315 11.5638C190.973 11.822 190.281 11.951 189.239 11.951C188.212 11.951 187.52 11.822 187.162 11.5638Z" fill="#F1FBFF"/>
<path d="M201.28 20.2358L201.551 23.449C200.77 23.7614 199.763 23.9176 198.532 23.9176C196.43 23.9176 194.905 23.4342 193.959 22.4672C193.028 21.4854 192.562 19.9978 192.562 18.0044C192.562 16.011 193.028 14.5309 193.959 13.5639C194.905 12.5821 196.43 12.0912 198.532 12.0912C199.839 12.0912 200.845 12.2474 201.551 12.5598L201.01 15.5945C200.214 15.4309 199.583 15.3491 199.118 15.3491C197.976 15.3491 197.406 15.7433 197.406 16.5317V20.5259C197.841 20.6152 198.397 20.6598 199.073 20.6598C199.763 20.6598 200.499 20.5185 201.28 20.2358Z" fill="#F1FBFF"/>
<path d="M106.167 24.6275C104.942 24.0314 104.248 23.3437 104.014 22.0141C103.962 20.3635 104.012 20.416 104.534 18.0252C105.055 15.6343 105.062 13.8476 106.657 12.3399C108.301 10.7848 112.066 11.1936 112.066 11.1936L112.327 16.5203L112.55 15.4655L113.352 11.1936H119.26L120.082 23.9566H115.466C115.466 23.9566 115.495 16.3651 115.626 16.0193C115.695 15.8363 115.267 15.8676 115.178 16.0193C114.95 16.41 114.904 16.8221 114.904 16.8221C114.723 17.9668 114.455 20.7179 114.455 22.913C114.455 24.3634 114.55 25.2925 114.455 25.7278C114.359 26.1632 113.405 26.0258 113.405 26.0258L112.859 25.98L111.996 25.8885L109.678 25.5903C109.678 25.5903 109.678 16.8221 109.587 16.0193C109.575 15.9173 109.344 15.9181 109.326 16.0193C108.767 19.2489 108.767 19.3155 108.767 19.3155C108.412 21.173 108.063 21.6309 108.412 23.9566C108.49 24.477 108.494 24.8109 108.698 25.2694C108.902 25.7278 107.391 25.2235 106.167 24.6275Z" fill="#1CB4EF"/>
<path d="M151.712 24.6275C150.469 24.0314 149.765 23.3437 149.528 22.0141C149.475 20.3635 149.525 20.416 150.055 18.0252C150.584 15.6343 150.591 13.8476 152.209 12.3399C153.878 10.7848 157.698 11.1936 157.698 11.1936L157.963 16.5203L158.19 15.4655L159.003 11.1936H164.998L165.832 23.9566H161.148C161.148 23.9566 161.178 16.3651 161.31 16.0193C161.38 15.8363 160.946 15.8676 160.856 16.0193C160.624 16.41 160.578 16.8221 160.578 16.8221C160.394 17.9668 160.122 20.7179 160.122 22.913C160.122 24.3634 160.219 25.2925 160.122 25.7278C160.025 26.1632 159.057 26.0258 159.057 26.0258L158.503 25.98L157.627 25.8885L155.275 25.5903C155.275 25.5903 155.275 16.8221 155.183 16.0193C155.171 15.9173 154.936 15.9181 154.918 16.0193C154.351 19.2489 154.351 19.3155 154.351 19.3155C153.991 21.173 153.636 21.6309 153.991 23.9566C154.07 24.477 154.073 24.8109 154.281 25.2694C154.488 25.7278 152.955 25.2235 151.712 24.6275Z" fill="#1CB4EF"/>
<g style="mix-blend-mode:soft-light">
<rect x="228" y="7" width="2" height="20" fill="white"/>
</g>
</svg>
