<svg width="1080" height="939" viewBox="0 0 1080 939" fill="none" xmlns="http://www.w3.org/2000/svg">
<mask id="path-1-inside-1_246_7" fill="white">
<path fill-rule="evenodd" clip-rule="evenodd" d="M374.046 68.2226L-38 18.319V685.626L540 715.705L1118 685.626V18.319L705.954 68.2226L540 0L374.046 68.2226Z"/>
</mask>
<path d="M-38 18.319L-37.3988 13.3553L-43 12.6769V18.319H-38ZM374.046 68.2226L373.445 73.1863L374.74 73.3432L375.947 72.8471L374.046 68.2226ZM-38 685.626H-43V690.373L-38.2598 690.62L-38 685.626ZM540 715.705L539.74 720.699L540 720.712L540.26 720.699L540 715.705ZM1118 685.626L1118.26 690.62L1123 690.373V685.626H1118ZM1118 18.319H1123V12.6769L1117.4 13.3553L1118 18.319ZM705.954 68.2226L704.053 72.8471L705.26 73.3432L706.555 73.1863L705.954 68.2226ZM540 0L541.901 -4.62448L540 -5.40601L538.099 -4.62448L540 0ZM-38.6012 23.2828L373.445 73.1863L374.647 63.2588L-37.3988 13.3553L-38.6012 23.2828ZM-33 685.626V18.319H-43V685.626H-33ZM540.26 710.712L-37.7402 680.633L-38.2598 690.62L539.74 720.699L540.26 710.712ZM540.26 720.699L1118.26 690.62L1117.74 680.633L539.74 710.712L540.26 720.699ZM1123 685.626V18.319H1113V685.626H1123ZM1117.4 13.3553L705.353 63.2588L706.555 73.1863L1118.6 23.2828L1117.4 13.3553ZM707.855 63.5981L541.901 -4.62448L538.099 4.62448L704.053 72.8471L707.855 63.5981ZM375.947 72.8471L541.901 4.62448L538.099 -4.62448L372.145 63.5981L375.947 72.8471Z" fill="#131C29" mask="url(#path-1-inside-1_246_7)"/>
<mask id="path-3-inside-2_246_7" fill="white">
<path fill-rule="evenodd" clip-rule="evenodd" d="M401.436 163.026L-181 59L-95.409 902.783L542 939L1179.41 902.783L1265 59L682.564 163.026L542 99.3111L401.436 163.026Z"/>
</mask>
<path d="M-181 59L-180.121 54.0779L-186.643 52.913L-185.974 59.5046L-181 59ZM401.436 163.026L400.557 167.948L402.086 168.221L403.5 167.58L401.436 163.026ZM-95.409 902.783L-100.384 903.288L-99.9529 907.533L-95.6927 907.775L-95.409 902.783ZM542 939L541.716 943.992L542 944.008L542.284 943.992L542 939ZM1179.41 902.783L1179.69 907.775L1183.95 907.533L1184.38 903.288L1179.41 902.783ZM1265 59L1269.97 59.5046L1270.64 52.913L1264.12 54.0779L1265 59ZM682.564 163.026L680.5 167.58L681.914 168.221L683.443 167.948L682.564 163.026ZM542 99.3111L544.064 94.7571L542 93.8215L539.936 94.7571L542 99.3111ZM-181.879 63.9221L400.557 167.948L402.315 158.103L-180.121 54.0779L-181.879 63.9221ZM-90.4346 902.279L-176.026 58.4954L-185.974 59.5046L-100.384 903.288L-90.4346 902.279ZM542.284 934.008L-95.1254 897.791L-95.6927 907.775L541.716 943.992L542.284 934.008ZM542.284 943.992L1179.69 907.775L1179.13 897.791L541.716 934.008L542.284 943.992ZM1184.38 903.288L1269.97 59.5046L1260.03 58.4954L1174.43 902.279L1184.38 903.288ZM1264.12 54.0779L681.685 158.103L683.443 167.948L1265.88 63.9221L1264.12 54.0779ZM684.628 158.472L544.064 94.7571L539.936 103.865L680.5 167.58L684.628 158.472ZM403.5 167.58L544.064 103.865L539.936 94.7571L399.372 158.472L403.5 167.58Z" fill="#1B2839" mask="url(#path-3-inside-2_246_7)"/>
</svg>
