<svg width="19" height="257" viewBox="0 0 19 257" fill="none" xmlns="http://www.w3.org/2000/svg">
<path d="M18.24 249.393C18.24 250.897 17.992 252.177 17.496 253.233C16.984 254.273 16.248 255.081 15.288 255.657C14.312 256.233 13.128 256.553 11.736 256.617C11.08 256.633 10.376 256.641 9.624 256.641C8.872 256.641 8.152 256.633 7.464 256.617C6.088 256.553 4.92 256.233 3.96 255.657C2.984 255.065 2.24 254.241 1.728 253.185C1.216 252.129 0.959999 250.865 0.959999 249.393C0.959999 248.321 1.096 247.345 1.368 246.465C1.64 245.585 2.032 244.825 2.544 244.185C3.056 243.545 3.656 243.049 4.344 242.697C5.032 242.345 5.8 242.153 6.648 242.121C6.792 242.121 6.912 242.177 7.008 242.289C7.104 242.385 7.152 242.505 7.152 242.649V245.385C7.152 245.577 7.104 245.729 7.008 245.841C6.912 245.953 6.752 246.041 6.528 246.105C5.584 246.345 4.936 246.745 4.584 247.305C4.232 247.865 4.056 248.561 4.056 249.393C4.056 250.385 4.328 251.169 4.872 251.745C5.416 252.321 6.32 252.633 7.584 252.681C8.896 252.729 10.24 252.729 11.616 252.681C12.88 252.633 13.784 252.321 14.328 251.745C14.872 251.169 15.144 250.385 15.144 249.393C15.144 248.561 14.968 247.865 14.616 247.305C14.248 246.729 13.6 246.329 12.672 246.105C12.432 246.041 12.272 245.953 12.192 245.841C12.096 245.729 12.048 245.577 12.048 245.385V242.649C12.048 242.505 12.096 242.385 12.192 242.289C12.288 242.177 12.408 242.121 12.552 242.121C13.4 242.153 14.168 242.345 14.856 242.697C15.544 243.049 16.144 243.545 16.656 244.185C17.168 244.825 17.56 245.585 17.832 246.465C18.104 247.345 18.24 248.321 18.24 249.393ZM18.24 220.632C18.24 222.088 18 223.344 17.52 224.4C17.04 225.456 16.32 226.28 15.36 226.872C14.384 227.464 13.16 227.784 11.688 227.832C11 227.848 10.32 227.856 9.648 227.856C8.96 227.856 8.264 227.848 7.56 227.832C6.12 227.784 4.912 227.464 3.936 226.872C2.944 226.264 2.2 225.432 1.704 224.376C1.208 223.304 0.959999 222.056 0.959999 220.632C0.959999 219.224 1.208 217.992 1.704 216.936C2.2 215.864 2.944 215.024 3.936 214.416C4.912 213.808 6.12 213.488 7.56 213.456C8.264 213.424 8.96 213.408 9.648 213.408C10.32 213.408 11 213.424 11.688 213.456C13.16 213.504 14.384 213.824 15.36 214.416C16.32 215.008 17.04 215.832 17.52 216.888C18 217.944 18.24 219.192 18.24 220.632ZM15.144 220.632C15.144 219.704 14.864 218.944 14.304 218.352C13.728 217.744 12.816 217.424 11.568 217.392C10.864 217.36 10.208 217.344 9.6 217.344C8.976 217.344 8.32 217.36 7.632 217.392C6.8 217.408 6.12 217.56 5.592 217.848C5.064 218.136 4.68 218.52 4.44 219C4.184 219.464 4.056 220.008 4.056 220.632C4.056 221.256 4.184 221.808 4.44 222.288C4.68 222.768 5.064 223.152 5.592 223.44C6.12 223.712 6.8 223.864 7.632 223.896C8.32 223.912 8.976 223.92 9.6 223.92C10.208 223.92 10.864 223.912 11.568 223.896C12.816 223.848 13.728 223.528 14.304 222.936C14.864 222.344 15.144 221.576 15.144 220.632ZM18 197.709C18 197.885 17.944 198.029 17.832 198.141C17.72 198.253 17.576 198.309 17.4 198.309H1.8C1.624 198.309 1.48 198.253 1.368 198.141C1.256 198.029 1.2 197.885 1.2 197.709L1.2 195.045C1.2 194.869 1.256 194.725 1.368 194.613C1.48 194.501 1.624 194.445 1.8 194.445H14.784L14.784 187.005C14.784 186.829 14.84 186.685 14.952 186.573C15.064 186.461 15.208 186.405 15.384 186.405H17.4C17.576 186.405 17.72 186.461 17.832 186.573C17.944 186.685 18 186.829 18 187.005L18 197.709ZM18 171.48C18 171.656 17.944 171.8 17.832 171.912C17.72 172.024 17.576 172.08 17.4 172.08H1.8C1.624 172.08 1.48 172.024 1.368 171.912C1.256 171.8 1.2 171.656 1.2 171.48L1.2 168.816C1.2 168.64 1.256 168.496 1.368 168.384C1.48 168.272 1.624 168.216 1.8 168.216H14.784V160.776C14.784 160.6 14.84 160.456 14.952 160.344C15.064 160.232 15.208 160.176 15.384 160.176H17.4C17.576 160.176 17.72 160.232 17.832 160.344C17.944 160.456 18 160.6 18 160.776V171.48ZM18 145.25C18 145.426 17.944 145.57 17.832 145.682C17.72 145.794 17.576 145.85 17.4 145.85H1.8C1.624 145.85 1.48 145.794 1.368 145.682C1.256 145.57 1.2 145.426 1.2 145.25L1.2 134.378C1.2 134.202 1.256 134.058 1.368 133.946C1.48 133.834 1.624 133.778 1.8 133.778H3.72C3.88 133.778 4.016 133.834 4.128 133.946C4.24 134.058 4.296 134.202 4.296 134.378L4.296 142.154H8.064L8.064 134.906C8.064 134.73 8.12 134.586 8.232 134.474C8.344 134.362 8.488 134.306 8.664 134.306H10.44C10.6 134.306 10.736 134.362 10.848 134.474C10.96 134.586 11.016 134.73 11.016 134.906L11.016 142.154H14.904V134.186C14.904 134.01 14.96 133.866 15.072 133.754C15.184 133.642 15.328 133.586 15.504 133.586H17.4C17.576 133.586 17.72 133.642 17.832 133.754C17.944 133.866 18 134.01 18 134.186L18 145.25ZM18.24 112.082C18.24 113.586 17.992 114.866 17.496 115.922C16.984 116.962 16.248 117.77 15.288 118.346C14.312 118.922 13.128 119.242 11.736 119.306C11.08 119.322 10.376 119.33 9.624 119.33C8.872 119.33 8.152 119.322 7.464 119.306C6.088 119.242 4.92 118.922 3.96 118.346C2.984 117.754 2.24 116.93 1.728 115.874C1.216 114.818 0.959999 113.554 0.959999 112.082C0.959999 111.01 1.096 110.034 1.368 109.154C1.64 108.274 2.032 107.514 2.544 106.874C3.056 106.234 3.656 105.738 4.344 105.386C5.032 105.034 5.8 104.842 6.648 104.81C6.792 104.81 6.912 104.866 7.008 104.978C7.104 105.074 7.152 105.194 7.152 105.338V108.074C7.152 108.266 7.104 108.418 7.008 108.53C6.912 108.642 6.752 108.73 6.528 108.794C5.584 109.034 4.936 109.434 4.584 109.994C4.232 110.554 4.056 111.25 4.056 112.082C4.056 113.074 4.328 113.858 4.872 114.434C5.416 115.01 6.32 115.322 7.584 115.37C8.896 115.418 10.24 115.418 11.616 115.37C12.88 115.322 13.784 115.01 14.328 114.434C14.872 113.858 15.144 113.074 15.144 112.082C15.144 111.25 14.968 110.554 14.616 109.994C14.248 109.418 13.6 109.018 12.672 108.794C12.432 108.73 12.272 108.642 12.192 108.53C12.096 108.418 12.048 108.266 12.048 108.074V105.338C12.048 105.194 12.096 105.074 12.192 104.978C12.288 104.866 12.408 104.81 12.552 104.81C13.4 104.842 14.168 105.034 14.856 105.386C15.544 105.738 16.144 106.234 16.656 106.874C17.168 107.514 17.56 108.274 17.832 109.154C18.104 110.034 18.24 111.01 18.24 112.082ZM18 85.6972C18 85.8732 17.944 86.0172 17.832 86.1292C17.72 86.2412 17.576 86.2972 17.4 86.2972H4.536L4.536 90.6652C4.536 90.8252 4.48 90.9612 4.368 91.0732C4.256 91.1852 4.12 91.2412 3.96 91.2412H1.8C1.624 91.2412 1.48 91.1852 1.368 91.0732C1.256 90.9612 1.2 90.8252 1.2 90.6652L1.2 78.0892C1.2 77.9132 1.256 77.7692 1.368 77.6572C1.48 77.5452 1.624 77.4892 1.8 77.4892H3.96C4.12 77.4892 4.256 77.5452 4.368 77.6572C4.48 77.7692 4.536 77.9132 4.536 78.0892L4.536 82.4332H17.4C17.576 82.4332 17.72 82.4892 17.832 82.6012C17.944 82.7132 18 82.8572 18 83.0332L18 85.6972ZM18 62.4607C18 62.6367 17.944 62.7807 17.832 62.8927C17.72 63.0047 17.576 63.0607 17.4 63.0607H1.8C1.624 63.0607 1.48 63.0047 1.368 62.8927C1.256 62.7807 1.2 62.6367 1.2 62.4607L1.2 59.7487C1.2 59.5727 1.256 59.4287 1.368 59.3167C1.48 59.2047 1.624 59.1487 1.8 59.1487H17.4C17.576 59.1487 17.72 59.2047 17.832 59.3167C17.944 59.4287 18 59.5727 18 59.7487V62.4607ZM18.24 36.8156C18.24 38.2716 18 39.5276 17.52 40.5836C17.04 41.6396 16.32 42.4636 15.36 43.0556C14.384 43.6476 13.16 43.9676 11.688 44.0156C11 44.0316 10.32 44.0396 9.648 44.0396C8.96 44.0396 8.264 44.0316 7.56 44.0156C6.12 43.9676 4.912 43.6476 3.936 43.0556C2.944 42.4476 2.2 41.6156 1.704 40.5596C1.208 39.4876 0.959999 38.2396 0.959999 36.8156C0.959999 35.4076 1.208 34.1756 1.704 33.1196C2.2 32.0476 2.944 31.2076 3.936 30.5996C4.912 29.9916 6.12 29.6716 7.56 29.6396C8.264 29.6076 8.96 29.5916 9.648 29.5916C10.32 29.5916 11 29.6076 11.688 29.6396C13.16 29.6876 14.384 30.0076 15.36 30.5996C16.32 31.1916 17.04 32.0156 17.52 33.0716C18 34.1276 18.24 35.3756 18.24 36.8156ZM15.144 36.8156C15.144 35.8876 14.864 35.1276 14.304 34.5356C13.728 33.9276 12.816 33.6076 11.568 33.5756C10.864 33.5436 10.208 33.5276 9.6 33.5276C8.976 33.5276 8.32 33.5436 7.632 33.5756C6.8 33.5916 6.12 33.7436 5.592 34.0316C5.064 34.3196 4.68 34.7036 4.44 35.1836C4.184 35.6476 4.056 36.1916 4.056 36.8156C4.056 37.4396 4.184 37.9916 4.44 38.4716C4.68 38.9516 5.064 39.3356 5.592 39.6236C6.12 39.8956 6.8 40.0476 7.632 40.0796C8.32 40.0956 8.976 40.1036 9.6 40.1036C10.208 40.1036 10.864 40.0956 11.568 40.0796C12.816 40.0316 13.728 39.7116 14.304 39.1196C14.864 38.5276 15.144 37.7596 15.144 36.8156ZM18 13.8926C18 14.0686 17.944 14.2126 17.832 14.3246C17.72 14.4366 17.576 14.4926 17.4 14.4926H1.8C1.624 14.4926 1.48 14.4366 1.368 14.3246C1.256 14.2126 1.2 14.0686 1.2 13.8926V11.7086C1.2 11.4686 1.256 11.2926 1.368 11.1806C1.48 11.0686 1.568 10.9966 1.632 10.9646L11.64 4.55658H1.8C1.624 4.55658 1.48 4.50058 1.368 4.38858C1.256 4.27658 1.2 4.14058 1.2 3.98058L1.2 1.53258C1.2 1.35659 1.256 1.21258 1.368 1.10058C1.48 0.988584 1.624 0.932584 1.8 0.932584H17.4C17.56 0.932584 17.704 0.988584 17.832 1.10058C17.944 1.21258 18 1.35659 18 1.53258V3.74058C18 3.98058 17.944 4.15658 17.832 4.26859C17.704 4.36458 17.616 4.43658 17.568 4.48458L7.872 10.8686H17.4C17.576 10.8686 17.72 10.9246 17.832 11.0366C17.944 11.1486 18 11.2926 18 11.4686V13.8926Z" fill="url(#paint0_linear_113_803)"/>
<defs>
<linearGradient id="paint0_linear_113_803" x1="4" y1="268.36" x2="21.2821" y2="-6.54182" gradientUnits="userSpaceOnUse">
<stop stop-color="#674AD2"/>
<stop offset="1" stop-color="#44BCFF"/>
</linearGradient>
</defs>
</svg>
