<svg width="200" height="146" viewBox="0 0 200 146" fill="none" xmlns="http://www.w3.org/2000/svg">
<path d="M161.975 68.6689C170.199 68.6689 176.69 62.6269 176.69 55.4518V22.9788C176.69 15.8039 170.199 9.76172 161.975 9.76172L36.8925 9.76435C28.6683 9.76435 22.1777 15.8064 22.1777 22.9815V55.4545C22.1777 62.6294 28.6687 68.6716 36.8925 68.6716H64.1604C71.5178 68.6716 78.4432 65.2739 83.6362 60.3645C87.5308 56.9668 93.158 54.7017 99.6494 54.7017C106.14 54.7017 112.199 56.9669 115.663 60.3645C120.855 65.2741 127.349 68.6716 135.138 68.6716L161.975 68.6689Z" fill="#E6F8FF"/>
<path d="M161.975 68.6689C170.199 68.6689 176.69 62.6269 176.69 55.4518V22.9788C176.69 15.8039 170.199 9.76172 161.975 9.76172L36.8925 9.76435C28.6683 9.76435 22.1777 15.8064 22.1777 22.9815V55.4545C22.1777 62.6294 28.6687 68.6716 36.8925 68.6716H64.1604C71.5178 68.6716 78.4432 65.2739 83.6362 60.3645C87.5308 56.9668 93.158 54.7017 99.6494 54.7017C106.14 54.7017 112.199 56.9669 115.663 60.3645C120.855 65.2741 127.349 68.6716 135.138 68.6716L161.975 68.6689Z" fill="#E6F8FF"/>
<path fill-rule="evenodd" clip-rule="evenodd" d="M161.975 63.6195C167.879 63.6195 171.64 59.3917 171.64 55.4518V22.9788C171.64 19.0391 167.879 14.8111 161.975 14.8111L36.8926 14.8138C30.9888 14.8138 27.2271 19.0416 27.2271 22.9815V55.4545C27.2271 59.3942 30.9889 63.6222 36.8925 63.6222H64.1604C69.9614 63.6222 75.6986 60.9199 80.1673 56.6953L80.2406 56.6259L80.3167 56.5596C85.1713 52.3243 91.9921 49.6523 99.6494 49.6523C107.113 49.6523 114.54 52.2146 119.162 56.7236C123.659 60.9655 128.959 63.622 135.138 63.6222C135.138 63.6222 135.138 63.6222 135.138 63.6222L161.975 63.6195ZM135.138 68.6716C127.349 68.6716 120.855 65.2741 115.663 60.3645C112.199 56.9669 106.14 54.7017 99.6494 54.7017C93.158 54.7017 87.5308 56.9668 83.6362 60.3645C78.4432 65.2739 71.5178 68.6716 64.1604 68.6716H36.8925C28.6687 68.6716 22.1777 62.6294 22.1777 55.4545V22.9815C22.1777 15.8064 28.6683 9.76435 36.8925 9.76435L161.975 9.76172C170.199 9.76172 176.69 15.8039 176.69 22.9788V55.4518C176.69 62.6268 170.199 68.6689 161.975 68.6689L135.138 68.6716Z" fill="#4CC6F5"/>
<path fill-rule="evenodd" clip-rule="evenodd" d="M161.975 66.9858C169.426 66.9858 175.007 61.5485 175.007 55.4518V22.9788C175.007 16.8823 169.425 11.4449 161.975 11.4449L36.8926 11.4475C29.4418 11.4475 23.8609 16.8848 23.8609 22.9815V55.4545C23.8609 61.551 29.4421 66.9884 36.8925 66.9884H64.1604C70.999 66.9884 77.5283 63.8225 82.4799 59.1414L82.5043 59.1183L82.5297 59.0962C86.7443 55.4193 92.7694 53.0186 99.6494 53.0186C106.464 53.0186 112.98 55.3826 116.83 59.1516C121.791 63.8385 127.886 66.9884 135.138 66.9884C135.138 66.9884 135.138 66.9884 135.138 66.9884L161.975 66.9858ZM135.138 68.6716C127.349 68.6716 120.855 65.2741 115.663 60.3645C112.199 56.9669 106.14 54.7017 99.6494 54.7017C93.158 54.7017 87.5308 56.9668 83.6362 60.3645C78.4432 65.2739 71.5178 68.6716 64.1604 68.6716H36.8925C28.6687 68.6716 22.1777 62.6294 22.1777 55.4545V22.9815C22.1777 15.8064 28.6683 9.76435 36.8925 9.76435L161.975 9.76172C170.199 9.76172 176.69 15.8039 176.69 22.9788V55.4518C176.69 62.6268 170.199 68.6689 161.975 68.6689L135.138 68.6716Z" fill="#1CB4EF"/>
<path d="M179.719 21.5449V56.5542L185.387 43.6662C185.387 43.6662 195.39 21.5449 187.388 23.6609C185.013 24.2889 179.719 21.5449 179.719 21.5449Z" fill="#98E1FE"/>
<path d="M19.1465 21.5449V56.5542L13.478 43.6662C13.478 43.6662 3.4749 21.5449 11.4774 23.6609C13.8526 24.2889 19.1465 21.5449 19.1465 21.5449Z" fill="#98E1FE"/>
<path d="M179.719 21.5449V52.178L180.897 49.8216C180.897 49.8216 192.847 25.2478 186.451 25.2478C184.567 25.2478 179.719 21.5449 179.719 21.5449Z" fill="#1CB4EF"/>
<path d="M19.25 21.5449V52.178L18.0718 49.8216C18.0718 49.8216 6.12144 25.2478 12.5174 25.2478C14.4018 25.2478 19.25 21.5449 19.25 21.5449Z" fill="#1CB4EF"/>
<path d="M161.525 5.69607C158.551 2.08843 153.666 0 148.567 0L50.4244 0.00132434C45.3258 0.00132434 40.4403 2.08983 37.4662 5.69739L35.9785 7.40581H163.224L161.525 5.69607Z" fill="#C9F0FF"/>
<path d="M161.527 6.23915C158.553 3.7794 153.668 2.35547 148.569 2.35547L50.4264 2.35637C45.3277 2.35637 40.4422 3.78035 37.4682 6.24005L35.9805 7.40488H163.226L161.527 6.23915Z" fill="#98E1FE"/>
<path d="M49.9087 48.9978C51.0673 47.1518 52.5165 45.9584 54.5692 45.0606C58.3048 43.4256 60.124 43.1483 64.1813 43.2755C66.7085 43.3538 68.6815 44.1381 70.6225 45.6318C71.7463 46.5097 72.9553 47.2737 74.2309 47.9132C75.6736 48.6196 77.2696 48.8435 78.8494 48.3537C80.9499 47.6938 81.8287 46.0366 82.1287 44.0055C82.4143 42.093 82.2368 40.6247 81.847 38.7617C80.9931 34.4714 79.4014 30.4821 76.9195 26.8673C75.7726 25.1657 74.304 23.7045 72.5954 22.5651C69.6353 20.5209 66.6876 20.8925 64.3231 23.5918C64.0665 23.8852 63.827 24.1939 63.5852 24.4993C59.9818 29.0943 55.7755 30.1726 50.5531 27.5797C49.7405 27.1751 49.0023 26.6312 48.2075 26.1927C45.3957 24.6376 42.7073 25.1459 40.65 27.5937C39.143 29.396 38.2911 31.1354 37.6668 33.3501C36.3541 38.0079 36.2344 42.7373 37.0775 47.4767C37.3426 48.97 37.7534 50.0402 38.3762 51.4182C39.2183 53.2856 40.6645 54.5144 42.8718 54.4696C44.2221 54.4425 45.3763 53.8494 46.4457 53.0884C47.9589 52.025 48.9529 50.5237 49.9084 48.9983L49.9087 48.9978Z" fill="#3B2FEE"/>
<path d="M149.568 48.9978C148.409 47.1518 146.96 45.9584 144.907 45.0606C141.172 43.4256 139.353 43.1483 135.295 43.2755C132.768 43.3538 130.795 44.1381 128.854 45.6318C127.73 46.5097 126.521 47.2737 125.246 47.9132C123.803 48.6196 122.207 48.8435 120.627 48.3537C118.527 47.6938 117.648 46.0366 117.348 44.0055C117.062 42.093 117.24 40.6247 117.63 38.7617C118.484 34.4714 120.075 30.4821 122.557 26.8673C123.704 25.1657 125.173 23.7045 126.881 22.5651C129.841 20.5209 132.789 20.8925 135.153 23.5918C135.41 23.8852 135.65 24.1939 135.891 24.4993C139.495 29.0943 143.701 30.1726 148.923 27.5797C149.736 27.1751 150.474 26.6312 151.269 26.1927C154.081 24.6376 156.769 25.1459 158.827 27.5937C160.334 29.396 161.185 31.1354 161.81 33.3501C163.122 38.0079 163.242 42.7373 162.399 47.4767C162.134 48.97 161.723 50.0402 161.1 51.4182C160.258 53.2856 158.812 54.5144 156.605 54.4696C155.254 54.4425 154.1 53.8494 153.031 53.0884C151.518 52.025 150.524 50.5237 149.568 48.9983L149.568 48.9978Z" fill="#3B2FEE"/>
<path d="M50.8415 49.5008C52.0059 47.9048 53.4388 46.8582 55.4518 46.0507C59.115 44.58 60.8882 44.3056 64.8269 44.3285C67.2802 44.342 69.1803 44.9682 71.0345 46.199C72.1077 46.9228 73.266 47.5478 74.4917 48.0654C75.8783 48.6364 77.424 48.7935 78.969 48.3432C81.0233 47.7372 81.9119 46.3078 82.2461 44.5722C82.5638 42.9379 82.4223 41.6915 82.0829 40.1137C81.3436 36.4789 79.8815 33.116 77.5465 30.0907C76.4683 28.6661 75.0723 27.453 73.4366 26.5189C70.6041 24.8409 67.7328 25.2193 65.379 27.5672C65.1236 27.8224 64.8844 28.0903 64.643 28.3553C61.0459 32.3433 56.937 33.3499 51.9184 31.2522C51.1376 30.9249 50.4319 30.4774 49.669 30.1208C46.9704 28.856 44.348 29.3453 42.298 31.4727C40.7961 33.0389 39.9319 34.5377 39.2789 36.4364C37.9056 40.4296 37.6897 44.4586 38.409 48.4759C38.6351 49.7417 39.0116 50.6442 39.5876 51.8043C40.3664 53.3764 41.7454 54.3922 43.8905 54.3076C45.2028 54.256 46.3366 53.7268 47.3914 53.0564C48.8838 52.1192 49.8809 50.8201 50.8412 49.5013L50.8415 49.5008Z" fill="#594EFF"/>
<path d="M148.422 49.4623C147.267 47.868 145.845 46.8233 143.847 46.0182C140.21 44.552 138.45 44.2798 134.538 44.3072C132.101 44.3235 130.213 44.9518 128.37 46.1846C127.303 46.9095 126.152 47.5357 124.934 48.0546C123.556 48.6271 122.021 48.7859 120.487 48.3376C118.448 47.734 117.567 46.3059 117.237 44.5711C116.923 42.9375 117.065 41.6912 117.404 40.1133C118.142 36.4784 119.599 33.1144 121.921 30.087C122.994 28.6615 124.382 27.4469 126.007 26.5112C128.822 24.8301 131.674 25.2052 134.009 27.5499C134.262 27.8047 134.499 28.0723 134.739 28.337C138.307 32.32 142.386 33.3216 147.373 31.2186C148.149 30.8904 148.851 30.4421 149.609 30.0848C152.29 28.8171 154.894 29.3033 156.928 31.4278C158.418 32.992 159.274 34.4895 159.921 36.387C161.28 40.3778 161.49 44.4059 160.771 48.4232C160.545 49.689 160.17 50.5917 159.596 51.7523C158.821 53.325 157.45 54.3422 155.32 54.2601C154.016 54.2101 152.891 53.6822 151.844 53.0131C150.363 52.0779 149.374 50.7802 148.422 49.4627L148.422 49.4623Z" fill="#594EFF"/>
<path d="M113.082 13.3457L107.007 11.4448L88.9129 51.8195L95.0568 53.3549L113.082 13.3457Z" fill="#4CC6F5"/>
<path d="M109.514 11.2402L107.157 11.1163L86.6996 56.6904L89.1963 56.4295L109.514 11.2402Z" fill="#1CB4EF"/>
<path d="M47.5917 113.484C54.9572 113.484 58.64 115.98 58.64 120.972V136.854H54.0365L51.4126 134.268C50.5226 135.296 49.3103 136.098 47.7758 136.673C46.2414 137.248 44.7836 137.535 43.4026 137.535C42.0522 137.535 40.9627 137.429 40.1341 137.217C39.3055 137.006 38.4922 136.643 37.6943 136.128C35.945 135.039 35.0703 133.012 35.0703 130.048C35.0703 124.602 39.2441 121.879 47.5917 121.879H49.4331V120.246C48.451 120.185 47.6377 120.155 46.9932 120.155C43.5253 120.155 40.5484 120.563 38.0626 121.38L36.9577 114.891C40.0267 113.953 43.5714 113.484 47.5917 113.484ZM44.3693 129.049V130.91H46.2567C47.607 130.91 48.4664 130.759 48.8346 130.456C49.2336 130.153 49.4331 129.76 49.4331 129.276V127.143H47.5457C46.4408 127.143 45.6276 127.264 45.1058 127.506C44.6148 127.718 44.3693 128.232 44.3693 129.049Z" fill="#F1FBFF"/>
<path d="M59.6055 132.34L68.6405 120.838L68.5022 120.555H61.2189L60.5274 113.484H81.4555V118.198L72.5588 129.7L72.6971 129.983H81.7321V137.054H59.6055V132.34Z" fill="#1CB4EF"/>
<path d="M83.2932 137.054V115.103L92.5817 113.947V137.054H83.2932ZM92.6746 110.528L84.5936 112.145L82.6895 109.511L91.4671 103.087C91.6529 102.964 91.8541 102.902 92.0709 102.902C92.2876 102.902 92.5353 103.072 92.814 103.411L95.7399 106.831C96.0185 107.139 96.1578 107.4 96.1578 107.616C96.1578 107.801 96.1114 107.955 96.0185 108.078C95.9566 108.171 95.2445 108.802 93.8821 109.973C93.5725 110.25 93.17 110.435 92.6746 110.528Z" fill="#F1FBFF"/>
<path d="M139.925 113.484C147.441 113.484 151.199 115.98 151.199 120.972V136.854H146.502L143.824 134.268C142.916 135.296 141.679 136.098 140.113 136.673C138.547 137.248 137.06 137.535 135.651 137.535C134.273 137.535 133.161 137.429 132.316 137.217C131.47 137.006 130.64 136.643 129.826 136.128C128.041 135.039 127.148 133.012 127.148 130.048C127.148 124.602 131.407 121.879 139.925 121.879H141.804V120.246C140.802 120.185 139.972 120.155 139.315 120.155C135.776 120.155 132.738 120.563 130.202 121.38L129.074 114.891C132.206 113.953 135.823 113.484 139.925 113.484ZM136.637 129.049V130.91H138.563C139.941 130.91 140.818 130.759 141.194 130.456C141.601 130.153 141.804 129.76 141.804 129.276V127.143H139.878C138.751 127.143 137.921 127.264 137.389 127.506C136.888 127.718 136.637 128.232 136.637 129.049Z" fill="#F1FBFF"/>
<path d="M152.16 119.763V113.761H154.497V110.039L163.846 107.713V113.761H167.072V119.763H163.846V130.371C164.656 130.526 165.576 130.634 166.604 130.696L166.183 137.536C161.914 137.536 159.141 137.303 157.863 136.838C156.274 136.28 155.276 135.535 154.871 134.605C154.622 134.046 154.497 133.395 154.497 132.651V119.763H152.16Z" fill="#F1FBFF"/>
<path d="M169.518 137.055V115.053L179.009 113.895V137.055H169.518ZM170.04 112.413C169.344 111.888 168.996 110.931 168.996 109.541C168.996 108.151 169.344 107.179 170.04 106.623C170.768 106.067 172.176 105.789 174.264 105.789C176.383 105.789 177.791 106.067 178.487 106.623C179.215 107.179 179.578 108.151 179.578 109.541C179.578 110.931 179.215 111.888 178.487 112.413C177.791 112.938 176.383 113.2 174.264 113.2C172.176 113.2 170.768 112.938 170.04 112.413Z" fill="#F1FBFF"/>
<path d="M198.748 130.048L199.298 136.582C197.71 137.217 195.664 137.535 193.159 137.535C188.884 137.535 185.784 136.552 183.86 134.585C181.966 132.589 181.02 129.564 181.02 125.51C181.02 121.456 181.966 118.446 183.86 116.479C185.784 114.483 188.884 113.484 193.159 113.484C195.816 113.484 197.863 113.802 199.298 114.437L198.199 120.609C196.58 120.276 195.297 120.11 194.35 120.11C192.029 120.11 190.869 120.911 190.869 122.515V130.638C191.755 130.819 192.885 130.91 194.259 130.91C195.664 130.91 197.16 130.622 198.748 130.048Z" fill="#F1FBFF"/>
<path d="M5.33008 138.978C2.83923 137.766 1.42775 136.367 0.95303 133.663C0.846546 130.306 0.947685 130.413 2.00895 125.551C3.07021 120.689 3.08426 117.055 6.32642 113.989C9.67036 110.827 17.3268 111.658 17.3268 111.658L17.8574 122.491L18.3123 120.346L19.9421 111.658H31.9571L33.6289 137.613H24.2416C24.2416 137.613 24.3009 122.175 24.5661 121.472C24.7064 121.1 23.8368 121.163 23.6565 121.472C23.192 122.266 23.0995 123.104 23.0995 123.104C22.7299 125.432 22.1849 131.027 22.1849 135.491C22.1849 138.441 22.3791 140.33 22.1849 141.215C21.9906 142.101 20.0499 141.821 20.0499 141.821L18.9409 141.728L17.185 141.542L12.4705 140.936C12.4705 140.936 12.4718 123.104 12.2858 121.472C12.2622 121.264 11.7908 121.266 11.7552 121.472C10.6181 128.04 10.6181 128.175 10.6181 128.175C9.89665 131.953 9.18607 132.884 9.89664 137.613C10.0557 138.672 10.0627 139.351 10.4778 140.283C10.893 141.215 7.82093 140.19 5.33008 138.978Z" fill="#1CB4EF"/>
<path d="M97.953 138.978C95.4255 137.766 93.9933 136.367 93.5116 133.663C93.4035 130.306 93.5061 130.413 94.583 125.551C95.6599 120.689 95.6741 117.055 98.964 113.989C102.357 110.827 110.126 111.658 110.126 111.658L110.665 122.491L111.126 120.346L112.78 111.658H124.972L126.668 137.613H117.143C117.143 137.613 117.203 122.175 117.472 121.472C117.614 121.1 116.732 121.163 116.549 121.472C116.078 122.266 115.984 123.104 115.984 123.104C115.609 125.432 115.056 131.027 115.056 135.491C115.056 138.441 115.253 140.33 115.056 141.215C114.858 142.101 112.889 141.821 112.889 141.821L111.764 141.728L109.982 141.542L105.198 140.936C105.198 140.936 105.2 123.104 105.011 121.472C104.987 121.264 104.509 121.266 104.473 121.472C103.319 128.04 103.319 128.175 103.319 128.175C102.587 131.953 101.866 132.884 102.587 137.613C102.748 138.672 102.755 139.351 103.176 140.283C103.598 141.215 100.48 140.19 97.953 138.978Z" fill="#1CB4EF"/>
</svg>
