<svg width="32" height="32" viewBox="0 0 32 32" fill="none" xmlns="http://www.w3.org/2000/svg">
<path d="M2.84451 16C2.84451 8.74603 8.74603 2.84444 16.0001 2.84444C23.2541 2.84444 29.1556 8.74597 29.1556 16C29.1556 23.254 23.2541 29.1556 16.0001 29.1556C8.74603 29.1556 2.84451 23.254 2.84451 16ZM0 16C0 24.8368 7.16318 32 16 32C24.8368 32 32 24.8368 32 16C32 7.16317 24.8368 0 16 0C7.16318 0 0 7.16317 0 16Z" fill="#1C2A3D"/>
<path d="M23.4082 14.2223C23.4082 14.5568 23.2909 14.8929 23.0521 15.1635C22.5322 15.7523 21.6334 15.8078 21.0446 15.2875L17.4231 12.0881V24.2957C17.4231 25.0811 16.7862 25.7178 16.001 25.7178C15.2155 25.7178 14.5789 25.0809 14.5789 24.2957V12.0392L10.9251 15.0778C10.3272 15.5754 9.44024 15.5 8.93478 14.9087C8.42982 14.3177 8.49257 13.43 9.0769 12.9161L14.9434 7.76063C15.4814 7.28766 16.2872 7.2889 16.8239 7.76311L22.9278 13.1562C23.2458 13.4369 23.4082 13.8288 23.4082 14.2224L23.4082 14.2223Z" fill="white"/>
</svg>
