<svg width="54" height="46" viewBox="0 0 54 46" fill="none" xmlns="http://www.w3.org/2000/svg">
<path d="M0 45.6424V38.1533H3.49573C4.00422 38.1533 4.44495 38.2155 4.81792 38.3398C5.19205 38.4654 5.50189 38.6453 5.74745 38.8795C5.99417 39.1137 6.17718 39.4002 6.29648 39.7391C6.41695 40.0779 6.47718 40.46 6.47718 40.8852C6.47718 41.2842 6.41753 41.6532 6.29822 41.9921C6.18008 42.3296 5.9988 42.6227 5.7544 42.8713C5.51 43.1186 5.20074 43.3115 4.82661 43.4502C4.45364 43.5889 4.01291 43.6583 3.50442 43.6583L1.34478 43.6543V45.6424H0ZM1.34478 42.3414H3.52874C3.78357 42.3414 4.00654 42.3067 4.19766 42.2374C4.38877 42.1693 4.54862 42.0719 4.67719 41.945C4.80576 41.8194 4.9019 41.6663 4.9656 41.4857C5.02931 41.3052 5.06116 41.105 5.06116 40.8852C5.06116 40.4403 4.93317 40.0943 4.67719 39.847C4.42121 39.5997 4.03839 39.4761 3.52874 39.4761H1.34478V42.3414ZM7.09223 45.6424L10.2057 38.1533H11.6304L14.8377 45.6424H13.4252L12.8953 44.3824H9.02253L8.50825 45.6424H7.09223ZM9.53507 43.1323H12.3636L10.9302 39.7292L9.53507 43.1323ZM17.8991 45.6424V43.7878L15.0028 38.1533H16.5248L18.5663 42.412L20.58 38.1533H22.1037L19.2439 43.778V45.6424H17.8991ZM23.1201 45.6424V38.1533H26.6628C27.0948 38.1533 27.4718 38.205 27.7938 38.3084C28.1147 38.413 28.3811 38.5563 28.5931 38.7382C28.805 38.92 28.9626 39.1366 29.0656 39.3878C29.1687 39.6377 29.2203 39.9085 29.2203 40.2003C29.2203 40.6752 29.0876 41.0919 28.8224 41.4504C29.127 41.6545 29.3546 41.9194 29.5052 42.2452C29.6546 42.571 29.7293 42.9413 29.7293 43.356C29.7293 43.7054 29.6778 44.02 29.5747 44.3C29.4716 44.5813 29.3147 44.822 29.1039 45.0222C28.8931 45.2211 28.6272 45.3742 28.3064 45.4815C27.9855 45.5888 27.6073 45.6424 27.1718 45.6424H23.1201ZM24.4649 41.0284H27.1805C27.2963 41.0284 27.4093 41.033 27.5193 41.0422C27.7093 40.8381 27.8043 40.6052 27.8043 40.3435C27.8043 40.0714 27.7099 39.8614 27.5211 39.7135C27.3334 39.5644 27.0583 39.4898 26.6958 39.4898H24.4649V41.0284ZM24.4649 44.3196H27.2048C27.5674 44.3196 27.8425 44.232 28.0301 44.0567C28.2189 43.8813 28.3133 43.6334 28.3133 43.3129C28.3133 42.9936 28.2189 42.745 28.0301 42.5671C27.8425 42.3878 27.5674 42.2982 27.2048 42.2982H24.4649V44.3196ZM30.2384 45.6424L33.3519 38.1533H34.7766L37.9839 45.6424H36.5714L36.0415 44.3824H32.1687L31.6544 45.6424H30.2384ZM32.6813 43.1323H35.5098L34.0764 39.7292L32.6813 43.1323ZM39.0142 45.6424V38.1533H42.5551C42.9883 38.1533 43.3654 38.205 43.6862 38.3084C44.007 38.413 44.2735 38.5563 44.4854 38.7382C44.6974 38.92 44.8549 39.1366 44.958 39.3878C45.0623 39.6377 45.1144 39.9085 45.1144 40.2003C45.1144 40.6752 44.9812 41.0919 44.7148 41.4504C45.0206 41.6545 45.2482 41.9194 45.3976 42.2452C45.5482 42.571 45.6234 42.9413 45.6234 43.356C45.6234 43.7054 45.5713 44.02 45.4671 44.3C45.364 44.5813 45.207 44.822 44.9962 45.0222C44.7866 45.2211 44.5208 45.3742 44.1987 45.4815C43.8779 45.5888 43.4997 45.6424 43.0642 45.6424H39.0142ZM40.359 41.0284H43.0729C43.1887 41.0284 43.3022 41.033 43.4134 41.0422C43.6022 40.8381 43.6966 40.6052 43.6966 40.3435C43.6966 40.0714 43.6028 39.8614 43.4152 39.7135C43.2264 39.5644 42.9513 39.4898 42.5899 39.4898H40.359V41.0284ZM40.359 44.3196H43.0989C43.4603 44.3196 43.7354 44.232 43.9242 44.0567C44.1119 43.8813 44.2057 43.6334 44.2057 43.3129C44.2057 42.9936 44.1119 42.745 43.9242 42.5671C43.7354 42.3878 43.4603 42.2982 43.0989 42.2982H40.359V44.3196ZM46.1308 45.6424L49.2443 38.1533H50.6707L53.8763 45.6424H52.4637L51.9338 44.3824H48.0611L47.5485 45.6424H46.1308ZM48.5736 43.1323H51.4039L49.9705 39.7292L48.5736 43.1323Z" fill="white"/>
<path d="M12.7949 17.1171C12.7949 7.66352 19.5796 0 27.9487 0C36.3179 0 43.1024 7.66367 43.1026 17.1171C43.1026 26.5707 36.3179 34.2342 27.9487 34.2343C19.5794 34.2343 12.7949 26.5707 12.7949 17.1171ZM27.9487 33.559C35.9877 33.559 42.5045 26.1977 42.5047 17.1171C42.5047 8.03652 35.9877 0.675365 27.9487 0.675365C19.9096 0.675365 13.3928 8.03667 13.3928 17.1171C13.3928 26.1977 19.9098 33.5588 27.9487 33.559Z" fill="white"/>
<path d="M26.9374 10.8025C27.7927 10.8025 28.4861 10.0192 28.4861 9.05309C28.4861 8.08693 27.7927 7.30371 26.9374 7.30371C26.0821 7.30371 25.3887 8.08693 25.3887 9.05309C25.3887 10.0192 26.0821 10.8025 26.9374 10.8025Z" fill="white"/>
<path d="M25.2484 15.0618C25.5191 15.0618 25.7385 14.8139 25.7385 14.5082C25.7385 14.2024 25.5191 13.9546 25.2484 13.9546C24.9777 13.9546 24.7583 14.2024 24.7583 14.5082C24.7583 14.8139 24.9777 15.0618 25.2484 15.0618Z" fill="white"/>
<path d="M28.6263 15.0618C28.897 15.0618 29.1164 14.8139 29.1164 14.5082C29.1164 14.2024 28.897 13.9546 28.6263 13.9546C28.3557 13.9546 28.1362 14.2024 28.1362 14.5082C28.1362 14.8139 28.3557 15.0618 28.6263 15.0618Z" fill="white"/>
<path d="M31.9596 13.4757C31.9596 11.295 30.3891 9.521 28.4591 9.521H25.4163C25.2958 9.521 25.1764 9.52786 25.059 9.54137C23.2956 9.74421 21.9152 11.4305 21.9158 13.4644C21.8978 13.6668 21.4777 18.4368 21.9201 19.9798C22.5661 22.2319 26.6892 27.4807 26.8645 27.703L26.9378 27.796L27.0109 27.703C27.1864 27.4807 31.3093 22.2319 31.9551 19.9798C32.3975 18.4368 31.9772 13.6668 31.9596 13.4757ZM30.3875 15.1992C30.3875 15.7519 29.9909 16.1999 29.5014 16.1999H24.3734C23.8841 16.1999 23.4875 15.7517 23.4875 15.1992V13.8167C23.4875 13.264 23.8841 12.816 24.3734 12.816H29.5014C29.9908 12.816 30.3875 13.264 30.3875 13.8167V15.1992Z" fill="white"/>
</svg>
