<svg width="159" height="159" viewBox="0 0 159 159" fill="none" xmlns="http://www.w3.org/2000/svg">
<rect x="3.5" y="3.5" width="152" height="152" fill="#13151F"/>
<rect x="3.5" y="3.5" width="152" height="152" stroke="url(#paint0_linear_124_10)" stroke-width="7" style="mix-blend-mode:soft-light"/>
<path d="M89.8387 58.9252C89.8387 62.7501 86.7381 65.8503 82.9136 65.8503C79.0887 65.8503 75.9884 62.7501 75.9884 58.9252C75.9884 55.1007 79.0887 52 82.9136 52C86.7381 52 89.8387 55.1007 89.8387 58.9252Z" fill="white"/>
<path d="M84.29 107.18C83.496 107.575 82.6275 107.799 81.7413 107.835C79.6489 107.898 77.5784 107.394 75.749 106.376C71.5753 104.013 69.5534 99.1279 70.3383 93.3015C70.9385 88.8418 74.8718 71.3996 75.3059 69.46H75.3055C75.4605 68.7613 75.885 68.152 76.4868 67.7646C77.0882 67.3771 77.8187 67.2432 78.5191 67.3915L83.2467 68.3887H83.2463C83.9524 68.5375 84.5699 68.9604 84.9632 69.5651C85.3565 70.1698 85.4929 70.906 85.3425 71.6113C84.8899 73.6242 80.9104 92.0824 80.7257 93.3835C80.5596 94.3716 80.1531 95.581 80.6334 96.532C81.2797 97.8156 83.4034 97.1598 84.5024 97.6952V97.6956C85.8829 98.4187 86.8487 99.7426 87.1154 101.278C87.3421 102.435 87.1896 103.633 86.6805 104.697C86.1715 105.76 85.333 106.63 84.2902 107.179L84.29 107.18Z" fill="white"/>
<defs>
<linearGradient id="paint0_linear_124_10" x1="28.6169" y1="13.2003" x2="90.5644" y2="138.145" gradientUnits="userSpaceOnUse">
<stop stop-color="white"/>
<stop offset="1" stop-color="#E1E5EA"/>
</linearGradient>
</defs>
</svg>
