<svg width="83" height="28" viewBox="0 0 83 28" fill="none" xmlns="http://www.w3.org/2000/svg">
<path d="M0 0H83V28H0V0Z" fill="#00FF94"/>
<path d="M21.3983 18.8472C21.2815 18.8472 21.1859 18.8116 21.1115 18.7403C21.0372 18.669 21 18.5773 21 18.4653V8.53472C21 8.42269 21.0372 8.33102 21.1115 8.25972C21.1859 8.18843 21.2815 8.15278 21.3983 8.15278H25.3976C26.4598 8.15278 27.3467 8.31574 28.0584 8.64167C28.7701 8.95741 29.3118 9.42593 29.6836 10.0472C30.066 10.6583 30.2678 11.4171 30.2891 12.3236C30.2997 12.7718 30.305 13.1639 30.305 13.5C30.305 13.8361 30.2997 14.2231 30.2891 14.6611C30.2572 15.6083 30.0607 16.3926 29.6995 17.0139C29.3384 17.6352 28.8073 18.0986 28.1062 18.4042C27.4052 18.6995 26.5288 18.8472 25.4772 18.8472H21.3983ZM23.5334 16.8764H25.3976C25.9287 16.8764 26.3642 16.8 26.7041 16.6472C27.044 16.4944 27.2936 16.2551 27.453 15.9292C27.6229 15.5931 27.7132 15.1602 27.7238 14.6306C27.7344 14.3352 27.7398 14.0704 27.7398 13.8361C27.7504 13.6019 27.7504 13.3676 27.7398 13.1333C27.7398 12.8991 27.7344 12.6394 27.7238 12.3542C27.7026 11.5903 27.4954 11.0301 27.1024 10.6736C26.72 10.3069 26.1252 10.1236 25.3179 10.1236H23.5334V16.8764Z" fill="#003111"/>
<path d="M36.7259 19C35.7592 19 34.9254 18.8472 34.2243 18.5417C33.5233 18.2361 32.9762 17.7778 32.5832 17.1667C32.1902 16.5454 31.9777 15.7662 31.9459 14.8292C31.9353 14.3912 31.9299 13.9583 31.9299 13.5306C31.9299 13.0926 31.9353 12.6495 31.9459 12.2014C31.9777 11.2847 32.1902 10.5157 32.5832 9.89444C32.9869 9.26296 33.5392 8.78935 34.2403 8.47361C34.952 8.15787 35.7805 8 36.7259 8C37.6606 8 38.4785 8.15787 39.1796 8.47361C39.8913 8.78935 40.4489 9.26296 40.8526 9.89444C41.2562 10.5157 41.4686 11.2847 41.4899 12.2014C41.5111 12.6495 41.5218 13.0926 41.5218 13.5306C41.5218 13.9583 41.5111 14.3912 41.4899 14.8292C41.458 15.7662 41.2456 16.5454 40.8526 17.1667C40.4595 17.7778 39.9125 18.2361 39.2114 18.5417C38.5104 18.8472 37.6818 19 36.7259 19ZM36.7259 17.0292C37.3419 17.0292 37.8465 16.8509 38.2395 16.4944C38.6432 16.1278 38.8556 15.5472 38.8768 14.7528C38.8981 14.3046 38.9087 13.887 38.9087 13.5C38.9087 13.1028 38.8981 12.6852 38.8768 12.2472C38.8662 11.7176 38.7653 11.2847 38.5741 10.9486C38.3829 10.6125 38.128 10.3681 37.8093 10.2153C37.5013 10.0523 37.1401 9.97083 36.7259 9.97083C36.3116 9.97083 35.9451 10.0523 35.6265 10.2153C35.3078 10.3681 35.0529 10.6125 34.8617 10.9486C34.6811 11.2847 34.5802 11.7176 34.5589 12.2472C34.5483 12.6852 34.543 13.1028 34.543 13.5C34.543 13.887 34.5483 14.3046 34.5589 14.7528C34.5908 15.5472 34.8032 16.1278 35.1963 16.4944C35.5893 16.8509 36.0991 17.0292 36.7259 17.0292Z" fill="#003111"/>
<path d="M43.8978 18.8472C43.781 18.8472 43.6854 18.8116 43.611 18.7403C43.5366 18.669 43.4995 18.5773 43.4995 18.4653V8.53472C43.4995 8.42269 43.5366 8.33102 43.611 8.25972C43.6854 8.18843 43.781 8.15278 43.8978 8.15278H45.3477C45.5071 8.15278 45.6239 8.18843 45.6983 8.25972C45.7726 8.33102 45.8204 8.38704 45.8417 8.42778L50.0958 14.7986V8.53472C50.0958 8.42269 50.133 8.33102 50.2074 8.25972C50.2817 8.18843 50.372 8.15278 50.4782 8.15278H52.1034C52.2203 8.15278 52.3159 8.18843 52.3902 8.25972C52.4646 8.33102 52.5017 8.42269 52.5017 8.53472V18.4653C52.5017 18.5671 52.4646 18.6588 52.3902 18.7403C52.3159 18.8116 52.2203 18.8472 52.1034 18.8472H50.6376C50.4782 18.8472 50.3614 18.8116 50.287 18.7403C50.2233 18.6588 50.1755 18.6028 50.1436 18.5722L45.9054 12.4V18.4653C45.9054 18.5773 45.8682 18.669 45.7939 18.7403C45.7195 18.8116 45.6239 18.8472 45.5071 18.8472H43.8978Z" fill="#003111"/>
<path d="M55.2565 18.8472C55.1396 18.8472 55.044 18.8116 54.9697 18.7403C54.8953 18.669 54.8581 18.5773 54.8581 18.4653V8.53472C54.8581 8.42269 54.8953 8.33102 54.9697 8.25972C55.044 8.18843 55.1396 8.15278 55.2565 8.15278H62.4742C62.591 8.15278 62.6866 8.18843 62.761 8.25972C62.8354 8.33102 62.8725 8.42269 62.8725 8.53472V9.75694C62.8725 9.8588 62.8354 9.94537 62.761 10.0167C62.6866 10.088 62.591 10.1236 62.4742 10.1236H57.3118V12.5222H62.1237C62.2405 12.5222 62.3361 12.5579 62.4105 12.6292C62.4848 12.7005 62.522 12.7921 62.522 12.9042V14.0347C62.522 14.1366 62.4848 14.2231 62.4105 14.2944C62.3361 14.3657 62.2405 14.4014 62.1237 14.4014H57.3118V16.8764H62.6017C62.7185 16.8764 62.8141 16.912 62.8885 16.9833C62.9628 17.0546 63 17.1463 63 17.2583V18.4653C63 18.5773 62.9628 18.669 62.8885 18.7403C62.8141 18.8116 62.7185 18.8472 62.6017 18.8472H55.2565Z" fill="#003111"/>
</svg>
