<svg width="224" height="59" viewBox="0 0 224 59" fill="none" xmlns="http://www.w3.org/2000/svg">
<path d="M211.144 29.002C211.144 31.2902 209.289 33.1455 207.001 33.1455C204.712 33.1455 202.857 31.2902 202.857 29.002C202.857 26.7137 204.712 24.8584 207.001 24.8584C209.289 24.8584 211.144 26.7137 211.144 29.002Z" fill="#1B293B"/>
<path d="M198.716 41.4311C198.716 43.7189 196.861 45.5747 194.572 45.5747C192.286 45.5747 190.43 43.7194 190.43 41.4311C190.43 39.1424 192.286 37.2871 194.572 37.2871C196.861 37.2871 198.716 39.1429 198.716 41.4311Z" fill="#1B293B"/>
<path d="M198.716 16.5723C198.716 18.8601 196.861 20.7149 194.572 20.7149C192.286 20.7149 190.43 18.8601 190.43 16.5723C190.43 14.2845 192.286 12.4287 194.572 12.4287C196.861 12.4292 198.716 14.284 198.716 16.5723Z" fill="#1B293B"/>
<path d="M186.286 53.8604C186.286 56.1491 184.431 58.0039 182.143 58.0039C179.857 58.0039 178 56.1491 178 53.8604C178 51.5726 179.857 49.7168 182.143 49.7168C184.431 49.7177 186.286 51.5726 186.286 53.8604Z" fill="#1B293B"/>
<path d="M186.286 4.14357C186.286 6.43138 184.431 8.28622 182.143 8.28622C179.857 8.28622 178 6.43138 178 4.14357C178 1.85577 179.857 0 182.143 0C184.431 0 186.286 1.85485 186.286 4.14357Z" fill="#1B293B"/>
<path d="M223.574 29.002C223.574 31.2902 221.719 33.1455 219.431 33.1455C217.142 33.1455 215.287 31.2902 215.287 29.002C215.287 26.7137 217.142 24.8584 219.431 24.8584C221.719 24.8584 223.574 26.7137 223.574 29.002Z" fill="#1B293B"/>
<path d="M211.145 41.4311C211.145 43.7189 209.29 45.5747 207.001 45.5747C204.715 45.5747 202.857 43.7194 202.857 41.4311C202.857 39.1424 204.715 37.2871 207.001 37.2871C209.29 37.2871 211.145 39.1429 211.145 41.4311Z" fill="#1B293B"/>
<path d="M211.145 16.5723C211.145 18.8601 209.29 20.7149 207.001 20.7149C204.715 20.7149 202.857 18.8601 202.857 16.5723C202.857 14.2845 204.715 12.4287 207.001 12.4287C209.29 12.4292 211.145 14.284 211.145 16.5723Z" fill="#1B293B"/>
<path d="M198.716 53.8604C198.716 56.1491 196.861 58.0039 194.572 58.0039C192.286 58.0039 190.43 56.1491 190.43 53.8604C190.43 51.5726 192.286 49.7168 194.572 49.7168C196.861 49.7177 198.716 51.5726 198.716 53.8604Z" fill="#1B293B"/>
<path d="M198.716 4.14357C198.716 6.43138 196.861 8.28622 194.572 8.28622C192.286 8.28622 190.43 6.43138 190.43 4.14357C190.43 1.85485 192.287 0 194.573 0C196.861 0 198.716 1.85485 198.716 4.14357Z" fill="#1B293B"/>
<path d="M122.144 29.002C122.144 31.2902 120.289 33.1455 118.001 33.1455C115.712 33.1455 113.857 31.2902 113.857 29.002C113.857 26.7137 115.712 24.8584 118.001 24.8584C120.289 24.8584 122.144 26.7137 122.144 29.002Z" fill="#1B293B"/>
<path d="M109.716 41.4311C109.716 43.7189 107.861 45.5747 105.572 45.5747C103.286 45.5747 101.43 43.7194 101.43 41.4311C101.43 39.1424 103.286 37.2871 105.572 37.2871C107.861 37.2871 109.716 39.1429 109.716 41.4311Z" fill="#1B293B"/>
<path d="M109.716 16.5723C109.716 18.8601 107.861 20.7149 105.572 20.7149C103.286 20.7149 101.43 18.8601 101.43 16.5723C101.43 14.2845 103.286 12.4287 105.572 12.4287C107.861 12.4292 109.716 14.284 109.716 16.5723Z" fill="#1B293B"/>
<path d="M97.2862 53.8604C97.2862 56.1491 95.4314 58.0039 93.1427 58.0039C90.8567 58.0039 89 56.1491 89 53.8604C89 51.5726 90.8567 49.7168 93.1427 49.7168C95.4314 49.7177 97.2862 51.5726 97.2862 53.8604Z" fill="#1B293B"/>
<path d="M97.2862 4.14357C97.2862 6.43138 95.4314 8.28622 93.1427 8.28622C90.8567 8.28622 89 6.43138 89 4.14357C89 1.85577 90.8567 0 93.1427 0C95.4314 0 97.2862 1.85485 97.2862 4.14357Z" fill="#1B293B"/>
<path d="M134.574 29.002C134.574 31.2902 132.719 33.1455 130.431 33.1455C128.142 33.1455 126.287 31.2902 126.287 29.002C126.287 26.7137 128.142 24.8584 130.431 24.8584C132.719 24.8584 134.574 26.7137 134.574 29.002Z" fill="#1B293B"/>
<path d="M122.145 41.4311C122.145 43.7189 120.29 45.5747 118.001 45.5747C115.715 45.5747 113.857 43.7194 113.857 41.4311C113.857 39.1424 115.715 37.2871 118.001 37.2871C120.29 37.2871 122.145 39.1429 122.145 41.4311Z" fill="#1B293B"/>
<path d="M122.145 16.5723C122.145 18.8601 120.29 20.7149 118.001 20.7149C115.715 20.7149 113.857 18.8601 113.857 16.5723C113.857 14.2845 115.715 12.4287 118.001 12.4287C120.29 12.4292 122.145 14.284 122.145 16.5723Z" fill="#1B293B"/>
<path d="M109.716 53.8604C109.716 56.1491 107.861 58.0039 105.572 58.0039C103.286 58.0039 101.43 56.1491 101.43 53.8604C101.43 51.5726 103.286 49.7168 105.572 49.7168C107.861 49.7177 109.716 51.5726 109.716 53.8604Z" fill="#1B293B"/>
<path d="M109.716 4.14357C109.716 6.43138 107.861 8.28622 105.572 8.28622C103.286 8.28622 101.43 6.43138 101.43 4.14357C101.43 1.85485 103.287 0 105.573 0C107.861 0 109.716 1.85485 109.716 4.14357Z" fill="#1B293B"/>
<path d="M33.1441 29.002C33.1441 31.2902 31.2888 33.1455 29.0005 33.1455C26.7123 33.1455 24.8574 31.2902 24.8574 29.002C24.8574 26.7137 26.7123 24.8584 29.0005 24.8584C31.2888 24.8584 33.1441 26.7137 33.1441 29.002Z" fill="#1B293B"/>
<path d="M20.7159 41.4311C20.7159 43.7189 18.8611 45.5747 16.5723 45.5747C14.2864 45.5747 12.4297 43.7194 12.4297 41.4311C12.4297 39.1424 14.2864 37.2871 16.5723 37.2871C18.8606 37.2871 20.7159 39.1429 20.7159 41.4311Z" fill="#1B293B"/>
<path d="M20.7159 16.5723C20.7159 18.8601 18.8611 20.7149 16.5723 20.7149C14.2864 20.7149 12.4297 18.8601 12.4297 16.5723C12.4297 14.2845 14.2864 12.4287 16.5723 12.4287C18.8606 12.4292 20.7159 14.284 20.7159 16.5723Z" fill="#1B293B"/>
<path d="M8.28622 53.8604C8.28622 56.1491 6.43138 58.0039 4.14265 58.0039C1.85669 58.0039 0 56.1491 0 53.8604C0 51.5726 1.85669 49.7168 4.14265 49.7168C6.43138 49.7177 8.28622 51.5726 8.28622 53.8604Z" fill="#1B293B"/>
<path d="M8.28622 4.14357C8.28622 6.43138 6.43138 8.28622 4.14265 8.28622C1.85669 8.28622 0 6.43138 0 4.14357C0 1.85577 1.85669 0 4.14265 0C6.43138 0 8.28622 1.85485 8.28622 4.14357Z" fill="#1B293B"/>
<path d="M45.5738 29.002C45.5738 31.2902 43.7189 33.1455 41.4307 33.1455C39.142 33.1455 37.2871 31.2902 37.2871 29.002C37.2871 26.7137 39.142 24.8584 41.4307 24.8584C43.7189 24.8584 45.5738 26.7137 45.5738 29.002Z" fill="#1B293B"/>
<path d="M33.1446 41.4311C33.1446 43.7189 31.2897 45.5747 29.001 45.5747C26.7155 45.5747 24.8574 43.7194 24.8574 41.4311C24.8574 39.1424 26.7155 37.2871 29.001 37.2871C31.2897 37.2871 33.1446 39.1429 33.1446 41.4311Z" fill="#1B293B"/>
<path d="M33.1446 16.5723C33.1446 18.8601 31.2897 20.7149 29.001 20.7149C26.7155 20.7149 24.8574 18.8601 24.8574 16.5723C24.8574 14.2845 26.7155 12.4287 29.001 12.4287C31.2897 12.4292 33.1446 14.284 33.1446 16.5723Z" fill="#1B293B"/>
<path d="M20.7159 53.8604C20.7159 56.1491 18.8611 58.0039 16.5723 58.0039C14.2864 58.0039 12.4297 56.1491 12.4297 53.8604C12.4297 51.5726 14.2864 49.7168 16.5723 49.7168C18.8606 49.7177 20.7159 51.5726 20.7159 53.8604Z" fill="#1B293B"/>
<path d="M20.7159 4.14357C20.7159 6.43138 18.8611 8.28622 16.5723 8.28622C14.2864 8.28622 12.4297 6.43138 12.4297 4.14357C12.4301 1.85485 14.2868 0 16.5728 0C18.8606 0 20.7159 1.85485 20.7159 4.14357Z" fill="#1B293B"/>
</svg>
