<svg width="25" height="25" viewBox="0 0 25 25" fill="none" xmlns="http://www.w3.org/2000/svg">
<circle cx="12.5" cy="12.5" r="12.5" fill="#1A2739"/>
<path fill-rule="evenodd" clip-rule="evenodd" d="M12.8277 7H12.3623C12.1581 7 11.9902 7.16598 11.9902 7.36773V8.9183C11.9902 9.12006 12.1581 9.28492 12.3623 9.28492H12.8277C13.0318 9.28492 13.1987 9.12007 13.1987 8.9183V7.36773C13.1987 7.16597 13.0319 7 12.8277 7ZM17.5963 10.659C17.5298 10.5207 17.4644 10.3812 17.398 10.2429C17.3116 10.0607 17.0889 9.97998 16.9034 10.0653C16.6352 10.1863 16.368 10.3074 16.0997 10.4296C15.9143 10.5138 15.8337 10.7328 15.92 10.9161C15.9865 11.0544 16.0518 11.1928 16.1183 11.3311C16.2047 11.5144 16.4274 11.5951 16.6129 11.5098C16.8811 11.3888 17.1483 11.2666 17.4166 11.1455C17.602 11.0602 17.6826 10.8412 17.5963 10.659V10.659ZM17.9427 13.6426C17.9614 13.4905 17.9788 13.3382 17.9976 13.1861C18.0209 12.9855 17.8739 12.8011 17.671 12.7768C17.3537 12.7377 17.0364 12.6973 16.7191 12.6581C16.5162 12.6327 16.3307 12.7768 16.3073 12.9785C16.2887 13.1295 16.2712 13.2817 16.2525 13.4339C16.2291 13.6345 16.3762 13.8189 16.5791 13.8431C16.8963 13.8835 17.2137 13.9227 17.5309 13.963C17.7338 13.9873 17.9194 13.8431 17.9427 13.6426V13.6426ZM16.5733 16.3796C16.6737 16.2631 16.7751 16.1467 16.8754 16.0314C17.0084 15.877 16.9909 15.6441 16.8358 15.5115C16.5757 15.2866 16.3167 15.0619 16.0567 14.8382C15.9015 14.7056 15.6659 14.7229 15.5329 14.8763C15.4326 14.9927 15.3322 15.1092 15.2308 15.2256C15.0978 15.379 15.1153 15.613 15.2704 15.7444C15.5305 15.9692 15.7907 16.194 16.0496 16.4188C16.2047 16.5502 16.4404 16.5329 16.5733 16.3797V16.3796ZM13.9092 17.9532C14.0574 17.9117 14.2067 17.869 14.356 17.8275C14.5519 17.7722 14.6674 17.5681 14.6126 17.3733C14.5146 17.0194 14.4167 16.6667 14.3186 16.3139C14.2627 16.119 14.0574 16.0049 13.8602 16.0602C13.7109 16.1029 13.5627 16.1444 13.4134 16.1871C13.2175 16.2424 13.1008 16.4465 13.1568 16.6412C13.2548 16.994 13.3527 17.3468 13.4508 17.7007C13.5068 17.8956 13.712 18.0085 13.9092 17.9532V17.9532ZM10.8087 17.8586C10.958 17.9013 11.1073 17.9428 11.2555 17.9855C11.4526 18.0419 11.659 17.929 11.7162 17.7342C11.8294 17.3595 11.9425 16.9849 12.0557 16.609C12.1128 16.4153 11.9986 16.2113 11.8014 16.1548C11.6533 16.1122 11.504 16.0706 11.3559 16.028C11.1587 15.9727 10.9511 16.0857 10.8939 16.2793C10.782 16.6539 10.6688 17.0298 10.5557 17.4045C10.4986 17.5993 10.6128 17.8033 10.8088 17.8586H10.8087ZM8.21788 16.0925C8.31935 16.2089 8.41967 16.3253 8.52 16.4418C8.65295 16.5963 8.88858 16.6147 9.04489 16.4833C9.36685 16.2158 9.68997 15.9484 10.0131 15.6809C10.1682 15.5495 10.188 15.3177 10.055 15.1633C9.95472 15.0468 9.85325 14.9304 9.75293 14.8139C9.62111 14.6606 9.38434 14.6422 9.22916 14.7724C8.90605 15.0399 8.58296 15.3073 8.26099 15.5759C8.10469 15.7062 8.08606 15.9391 8.21787 16.0925L8.21788 16.0925ZM7.00242 13.1941C7.01992 13.3463 7.03855 13.4985 7.05604 13.6506C7.0794 13.8512 7.26482 13.9976 7.46785 13.9745C7.91113 13.9273 8.35555 13.8789 8.79998 13.8316C9.0029 13.8097 9.14994 13.6263 9.12659 13.4258C9.10909 13.2736 9.0916 13.1214 9.07411 12.9693C9.05075 12.7687 8.86533 12.6234 8.6623 12.6454C8.21788 12.6938 7.77345 12.7411 7.33017 12.7883C7.12603 12.8114 6.97909 12.9936 7.00244 13.1941H7.00242ZM7.55531 10.1206C7.48997 10.2589 7.4235 10.3973 7.35702 10.5356C7.27069 10.7189 7.35002 10.9391 7.53432 11.0256C7.96124 11.2261 8.38705 11.4279 8.81274 11.6285C8.99704 11.715 9.21982 11.6366 9.30728 11.4533C9.37376 11.315 9.4391 11.1766 9.50557 11.0383C9.59304 10.8561 9.51257 10.636 9.32828 10.5495C8.9025 10.3478 8.47678 10.1472 8.04985 9.94543C7.86555 9.85898 7.64277 9.93851 7.55531 10.1207V10.1206ZM9.7366 7.79863C9.60479 7.87816 9.47298 7.95769 9.34117 8.03731C9.16623 8.14338 9.1114 8.37048 9.21749 8.54345C9.47649 8.96306 9.73538 9.38275 9.99315 9.80234C10.1005 9.97524 10.3303 10.0294 10.504 9.92458C10.637 9.84505 10.7688 9.76431 10.9006 9.68479C11.0756 9.57984 11.1304 9.35162 11.0243 9.17986C10.7653 8.75906 10.5064 8.33945 10.2474 7.91983C10.1412 7.74694 9.91145 7.69275 9.73652 7.79881L9.7366 7.79863Z" fill="white"/>
</svg>
