<svg width="230" height="59" viewBox="0 0 230 59" fill="none" xmlns="http://www.w3.org/2000/svg">
<path d="M12.4301 29.002C12.4301 31.2902 14.2854 33.1455 16.5737 33.1455C18.8619 33.1455 20.7168 31.2902 20.7168 29.002C20.7168 26.7137 18.8619 24.8584 16.5737 24.8584C14.2854 24.8584 12.4301 26.7137 12.4301 29.002Z" fill="#1B293B"/>
<path d="M24.8583 41.4311C24.8583 43.7189 26.7132 45.5747 29.0019 45.5747C31.2878 45.5747 33.1445 43.7194 33.1445 41.4311C33.1445 39.1424 31.2878 37.2871 29.0019 37.2871C26.7136 37.2871 24.8583 39.1429 24.8583 41.4311Z" fill="#1B293B"/>
<path d="M24.8583 16.5723C24.8583 18.8601 26.7132 20.7149 29.0019 20.7149C31.2878 20.7149 33.1445 18.8601 33.1445 16.5723C33.1445 14.2845 31.2878 12.4287 29.0019 12.4287C26.7136 12.4292 24.8583 14.284 24.8583 16.5723Z" fill="#1B293B"/>
<path d="M37.288 53.8604C37.288 56.1491 39.1428 58.0039 41.4316 58.0039C43.7175 58.0039 45.5742 56.1491 45.5742 53.8604C45.5742 51.5726 43.7175 49.7168 41.4316 49.7168C39.1428 49.7177 37.288 51.5726 37.288 53.8604Z" fill="#1B293B"/>
<path d="M37.288 4.14357C37.288 6.43138 39.1428 8.28622 41.4316 8.28622C43.7175 8.28622 45.5742 6.43138 45.5742 4.14357C45.5742 1.85577 43.7175 0 41.4316 0C39.1428 0 37.288 1.85485 37.288 4.14357Z" fill="#1B293B"/>
<path d="M0.000425339 29.002C0.000425339 31.2902 1.85527 33.1455 4.14354 33.1455C6.43226 33.1455 8.28711 31.2902 8.28711 29.002C8.28711 26.7137 6.43226 24.8584 4.14354 24.8584C1.85527 24.8584 0.000425339 26.7137 0.000425339 29.002Z" fill="#1B293B"/>
<path d="M12.4297 41.4311C12.4297 43.7189 14.2845 45.5747 16.5732 45.5747C18.8587 45.5747 20.7168 43.7194 20.7168 41.4311C20.7168 39.1424 18.8587 37.2871 16.5732 37.2871C14.2845 37.2871 12.4297 39.1429 12.4297 41.4311Z" fill="#1B293B"/>
<path d="M12.4297 16.5723C12.4297 18.8601 14.2845 20.7149 16.5732 20.7149C18.8587 20.7149 20.7168 18.8601 20.7168 16.5723C20.7168 14.2845 18.8587 12.4287 16.5732 12.4287C14.2845 12.4292 12.4297 14.284 12.4297 16.5723Z" fill="#1B293B"/>
<path d="M24.8583 53.8604C24.8583 56.1491 26.7132 58.0039 29.0019 58.0039C31.2878 58.0039 33.1445 56.1491 33.1445 53.8604C33.1445 51.5726 31.2878 49.7168 29.0019 49.7168C26.7136 49.7177 24.8583 51.5726 24.8583 53.8604Z" fill="#1B293B"/>
<path d="M24.8583 4.14357C24.8583 6.43138 26.7132 8.28622 29.0019 8.28622C31.2878 8.28622 33.1445 6.43138 33.1445 4.14357C33.1441 1.85485 31.2874 0 29.0014 0C26.7136 0 24.8583 1.85485 24.8583 4.14357Z" fill="#1B293B"/>
<path d="M104.43 29.002C104.43 31.2902 106.285 33.1455 108.574 33.1455C110.862 33.1455 112.717 31.2902 112.717 29.002C112.717 26.7137 110.862 24.8584 108.574 24.8584C106.285 24.8584 104.43 26.7137 104.43 29.002Z" fill="#1B293B"/>
<path d="M116.858 41.4311C116.858 43.7189 118.713 45.5747 121.002 45.5747C123.288 45.5747 125.145 43.7194 125.145 41.4311C125.145 39.1424 123.288 37.2871 121.002 37.2871C118.714 37.2871 116.858 39.1429 116.858 41.4311Z" fill="#1B293B"/>
<path d="M116.858 16.5723C116.858 18.8601 118.713 20.7149 121.002 20.7149C123.288 20.7149 125.145 18.8601 125.145 16.5723C125.145 14.2845 123.288 12.4287 121.002 12.4287C118.714 12.4292 116.858 14.284 116.858 16.5723Z" fill="#1B293B"/>
<path d="M129.288 53.8604C129.288 56.1491 131.143 58.0039 133.432 58.0039C135.718 58.0039 137.574 56.1491 137.574 53.8604C137.574 51.5726 135.718 49.7168 133.432 49.7168C131.143 49.7177 129.288 51.5726 129.288 53.8604Z" fill="#1B293B"/>
<path d="M129.288 4.14357C129.288 6.43138 131.143 8.28622 133.432 8.28622C135.718 8.28622 137.574 6.43138 137.574 4.14357C137.574 1.85577 135.718 0 133.432 0C131.143 0 129.288 1.85485 129.288 4.14357Z" fill="#1B293B"/>
<path d="M92.0004 29.002C92.0004 31.2902 93.8553 33.1455 96.1435 33.1455C98.4323 33.1455 100.287 31.2902 100.287 29.002C100.287 26.7137 98.4323 24.8584 96.1435 24.8584C93.8553 24.8584 92.0004 26.7137 92.0004 29.002Z" fill="#1B293B"/>
<path d="M104.43 41.4311C104.43 43.7189 106.285 45.5747 108.573 45.5747C110.859 45.5747 112.717 43.7194 112.717 41.4311C112.717 39.1424 110.859 37.2871 108.573 37.2871C106.285 37.2871 104.43 39.1429 104.43 41.4311Z" fill="#1B293B"/>
<path d="M104.43 16.5723C104.43 18.8601 106.285 20.7149 108.573 20.7149C110.859 20.7149 112.717 18.8601 112.717 16.5723C112.717 14.2845 110.859 12.4287 108.573 12.4287C106.285 12.4292 104.43 14.284 104.43 16.5723Z" fill="#1B293B"/>
<path d="M116.858 53.8604C116.858 56.1491 118.713 58.0039 121.002 58.0039C123.288 58.0039 125.145 56.1491 125.145 53.8604C125.145 51.5726 123.288 49.7168 121.002 49.7168C118.714 49.7177 116.858 51.5726 116.858 53.8604Z" fill="#1B293B"/>
<path d="M116.858 4.14357C116.858 6.43138 118.713 8.28622 121.002 8.28622C123.288 8.28622 125.145 6.43138 125.145 4.14357C125.144 1.85485 123.287 0 121.001 0C118.714 0 116.858 1.85485 116.858 4.14357Z" fill="#1B293B"/>
<path d="M196.43 29.002C196.43 31.2902 198.285 33.1455 200.574 33.1455C202.862 33.1455 204.717 31.2902 204.717 29.002C204.717 26.7137 202.862 24.8584 200.574 24.8584C198.285 24.8584 196.43 26.7137 196.43 29.002Z" fill="#1B293B"/>
<path d="M208.858 41.4311C208.858 43.7189 210.713 45.5747 213.002 45.5747C215.288 45.5747 217.145 43.7194 217.145 41.4311C217.145 39.1424 215.288 37.2871 213.002 37.2871C210.714 37.2871 208.858 39.1429 208.858 41.4311Z" fill="#1B293B"/>
<path d="M208.858 16.5723C208.858 18.8601 210.713 20.7149 213.002 20.7149C215.288 20.7149 217.145 18.8601 217.145 16.5723C217.145 14.2845 215.288 12.4287 213.002 12.4287C210.714 12.4292 208.858 14.284 208.858 16.5723Z" fill="#1B293B"/>
<path d="M221.288 53.8604C221.288 56.1491 223.143 58.0039 225.432 58.0039C227.718 58.0039 229.574 56.1491 229.574 53.8604C229.574 51.5726 227.718 49.7168 225.432 49.7168C223.143 49.7177 221.288 51.5726 221.288 53.8604Z" fill="#1B293B"/>
<path d="M221.288 4.14357C221.288 6.43138 223.143 8.28622 225.432 8.28622C227.718 8.28622 229.574 6.43138 229.574 4.14357C229.574 1.85577 227.718 0 225.432 0C223.143 0 221.288 1.85485 221.288 4.14357Z" fill="#1B293B"/>
<path d="M184 29.002C184 31.2902 185.855 33.1455 188.144 33.1455C190.432 33.1455 192.287 31.2902 192.287 29.002C192.287 26.7137 190.432 24.8584 188.144 24.8584C185.855 24.8584 184 26.7137 184 29.002Z" fill="#1B293B"/>
<path d="M196.43 41.4311C196.43 43.7189 198.285 45.5747 200.573 45.5747C202.859 45.5747 204.717 43.7194 204.717 41.4311C204.717 39.1424 202.859 37.2871 200.573 37.2871C198.285 37.2871 196.43 39.1429 196.43 41.4311Z" fill="#1B293B"/>
<path d="M196.43 16.5723C196.43 18.8601 198.285 20.7149 200.573 20.7149C202.859 20.7149 204.717 18.8601 204.717 16.5723C204.717 14.2845 202.859 12.4287 200.573 12.4287C198.285 12.4292 196.43 14.284 196.43 16.5723Z" fill="#1B293B"/>
<path d="M208.858 53.8604C208.858 56.1491 210.713 58.0039 213.002 58.0039C215.288 58.0039 217.145 56.1491 217.145 53.8604C217.145 51.5726 215.288 49.7168 213.002 49.7168C210.714 49.7177 208.858 51.5726 208.858 53.8604Z" fill="#1B293B"/>
<path d="M208.858 4.14357C208.858 6.43138 210.713 8.28622 213.002 8.28622C215.288 8.28622 217.145 6.43138 217.145 4.14357C217.144 1.85485 215.287 0 213.001 0C210.714 0 208.858 1.85485 208.858 4.14357Z" fill="#1B293B"/>
</svg>
