<svg width="824" height="107" viewBox="0 0 824 107" fill="none" xmlns="http://www.w3.org/2000/svg">
<path d="M390.534 61C388.467 61 386.628 60.6181 385.016 59.8542C383.435 59.0903 382.204 58.0361 381.322 56.6917C380.441 55.3167 380 53.7431 380 51.9708C380 50.5653 380.289 49.3431 380.866 48.3042C381.474 47.2347 382.265 46.2875 383.238 45.4625C384.211 44.6375 385.275 43.8889 386.43 43.2167C385.001 41.6889 383.983 40.3444 383.375 39.1833C382.797 38.0222 382.508 36.8153 382.508 35.5625C382.508 34.1875 382.858 32.9347 383.557 31.8042C384.256 30.6736 385.244 29.7569 386.521 29.0542C387.798 28.3514 389.303 28 391.036 28C392.738 28 394.213 28.3361 395.459 29.0083C396.706 29.6806 397.679 30.5819 398.378 31.7125C399.077 32.8431 399.427 34.1111 399.427 35.5167C399.427 36.8611 399.107 38.0375 398.469 39.0458C397.831 40.0542 396.979 40.9556 395.915 41.75C394.882 42.5444 393.742 43.2931 392.495 43.9958L400.248 51.65C400.734 50.7944 401.19 49.8014 401.616 48.6708C402.072 47.5403 402.436 46.2111 402.71 44.6833C402.771 44.0722 403.09 43.7667 403.668 43.7667H405.674C405.978 43.7667 406.206 43.8583 406.358 44.0417C406.541 44.225 406.632 44.4542 406.632 44.7292C406.602 45.4014 406.495 46.1194 406.313 46.8833C406.161 47.6472 405.917 48.4569 405.583 49.3125C405.279 50.1681 404.899 51.0236 404.443 51.8792C404.017 52.7042 403.516 53.5139 402.938 54.3083L407.59 58.9833C407.863 59.2278 408 59.4569 408 59.6708C408 59.9458 407.924 60.1597 407.772 60.3125C407.62 60.4653 407.392 60.5417 407.088 60.5417H404.534C404.23 60.5417 403.972 60.4958 403.759 60.4042C403.577 60.3125 403.425 60.2056 403.303 60.0833L400.293 57.1042C399.107 58.2653 397.709 59.2125 396.098 59.9458C394.486 60.6486 392.632 61 390.534 61ZM390.534 57.3333C391.75 57.3333 392.966 57.0889 394.182 56.6C395.398 56.0806 396.523 55.3014 397.557 54.2625L389.029 45.9208C387.722 46.6542 386.582 47.4944 385.609 48.4417C384.667 49.3583 384.195 50.5042 384.195 51.8792C384.195 53.0403 384.484 54.0333 385.062 54.8583C385.67 55.6528 386.46 56.2639 387.433 56.6917C388.406 57.1194 389.44 57.3333 390.534 57.3333ZM389.987 41.3375C390.96 40.7875 391.857 40.2375 392.678 39.6875C393.529 39.1375 394.198 38.5264 394.684 37.8542C395.201 37.1819 395.459 36.4181 395.459 35.5625C395.459 34.3403 395.034 33.3625 394.182 32.6292C393.331 31.8958 392.282 31.5292 391.036 31.5292C389.85 31.5292 388.817 31.8958 387.935 32.6292C387.053 33.3319 386.612 34.325 386.612 35.6083C386.612 36.1278 386.704 36.6625 386.886 37.2125C387.068 37.7319 387.403 38.3125 387.889 38.9542C388.406 39.5958 389.105 40.3903 389.987 41.3375Z" fill="white" style="mix-blend-mode:soft-light"/>
<path d="M4.95 43C4.65 43 4.395 42.91 4.185 42.73C4.005 42.52 3.915 42.265 3.915 41.965V12.58C3.915 12.25 4.005 11.995 4.185 11.815C4.395 11.605 4.65 11.5 4.95 11.5H7.2C7.56 11.5 7.83 11.59 8.01 11.77C8.19 11.95 8.31 12.1 8.37 12.22L17.865 30.4L27.45 12.22C27.51 12.1 27.615 11.95 27.765 11.77C27.945 11.59 28.215 11.5 28.575 11.5H30.78C31.11 11.5 31.365 11.605 31.545 11.815C31.755 11.995 31.86 12.25 31.86 12.58V41.965C31.86 42.265 31.755 42.52 31.545 42.73C31.365 42.91 31.11 43 30.78 43H28.575C28.275 43 28.02 42.91 27.81 42.73C27.63 42.52 27.54 42.265 27.54 41.965V19.825L20.025 34.495C19.905 34.795 19.725 35.035 19.485 35.215C19.245 35.365 18.945 35.44 18.585 35.44H17.19C16.8 35.44 16.5 35.365 16.29 35.215C16.08 35.035 15.9 34.795 15.75 34.495L8.19 19.825V41.965C8.19 42.265 8.085 42.52 7.875 42.73C7.695 42.91 7.455 43 7.155 43H4.95ZM41.5775 43C41.3375 43 41.1275 42.91 40.9475 42.73C40.7675 42.55 40.6775 42.34 40.6775 42.1C40.6775 41.95 40.6925 41.785 40.7225 41.605L51.8825 12.49C52.0025 12.19 52.1675 11.95 52.3775 11.77C52.5875 11.59 52.9025 11.5 53.3225 11.5H56.3825C56.8025 11.5 57.1175 11.59 57.3275 11.77C57.5375 11.95 57.7025 12.19 57.8225 12.49L68.9375 41.605C68.9975 41.785 69.0275 41.95 69.0275 42.1C69.0275 42.34 68.9375 42.55 68.7575 42.73C68.5775 42.91 68.3675 43 68.1275 43H65.8325C65.4725 43 65.2025 42.91 65.0225 42.73C64.8725 42.55 64.7675 42.385 64.7075 42.235L62.2325 35.845H47.4725L44.9975 42.235C44.9675 42.385 44.8625 42.55 44.6825 42.73C44.5025 42.91 44.2325 43 43.8725 43H41.5775ZM48.7775 31.975H60.9275L54.8525 16L48.7775 31.975ZM76.854 43C76.524 43 76.269 42.895 76.089 42.685C75.909 42.475 75.819 42.22 75.819 41.92V39.985C75.819 39.535 75.909 39.175 76.089 38.905C76.269 38.635 76.404 38.44 76.494 38.32L93.234 15.415H77.259C76.959 15.415 76.704 15.325 76.494 15.145C76.314 14.935 76.224 14.68 76.224 14.38V12.58C76.224 12.25 76.314 11.995 76.494 11.815C76.704 11.605 76.959 11.5 77.259 11.5H97.644C97.974 11.5 98.229 11.605 98.409 11.815C98.619 11.995 98.724 12.25 98.724 12.58V14.515C98.724 14.875 98.664 15.175 98.544 15.415C98.424 15.655 98.289 15.88 98.139 16.09L81.534 39.085H98.094C98.424 39.085 98.679 39.19 98.859 39.4C99.069 39.58 99.174 39.835 99.174 40.165V41.965C99.174 42.265 99.069 42.52 98.859 42.73C98.679 42.91 98.424 43 98.094 43H76.854ZM109.956 43C109.626 43 109.371 42.91 109.191 42.73C109.011 42.52 108.921 42.265 108.921 41.965V12.535C108.921 12.235 109.011 11.995 109.191 11.815C109.371 11.605 109.626 11.5 109.956 11.5H112.341C112.671 11.5 112.926 11.605 113.106 11.815C113.286 11.995 113.376 12.235 113.376 12.535V41.965C113.376 42.265 113.286 42.52 113.106 42.73C112.926 42.91 112.671 43 112.341 43H109.956Z" fill="url(#paint0_linear_198_24)"/>
<path d="M110.835 96C110.535 96 110.28 95.91 110.07 95.73C109.89 95.52 109.8 95.265 109.8 94.965V68.505H101.16C100.86 68.505 100.605 68.415 100.395 68.235C100.215 68.025 100.125 67.77 100.125 67.47V65.58C100.125 65.25 100.215 64.995 100.395 64.815C100.605 64.605 100.86 64.5 101.16 64.5H122.85C123.18 64.5 123.435 64.605 123.615 64.815C123.825 64.995 123.93 65.25 123.93 65.58V67.47C123.93 67.77 123.825 68.025 123.615 68.235C123.435 68.415 123.18 68.505 122.85 68.505H114.255V94.965C114.255 95.265 114.15 95.52 113.94 95.73C113.76 95.91 113.505 96 113.175 96H110.835ZM143.705 96.45C141.125 96.45 138.92 96.015 137.09 95.145C135.26 94.245 133.85 92.88 132.86 91.05C131.87 89.19 131.315 86.865 131.195 84.075C131.165 82.755 131.15 81.495 131.15 80.295C131.15 79.065 131.165 77.79 131.195 76.47C131.315 73.71 131.885 71.415 132.905 69.585C133.955 67.725 135.395 66.345 137.225 65.445C139.085 64.515 141.245 64.05 143.705 64.05C146.135 64.05 148.265 64.515 150.095 65.445C151.955 66.345 153.41 67.725 154.46 69.585C155.51 71.415 156.08 73.71 156.17 76.47C156.23 77.79 156.26 79.065 156.26 80.295C156.26 81.495 156.23 82.755 156.17 84.075C156.08 86.865 155.525 89.19 154.505 91.05C153.515 92.88 152.105 94.245 150.275 95.145C148.445 96.015 146.255 96.45 143.705 96.45ZM143.705 92.625C145.985 92.625 147.845 91.935 149.285 90.555C150.755 89.175 151.55 86.94 151.67 83.85C151.73 82.5 151.76 81.3 151.76 80.25C151.76 79.17 151.73 77.97 151.67 76.65C151.61 74.58 151.22 72.9 150.5 71.61C149.81 70.32 148.88 69.375 147.71 68.775C146.54 68.175 145.205 67.875 143.705 67.875C142.205 67.875 140.87 68.175 139.7 68.775C138.53 69.375 137.585 70.32 136.865 71.61C136.175 72.9 135.785 74.58 135.695 76.65C135.665 77.97 135.65 79.17 135.65 80.25C135.65 81.3 135.665 82.5 135.695 83.85C135.815 86.94 136.61 89.175 138.08 90.555C139.55 91.935 141.425 92.625 143.705 92.625ZM178.344 96.45C175.674 96.45 173.409 95.955 171.549 94.965C169.719 93.975 168.309 92.58 167.319 90.78C166.359 88.98 165.819 86.865 165.699 84.435C165.669 83.115 165.654 81.72 165.654 80.25C165.654 78.75 165.669 77.325 165.699 75.975C165.819 73.545 166.359 71.445 167.319 69.675C168.309 67.875 169.734 66.495 171.594 65.535C173.454 64.545 175.704 64.05 178.344 64.05C180.444 64.05 182.274 64.35 183.834 64.95C185.394 65.55 186.669 66.315 187.659 67.245C188.679 68.145 189.429 69.09 189.909 70.08C190.419 71.07 190.689 71.94 190.719 72.69C190.749 72.96 190.674 73.185 190.494 73.365C190.314 73.515 190.074 73.59 189.774 73.59H187.119C186.819 73.59 186.594 73.53 186.444 73.41C186.324 73.29 186.204 73.08 186.084 72.78C185.814 72 185.364 71.235 184.734 70.485C184.134 69.735 183.309 69.12 182.259 68.64C181.239 68.13 179.934 67.875 178.344 67.875C175.944 67.875 174.009 68.52 172.539 69.81C171.099 71.1 170.319 73.23 170.199 76.2C170.109 78.87 170.109 81.54 170.199 84.21C170.319 87.21 171.114 89.37 172.584 90.69C174.054 91.98 175.974 92.625 178.344 92.625C179.934 92.625 181.344 92.325 182.574 91.725C183.834 91.125 184.824 90.225 185.544 89.025C186.264 87.795 186.624 86.235 186.624 84.345V82.455H179.874C179.574 82.455 179.319 82.365 179.109 82.185C178.929 81.975 178.839 81.705 178.839 81.375V79.935C178.839 79.605 178.929 79.35 179.109 79.17C179.319 78.96 179.574 78.855 179.874 78.855H190.044C190.374 78.855 190.629 78.96 190.809 79.17C190.989 79.35 191.079 79.605 191.079 79.935V84.255C191.079 86.715 190.569 88.86 189.549 90.69C188.559 92.52 187.104 93.945 185.184 94.965C183.264 95.955 180.984 96.45 178.344 96.45ZM202.584 96C202.254 96 201.999 95.91 201.819 95.73C201.639 95.52 201.549 95.265 201.549 94.965V65.58C201.549 65.25 201.639 64.995 201.819 64.815C201.999 64.605 202.254 64.5 202.584 64.5H221.169C221.499 64.5 221.754 64.605 221.934 64.815C222.114 64.995 222.204 65.25 222.204 65.58V67.29C222.204 67.62 222.114 67.875 221.934 68.055C221.754 68.235 221.499 68.325 221.169 68.325H205.869V78.18H220.179C220.509 78.18 220.764 78.285 220.944 78.495C221.124 78.675 221.214 78.93 221.214 79.26V80.925C221.214 81.225 221.124 81.48 220.944 81.69C220.764 81.87 220.509 81.96 220.179 81.96H205.869V92.175H221.529C221.859 92.175 222.114 92.265 222.294 92.445C222.474 92.625 222.564 92.88 222.564 93.21V94.965C222.564 95.265 222.474 95.52 222.294 95.73C222.114 95.91 221.859 96 221.529 96H202.584ZM240.809 96C240.509 96 240.254 95.91 240.044 95.73C239.864 95.52 239.774 95.265 239.774 94.965V68.505H231.134C230.834 68.505 230.579 68.415 230.369 68.235C230.189 68.025 230.099 67.77 230.099 67.47V65.58C230.099 65.25 230.189 64.995 230.369 64.815C230.579 64.605 230.834 64.5 231.134 64.5H252.824C253.154 64.5 253.409 64.605 253.589 64.815C253.799 64.995 253.904 65.25 253.904 65.58V67.47C253.904 67.77 253.799 68.025 253.589 68.235C253.409 68.415 253.154 68.505 252.824 68.505H244.229V94.965C244.229 95.265 244.124 95.52 243.914 95.73C243.734 95.91 243.479 96 243.149 96H240.809ZM264.034 96C263.704 96 263.449 95.91 263.269 95.73C263.089 95.52 262.999 95.265 262.999 94.965V65.58C262.999 65.25 263.089 64.995 263.269 64.815C263.449 64.605 263.704 64.5 264.034 64.5H266.329C266.659 64.5 266.914 64.605 267.094 64.815C267.304 64.995 267.409 65.25 267.409 65.58V78H282.889V65.58C282.889 65.25 282.979 64.995 283.159 64.815C283.369 64.605 283.624 64.5 283.924 64.5H286.219C286.549 64.5 286.804 64.605 286.984 64.815C287.194 64.995 287.299 65.25 287.299 65.58V94.965C287.299 95.265 287.194 95.52 286.984 95.73C286.804 95.91 286.549 96 286.219 96H283.924C283.624 96 283.369 95.91 283.159 95.73C282.979 95.52 282.889 95.265 282.889 94.965V82.05H267.409V94.965C267.409 95.265 267.304 95.52 267.094 95.73C266.914 95.91 266.659 96 266.329 96H264.034ZM300.208 96C299.878 96 299.623 95.91 299.443 95.73C299.263 95.52 299.173 95.265 299.173 94.965V65.58C299.173 65.25 299.263 64.995 299.443 64.815C299.623 64.605 299.878 64.5 300.208 64.5H318.793C319.123 64.5 319.378 64.605 319.558 64.815C319.738 64.995 319.828 65.25 319.828 65.58V67.29C319.828 67.62 319.738 67.875 319.558 68.055C319.378 68.235 319.123 68.325 318.793 68.325H303.493V78.18H317.803C318.133 78.18 318.388 78.285 318.568 78.495C318.748 78.675 318.838 78.93 318.838 79.26V80.925C318.838 81.225 318.748 81.48 318.568 81.69C318.388 81.87 318.133 81.96 317.803 81.96H303.493V92.175H319.153C319.483 92.175 319.738 92.265 319.918 92.445C320.098 92.625 320.188 92.88 320.188 93.21V94.965C320.188 95.265 320.098 95.52 319.918 95.73C319.738 95.91 319.483 96 319.153 96H300.208ZM331.548 96C331.218 96 330.963 95.91 330.783 95.73C330.603 95.52 330.513 95.265 330.513 94.965V65.58C330.513 65.25 330.603 64.995 330.783 64.815C330.963 64.605 331.218 64.5 331.548 64.5H342.528C345.918 64.5 348.603 65.295 350.583 66.885C352.563 68.475 353.553 70.83 353.553 73.95C353.553 76.26 352.968 78.15 351.798 79.62C350.658 81.06 349.098 82.065 347.118 82.635L354.048 94.605C354.138 94.785 354.183 94.95 354.183 95.1C354.183 95.34 354.078 95.55 353.868 95.73C353.688 95.91 353.478 96 353.238 96H351.078C350.568 96 350.193 95.865 349.953 95.595C349.713 95.325 349.503 95.055 349.323 94.785L342.798 83.355H334.923V94.965C334.923 95.265 334.818 95.52 334.608 95.73C334.428 95.91 334.173 96 333.843 96H331.548ZM334.923 79.53H342.348C344.598 79.53 346.278 79.065 347.388 78.135C348.498 77.175 349.053 75.765 349.053 73.905C349.053 72.075 348.498 70.68 347.388 69.72C346.308 68.76 344.628 68.28 342.348 68.28H334.923V79.53Z" fill="white"/>
<path d="M135.984 39.816C134.944 39.816 134.064 39.592 133.344 39.144C132.624 38.712 132.048 38.04 131.616 37.128C131.184 36.216 130.864 35.056 130.656 33.648C130.464 32.224 130.368 30.536 130.368 28.584C130.368 26.632 130.464 24.944 130.656 23.52C130.864 22.096 131.184 20.936 131.616 20.04C132.048 19.128 132.624 18.456 133.344 18.024C134.064 17.592 134.944 17.376 135.984 17.376C136.144 17.376 136.272 17.432 136.368 17.544C136.48 17.656 136.536 17.784 136.536 17.928V18.768C136.536 18.912 136.48 19.04 136.368 19.152C136.272 19.264 136.168 19.32 136.056 19.32C135.384 19.336 134.816 19.512 134.352 19.848C133.904 20.168 133.536 20.688 133.248 21.408C132.976 22.128 132.776 23.08 132.648 24.264C132.536 25.432 132.48 26.872 132.48 28.584C132.48 30.296 132.536 31.744 132.648 32.928C132.776 34.096 132.976 35.04 133.248 35.76C133.536 36.48 133.904 37.008 134.352 37.344C134.816 37.68 135.384 37.856 136.056 37.872C136.168 37.872 136.272 37.92 136.368 38.016C136.48 38.128 136.536 38.264 136.536 38.424V39.264C136.536 39.408 136.48 39.536 136.368 39.648C136.272 39.76 136.144 39.816 135.984 39.816ZM141.213 36C141.005 36 140.845 35.952 140.733 35.856C140.621 35.744 140.525 35.592 140.445 35.4L137.037 24.264C137.005 24.184 136.989 24.104 136.989 24.024C136.989 23.88 137.037 23.76 137.133 23.664C137.245 23.568 137.365 23.52 137.493 23.52H138.549C138.725 23.52 138.861 23.568 138.957 23.664C139.053 23.76 139.117 23.848 139.149 23.928L141.813 32.976L144.669 24.024C144.701 23.912 144.765 23.8 144.861 23.688C144.973 23.576 145.133 23.52 145.341 23.52H146.157C146.365 23.52 146.525 23.576 146.637 23.688C146.749 23.8 146.813 23.912 146.829 24.024L149.685 32.976L152.349 23.928C152.365 23.848 152.421 23.76 152.517 23.664C152.613 23.568 152.749 23.52 152.925 23.52H154.005C154.133 23.52 154.245 23.568 154.341 23.664C154.437 23.76 154.485 23.88 154.485 24.024C154.485 24.104 154.469 24.184 154.437 24.264L151.053 35.4C150.989 35.592 150.901 35.744 150.789 35.856C150.677 35.952 150.501 36 150.261 36H149.325C149.117 36 148.941 35.952 148.797 35.856C148.669 35.744 148.581 35.592 148.533 35.4L145.749 26.808L142.965 35.4C142.901 35.592 142.805 35.744 142.677 35.856C142.549 35.952 142.373 36 142.149 36H141.213ZM157.695 36C157.535 36 157.399 35.952 157.287 35.856C157.191 35.744 157.143 35.608 157.143 35.448V24.072C157.143 23.912 157.191 23.784 157.287 23.688C157.399 23.576 157.535 23.52 157.695 23.52H158.847C159.007 23.52 159.135 23.576 159.231 23.688C159.343 23.784 159.399 23.912 159.399 24.072V35.448C159.399 35.608 159.343 35.744 159.231 35.856C159.135 35.952 159.007 36 158.847 36H157.695ZM157.503 21.192C157.343 21.192 157.207 21.144 157.095 21.048C156.999 20.936 156.951 20.8 156.951 20.64V19.344C156.951 19.184 156.999 19.048 157.095 18.936C157.207 18.824 157.343 18.768 157.503 18.768H159.015C159.175 18.768 159.311 18.824 159.423 18.936C159.535 19.048 159.591 19.184 159.591 19.344V20.64C159.591 20.8 159.535 20.936 159.423 21.048C159.311 21.144 159.175 21.192 159.015 21.192H157.503ZM167.828 36C166.932 36 166.204 35.832 165.644 35.496C165.084 35.144 164.676 34.656 164.42 34.032C164.164 33.392 164.036 32.64 164.036 31.776V25.44H162.164C162.004 25.44 161.868 25.392 161.756 25.296C161.66 25.184 161.612 25.048 161.612 24.888V24.072C161.612 23.912 161.66 23.784 161.756 23.688C161.868 23.576 162.004 23.52 162.164 23.52H164.036V19.512C164.036 19.352 164.084 19.224 164.18 19.128C164.292 19.016 164.428 18.96 164.588 18.96H165.716C165.876 18.96 166.004 19.016 166.1 19.128C166.212 19.224 166.268 19.352 166.268 19.512V23.52H169.244C169.42 23.52 169.556 23.576 169.652 23.688C169.748 23.784 169.796 23.912 169.796 24.072V24.888C169.796 25.048 169.748 25.184 169.652 25.296C169.556 25.392 169.42 25.44 169.244 25.44H166.268V31.608C166.268 32.36 166.396 32.952 166.652 33.384C166.908 33.816 167.364 34.032 168.02 34.032H169.484C169.644 34.032 169.772 34.088 169.868 34.2C169.98 34.296 170.036 34.424 170.036 34.584V35.448C170.036 35.608 169.98 35.744 169.868 35.856C169.772 35.952 169.644 36 169.484 36H167.828ZM172.907 36C172.747 36 172.611 35.952 172.499 35.856C172.403 35.744 172.355 35.608 172.355 35.448V19.512C172.355 19.352 172.403 19.224 172.499 19.128C172.611 19.016 172.747 18.96 172.907 18.96H174.107C174.283 18.96 174.419 19.016 174.515 19.128C174.611 19.224 174.659 19.352 174.659 19.512V25.104C175.091 24.56 175.619 24.12 176.243 23.784C176.867 23.448 177.659 23.28 178.619 23.28C179.659 23.28 180.539 23.512 181.259 23.976C181.995 24.424 182.547 25.056 182.915 25.872C183.299 26.672 183.491 27.608 183.491 28.68V35.448C183.491 35.608 183.443 35.744 183.347 35.856C183.251 35.952 183.115 36 182.939 36H181.739C181.579 36 181.443 35.952 181.331 35.856C181.235 35.744 181.187 35.608 181.187 35.448V28.8C181.187 27.68 180.915 26.808 180.371 26.184C179.827 25.544 179.027 25.224 177.971 25.224C176.979 25.224 176.179 25.544 175.571 26.184C174.963 26.808 174.659 27.68 174.659 28.8V35.448C174.659 35.608 174.611 35.744 174.515 35.856C174.419 35.952 174.283 36 174.107 36H172.907ZM197.951 41.28C196.863 41.28 195.967 41.136 195.263 40.848C194.575 40.56 194.031 40.208 193.631 39.792C193.247 39.392 192.967 38.984 192.791 38.568C192.631 38.168 192.543 37.848 192.527 37.608C192.511 37.448 192.559 37.312 192.671 37.2C192.799 37.088 192.935 37.032 193.079 37.032H194.23C194.375 37.032 194.495 37.064 194.59 37.128C194.687 37.192 194.767 37.328 194.831 37.536C194.927 37.776 195.071 38.04 195.263 38.328C195.455 38.632 195.751 38.888 196.151 39.096C196.551 39.32 197.111 39.432 197.831 39.432C198.583 39.432 199.215 39.328 199.727 39.12C200.239 38.912 200.623 38.56 200.879 38.064C201.151 37.568 201.287 36.88 201.287 36V34.368C200.903 34.864 200.399 35.28 199.775 35.616C199.151 35.936 198.367 36.096 197.423 36.096C196.527 36.096 195.759 35.944 195.119 35.64C194.479 35.32 193.951 34.896 193.535 34.368C193.135 33.824 192.831 33.208 192.623 32.52C192.431 31.832 192.319 31.112 192.287 30.36C192.271 29.912 192.271 29.472 192.287 29.04C192.319 28.288 192.431 27.568 192.623 26.88C192.831 26.192 193.135 25.576 193.535 25.032C193.951 24.488 194.479 24.064 195.119 23.76C195.759 23.44 196.527 23.28 197.423 23.28C198.383 23.28 199.175 23.456 199.799 23.808C200.439 24.16 200.959 24.6 201.359 25.128V24.096C201.359 23.936 201.407 23.8 201.503 23.688C201.615 23.576 201.751 23.52 201.911 23.52H203.015C203.175 23.52 203.311 23.576 203.423 23.688C203.535 23.8 203.591 23.936 203.591 24.096V35.736C203.591 36.808 203.407 37.76 203.039 38.592C202.687 39.424 202.095 40.08 201.263 40.56C200.447 41.04 199.343 41.28 197.951 41.28ZM197.903 34.176C198.703 34.176 199.343 33.992 199.823 33.624C200.319 33.256 200.679 32.792 200.903 32.232C201.143 31.672 201.271 31.104 201.287 30.528C201.303 30.304 201.311 30.032 201.311 29.712C201.311 29.376 201.303 29.096 201.287 28.872C201.271 28.296 201.143 27.728 200.903 27.168C200.679 26.608 200.319 26.144 199.823 25.776C199.343 25.408 198.703 25.224 197.903 25.224C197.103 25.224 196.463 25.408 195.983 25.776C195.503 26.128 195.159 26.6 194.951 27.192C194.743 27.768 194.623 28.392 194.59 29.064C194.575 29.48 194.575 29.904 194.59 30.336C194.623 31.008 194.743 31.64 194.951 32.232C195.159 32.808 195.503 33.28 195.983 33.648C196.463 34 197.103 34.176 197.903 34.176ZM207.711 36C207.551 36 207.415 35.952 207.303 35.856C207.207 35.744 207.159 35.608 207.159 35.448V24.096C207.159 23.936 207.207 23.8 207.303 23.688C207.415 23.576 207.551 23.52 207.711 23.52H208.815C208.975 23.52 209.111 23.576 209.223 23.688C209.335 23.8 209.391 23.936 209.391 24.096V25.152C209.711 24.608 210.151 24.2 210.711 23.928C211.271 23.656 211.951 23.52 212.751 23.52H213.687C213.847 23.52 213.975 23.576 214.071 23.688C214.183 23.784 214.239 23.912 214.239 24.072V25.056C214.239 25.216 214.183 25.344 214.071 25.44C213.975 25.536 213.847 25.584 213.687 25.584H212.247C211.383 25.584 210.703 25.84 210.207 26.352C209.711 26.848 209.463 27.528 209.463 28.392V35.448C209.463 35.608 209.407 35.744 209.295 35.856C209.183 35.952 209.047 36 208.887 36H207.711ZM221.034 36.24C219.37 36.24 218.05 35.736 217.074 34.728C216.098 33.704 215.562 32.312 215.466 30.552C215.45 30.344 215.442 30.08 215.442 29.76C215.442 29.424 215.45 29.152 215.466 28.944C215.53 27.808 215.794 26.816 216.258 25.968C216.722 25.104 217.354 24.44 218.154 23.976C218.97 23.512 219.922 23.28 221.01 23.28C222.226 23.28 223.242 23.536 224.058 24.048C224.89 24.56 225.522 25.288 225.954 26.232C226.386 27.176 226.602 28.28 226.602 29.544V29.952C226.602 30.128 226.546 30.264 226.434 30.36C226.338 30.456 226.21 30.504 226.05 30.504H217.746C217.746 30.52 217.746 30.552 217.746 30.6C217.746 30.648 217.746 30.688 217.746 30.72C217.778 31.376 217.922 31.992 218.178 32.568C218.434 33.128 218.802 33.584 219.282 33.936C219.778 34.288 220.354 34.464 221.01 34.464C221.586 34.464 222.066 34.376 222.45 34.2C222.834 34.024 223.146 33.832 223.386 33.624C223.626 33.4 223.786 33.224 223.866 33.096C224.01 32.904 224.122 32.792 224.202 32.76C224.282 32.712 224.41 32.688 224.586 32.688H225.762C225.906 32.688 226.026 32.736 226.122 32.832C226.234 32.912 226.282 33.032 226.266 33.192C226.25 33.432 226.122 33.728 225.882 34.08C225.642 34.416 225.298 34.752 224.85 35.088C224.418 35.424 223.874 35.704 223.218 35.928C222.578 36.136 221.85 36.24 221.034 36.24ZM217.746 28.848H224.322V28.776C224.322 28.056 224.186 27.416 223.914 26.856C223.658 26.296 223.282 25.856 222.786 25.536C222.29 25.2 221.698 25.032 221.01 25.032C220.322 25.032 219.73 25.2 219.234 25.536C218.754 25.856 218.386 26.296 218.13 26.856C217.874 27.416 217.746 28.056 217.746 28.776V28.848ZM234.463 36.24C232.799 36.24 231.479 35.736 230.503 34.728C229.527 33.704 228.991 32.312 228.895 30.552C228.879 30.344 228.871 30.08 228.871 29.76C228.871 29.424 228.879 29.152 228.895 28.944C228.959 27.808 229.223 26.816 229.687 25.968C230.151 25.104 230.783 24.44 231.583 23.976C232.399 23.512 233.351 23.28 234.439 23.28C235.655 23.28 236.671 23.536 237.487 24.048C238.319 24.56 238.951 25.288 239.383 26.232C239.815 27.176 240.031 28.28 240.031 29.544V29.952C240.031 30.128 239.975 30.264 239.863 30.36C239.767 30.456 239.639 30.504 239.479 30.504H231.175C231.175 30.52 231.175 30.552 231.175 30.6C231.175 30.648 231.175 30.688 231.175 30.72C231.207 31.376 231.351 31.992 231.607 32.568C231.863 33.128 232.231 33.584 232.711 33.936C233.207 34.288 233.783 34.464 234.439 34.464C235.015 34.464 235.495 34.376 235.879 34.2C236.263 34.024 236.575 33.832 236.815 33.624C237.055 33.4 237.215 33.224 237.295 33.096C237.439 32.904 237.551 32.792 237.631 32.76C237.711 32.712 237.839 32.688 238.015 32.688H239.191C239.335 32.688 239.455 32.736 239.551 32.832C239.663 32.912 239.711 33.032 239.695 33.192C239.679 33.432 239.551 33.728 239.311 34.08C239.071 34.416 238.727 34.752 238.279 35.088C237.847 35.424 237.303 35.704 236.647 35.928C236.007 36.136 235.279 36.24 234.463 36.24ZM231.175 28.848H237.751V28.776C237.751 28.056 237.615 27.416 237.343 26.856C237.087 26.296 236.711 25.856 236.215 25.536C235.719 25.2 235.127 25.032 234.439 25.032C233.751 25.032 233.159 25.2 232.663 25.536C232.183 25.856 231.815 26.296 231.559 26.856C231.303 27.416 231.175 28.056 231.175 28.776V28.848ZM243.477 36C243.317 36 243.181 35.952 243.069 35.856C242.973 35.744 242.925 35.608 242.925 35.448V19.512C242.925 19.352 242.973 19.224 243.069 19.128C243.181 19.016 243.317 18.96 243.477 18.96H244.605C244.765 18.96 244.893 19.016 244.989 19.128C245.101 19.224 245.157 19.352 245.157 19.512V27.864L249.885 23.928C250.077 23.768 250.221 23.664 250.317 23.616C250.429 23.552 250.605 23.52 250.845 23.52H252.117C252.261 23.52 252.381 23.568 252.477 23.664C252.573 23.76 252.621 23.88 252.621 24.024C252.621 24.088 252.597 24.16 252.549 24.24C252.517 24.32 252.445 24.4 252.333 24.48L246.789 29.088L252.933 35.064C253.125 35.224 253.221 35.368 253.221 35.496C253.221 35.64 253.173 35.76 253.077 35.856C252.981 35.952 252.861 36 252.717 36H251.469C251.229 36 251.053 35.976 250.941 35.928C250.829 35.864 250.685 35.752 250.509 35.592L245.157 30.48V35.448C245.157 35.608 245.101 35.744 244.989 35.856C244.893 35.952 244.765 36 244.605 36H243.477ZM261.788 36C261.612 36 261.476 35.952 261.38 35.856C261.284 35.744 261.236 35.608 261.236 35.448V19.752C261.236 19.592 261.284 19.464 261.38 19.368C261.476 19.256 261.612 19.2 261.788 19.2H263.06C263.236 19.2 263.372 19.256 263.468 19.368C263.564 19.464 263.612 19.592 263.612 19.752V35.448C263.612 35.608 263.564 35.744 263.468 35.856C263.372 35.952 263.236 36 263.06 36H261.788ZM266.839 39.816C266.695 39.816 266.567 39.76 266.455 39.648C266.343 39.536 266.287 39.408 266.287 39.264V38.424C266.287 38.264 266.335 38.128 266.431 38.016C266.543 37.92 266.663 37.872 266.791 37.872C267.463 37.856 268.023 37.68 268.471 37.344C268.935 37.008 269.303 36.48 269.575 35.76C269.847 35.04 270.047 34.096 270.175 32.928C270.303 31.744 270.367 30.296 270.367 28.584C270.367 26.872 270.303 25.432 270.175 24.264C270.047 23.08 269.847 22.128 269.575 21.408C269.303 20.688 268.935 20.168 268.471 19.848C268.023 19.512 267.463 19.336 266.791 19.32C266.663 19.32 266.543 19.264 266.431 19.152C266.335 19.04 266.287 18.912 266.287 18.768V17.928C266.287 17.784 266.343 17.656 266.455 17.544C266.567 17.432 266.695 17.376 266.839 17.376C267.879 17.376 268.759 17.592 269.479 18.024C270.199 18.456 270.775 19.128 271.207 20.04C271.655 20.936 271.975 22.096 272.167 23.52C272.359 24.944 272.455 26.632 272.455 28.584C272.455 30.536 272.359 32.224 272.167 33.648C271.975 35.056 271.655 36.216 271.207 37.128C270.775 38.04 270.199 38.712 269.479 39.144C268.759 39.592 267.879 39.816 266.839 39.816Z" fill="#B6BEC9"/>
<path d="M18.328 86C18.168 86 18.032 85.952 17.92 85.856C17.824 85.744 17.776 85.608 17.776 85.448V74.072C17.776 73.912 17.824 73.784 17.92 73.688C18.032 73.576 18.168 73.52 18.328 73.52H19.408C19.568 73.52 19.696 73.576 19.792 73.688C19.904 73.784 19.96 73.912 19.96 74.072V74.912C20.328 74.416 20.792 74.024 21.352 73.736C21.912 73.432 22.584 73.28 23.368 73.28C25.176 73.264 26.456 74 27.208 75.488C27.576 74.816 28.112 74.28 28.816 73.88C29.52 73.48 30.32 73.28 31.216 73.28C32.048 73.28 32.8 73.472 33.472 73.856C34.16 74.24 34.696 74.824 35.08 75.608C35.48 76.376 35.68 77.344 35.68 78.512V85.448C35.68 85.608 35.624 85.744 35.512 85.856C35.416 85.952 35.288 86 35.128 86H34C33.84 86 33.704 85.952 33.592 85.856C33.496 85.744 33.448 85.608 33.448 85.448V78.728C33.448 77.832 33.32 77.128 33.064 76.616C32.808 76.104 32.464 75.744 32.032 75.536C31.6 75.328 31.128 75.224 30.616 75.224C30.2 75.224 29.776 75.328 29.344 75.536C28.912 75.744 28.552 76.104 28.264 76.616C27.992 77.128 27.856 77.832 27.856 78.728V85.448C27.856 85.608 27.8 85.744 27.688 85.856C27.592 85.952 27.464 86 27.304 86H26.176C26.016 86 25.88 85.952 25.768 85.856C25.672 85.744 25.624 85.608 25.624 85.448V78.728C25.624 77.832 25.488 77.128 25.216 76.616C24.944 76.104 24.592 75.744 24.16 75.536C23.728 75.328 23.272 75.224 22.792 75.224C22.376 75.224 21.952 75.328 21.52 75.536C21.088 75.744 20.728 76.104 20.44 76.616C20.168 77.128 20.032 77.824 20.032 78.704V85.448C20.032 85.608 19.976 85.744 19.864 85.856C19.768 85.952 19.64 86 19.48 86H18.328ZM44.0961 86.24C42.4321 86.24 41.1121 85.736 40.1361 84.728C39.1601 83.704 38.6241 82.312 38.5281 80.552C38.5121 80.344 38.5041 80.08 38.5041 79.76C38.5041 79.424 38.5121 79.152 38.5281 78.944C38.5921 77.808 38.8561 76.816 39.3201 75.968C39.7841 75.104 40.4161 74.44 41.2161 73.976C42.0321 73.512 42.9841 73.28 44.0721 73.28C45.2881 73.28 46.3041 73.536 47.1201 74.048C47.9521 74.56 48.5841 75.288 49.0161 76.232C49.4481 77.176 49.6641 78.28 49.6641 79.544V79.952C49.6641 80.128 49.6081 80.264 49.4961 80.36C49.4001 80.456 49.2721 80.504 49.1121 80.504H40.8081C40.8081 80.52 40.8081 80.552 40.8081 80.6C40.8081 80.648 40.8081 80.688 40.8081 80.72C40.8401 81.376 40.9841 81.992 41.2401 82.568C41.4961 83.128 41.8641 83.584 42.3441 83.936C42.8401 84.288 43.4161 84.464 44.0721 84.464C44.6481 84.464 45.1281 84.376 45.5121 84.2C45.8961 84.024 46.2081 83.832 46.4481 83.624C46.6881 83.4 46.8481 83.224 46.9281 83.096C47.0721 82.904 47.1841 82.792 47.2641 82.76C47.3441 82.712 47.4721 82.688 47.6481 82.688H48.8241C48.9681 82.688 49.0881 82.736 49.1841 82.832C49.2961 82.912 49.3441 83.032 49.3281 83.192C49.3121 83.432 49.1841 83.728 48.9441 84.08C48.7041 84.416 48.3601 84.752 47.9121 85.088C47.4801 85.424 46.9361 85.704 46.2801 85.928C45.6401 86.136 44.9121 86.24 44.0961 86.24ZM40.8081 78.848H47.3841V78.776C47.3841 78.056 47.2481 77.416 46.9761 76.856C46.7201 76.296 46.3441 75.856 45.8481 75.536C45.3521 75.2 44.7601 75.032 44.0721 75.032C43.3841 75.032 42.7921 75.2 42.2961 75.536C41.8161 75.856 41.4481 76.296 41.1921 76.856C40.9361 77.416 40.8081 78.056 40.8081 78.776V78.848ZM56.0138 86.24C55.2138 86.24 54.4858 86.08 53.8298 85.76C53.1738 85.44 52.6458 85.008 52.2458 84.464C51.8458 83.92 51.6458 83.304 51.6458 82.616C51.6458 81.512 52.0938 80.632 52.9898 79.976C53.8858 79.32 55.0538 78.888 56.4938 78.68L60.0698 78.176V77.48C60.0698 76.712 59.8458 76.112 59.3978 75.68C58.9658 75.248 58.2538 75.032 57.2618 75.032C56.5578 75.032 55.9818 75.176 55.5338 75.464C55.0858 75.752 54.7738 76.12 54.5978 76.568C54.5018 76.808 54.3338 76.928 54.0938 76.928H53.0138C52.8378 76.928 52.7018 76.88 52.6058 76.784C52.5258 76.672 52.4858 76.544 52.4858 76.4C52.4858 76.16 52.5738 75.864 52.7498 75.512C52.9418 75.16 53.2298 74.816 53.6138 74.48C53.9978 74.144 54.4858 73.864 55.0778 73.64C55.6858 73.4 56.4218 73.28 57.2858 73.28C58.2458 73.28 59.0538 73.408 59.7098 73.664C60.3658 73.904 60.8778 74.232 61.2458 74.648C61.6298 75.064 61.9018 75.536 62.0618 76.064C62.2378 76.592 62.3258 77.128 62.3258 77.672V85.448C62.3258 85.608 62.2698 85.744 62.1578 85.856C62.0618 85.952 61.9338 86 61.7738 86H60.6698C60.4938 86 60.3578 85.952 60.2618 85.856C60.1658 85.744 60.1178 85.608 60.1178 85.448V84.416C59.9098 84.704 59.6298 84.992 59.2778 85.28C58.9258 85.552 58.4858 85.784 57.9578 85.976C57.4298 86.152 56.7818 86.24 56.0138 86.24ZM56.5178 84.44C57.1738 84.44 57.7738 84.304 58.3178 84.032C58.8618 83.744 59.2858 83.304 59.5898 82.712C59.9098 82.12 60.0698 81.376 60.0698 80.48V79.808L57.2858 80.216C56.1498 80.376 55.2938 80.648 54.7178 81.032C54.1418 81.4 53.8538 81.872 53.8538 82.448C53.8538 82.896 53.9818 83.272 54.2378 83.576C54.5098 83.864 54.8458 84.08 55.2458 84.224C55.6618 84.368 56.0858 84.44 56.5178 84.44ZM66.328 86C66.168 86 66.032 85.952 65.92 85.856C65.824 85.744 65.776 85.608 65.776 85.448V74.072C65.776 73.912 65.824 73.784 65.92 73.688C66.032 73.576 66.168 73.52 66.328 73.52H67.456C67.616 73.52 67.744 73.576 67.84 73.688C67.952 73.784 68.008 73.912 68.008 74.072V75.128C68.424 74.584 68.944 74.144 69.568 73.808C70.208 73.456 71.024 73.28 72.016 73.28C73.056 73.28 73.936 73.512 74.656 73.976C75.392 74.424 75.944 75.056 76.312 75.872C76.696 76.672 76.888 77.608 76.888 78.68V85.448C76.888 85.608 76.832 85.744 76.72 85.856C76.624 85.952 76.496 86 76.336 86H75.136C74.976 86 74.84 85.952 74.728 85.856C74.632 85.744 74.584 85.608 74.584 85.448V78.8C74.584 77.68 74.312 76.808 73.768 76.184C73.224 75.544 72.424 75.224 71.368 75.224C70.376 75.224 69.576 75.544 68.968 76.184C68.376 76.808 68.08 77.68 68.08 78.8V85.448C68.08 85.608 68.024 85.744 67.912 85.856C67.816 85.952 67.688 86 67.528 86H66.328ZM84.6507 86.24C83.7547 86.24 82.9867 86.128 82.3467 85.904C81.7067 85.68 81.1867 85.408 80.7867 85.088C80.3867 84.768 80.0827 84.448 79.8747 84.128C79.6827 83.808 79.5787 83.552 79.5627 83.36C79.5467 83.184 79.6027 83.048 79.7307 82.952C79.8587 82.856 79.9867 82.808 80.1147 82.808H81.1947C81.2747 82.808 81.3387 82.824 81.3867 82.856C81.4507 82.872 81.5307 82.936 81.6267 83.048C81.8347 83.272 82.0667 83.496 82.3227 83.72C82.5787 83.944 82.8907 84.128 83.2587 84.272C83.6427 84.416 84.1147 84.488 84.6747 84.488C85.4907 84.488 86.1627 84.336 86.6907 84.032C87.2187 83.712 87.4827 83.248 87.4827 82.64C87.4827 82.24 87.3707 81.92 87.1467 81.68C86.9387 81.44 86.5547 81.224 85.9947 81.032C85.4507 80.84 84.6987 80.64 83.7387 80.432C82.7787 80.208 82.0187 79.936 81.4587 79.616C80.8987 79.28 80.4987 78.888 80.2587 78.44C80.0187 77.976 79.8987 77.456 79.8987 76.88C79.8987 76.288 80.0747 75.72 80.4267 75.176C80.7787 74.616 81.2907 74.16 81.9627 73.808C82.6507 73.456 83.5067 73.28 84.5307 73.28C85.3627 73.28 86.0747 73.384 86.6667 73.592C87.2587 73.8 87.7467 74.064 88.1307 74.384C88.5147 74.688 88.8027 74.992 88.9947 75.296C89.1867 75.6 89.2907 75.856 89.3067 76.064C89.3227 76.224 89.2747 76.36 89.1627 76.472C89.0507 76.568 88.9227 76.616 88.7787 76.616H87.7707C87.6587 76.616 87.5627 76.592 87.4827 76.544C87.4187 76.496 87.3547 76.44 87.2907 76.376C87.1307 76.168 86.9387 75.96 86.7147 75.752C86.5067 75.544 86.2267 75.376 85.8747 75.248C85.5387 75.104 85.0907 75.032 84.5307 75.032C83.7307 75.032 83.1307 75.2 82.7307 75.536C82.3307 75.872 82.1307 76.296 82.1307 76.808C82.1307 77.112 82.2187 77.384 82.3947 77.624C82.5707 77.864 82.9067 78.08 83.4027 78.272C83.8987 78.464 84.6347 78.672 85.6107 78.896C86.6667 79.104 87.4987 79.384 88.1067 79.736C88.7147 80.088 89.1467 80.496 89.4027 80.96C89.6587 81.424 89.7867 81.96 89.7867 82.568C89.7867 83.24 89.5947 83.856 89.2107 84.416C88.8267 84.976 88.2507 85.424 87.4827 85.76C86.7147 86.08 85.7707 86.24 84.6507 86.24Z" fill="#B6BEC9"/>
<path d="M443.95 42C443.65 42 443.395 41.91 443.185 41.73C443.005 41.52 442.915 41.265 442.915 40.965V11.58C442.915 11.25 443.005 10.995 443.185 10.815C443.395 10.605 443.65 10.5 443.95 10.5H446.2C446.56 10.5 446.83 10.59 447.01 10.77C447.19 10.95 447.31 11.1 447.37 11.22L456.865 29.4L466.45 11.22C466.51 11.1 466.615 10.95 466.765 10.77C466.945 10.59 467.215 10.5 467.575 10.5H469.78C470.11 10.5 470.365 10.605 470.545 10.815C470.755 10.995 470.86 11.25 470.86 11.58V40.965C470.86 41.265 470.755 41.52 470.545 41.73C470.365 41.91 470.11 42 469.78 42H467.575C467.275 42 467.02 41.91 466.81 41.73C466.63 41.52 466.54 41.265 466.54 40.965V18.825L459.025 33.495C458.905 33.795 458.725 34.035 458.485 34.215C458.245 34.365 457.945 34.44 457.585 34.44H456.19C455.8 34.44 455.5 34.365 455.29 34.215C455.08 34.035 454.9 33.795 454.75 33.495L447.19 18.825V40.965C447.19 41.265 447.085 41.52 446.875 41.73C446.695 41.91 446.455 42 446.155 42H443.95ZM480.578 42C480.338 42 480.128 41.91 479.948 41.73C479.768 41.55 479.678 41.34 479.678 41.1C479.678 40.95 479.693 40.785 479.723 40.605L490.883 11.49C491.003 11.19 491.168 10.95 491.378 10.77C491.588 10.59 491.903 10.5 492.323 10.5H495.383C495.803 10.5 496.118 10.59 496.328 10.77C496.538 10.95 496.703 11.19 496.823 11.49L507.938 40.605C507.998 40.785 508.028 40.95 508.028 41.1C508.028 41.34 507.938 41.55 507.758 41.73C507.578 41.91 507.368 42 507.128 42H504.833C504.473 42 504.203 41.91 504.023 41.73C503.873 41.55 503.768 41.385 503.708 41.235L501.233 34.845H486.473L483.998 41.235C483.968 41.385 483.863 41.55 483.683 41.73C483.503 41.91 483.233 42 482.873 42H480.578ZM487.778 30.975H499.928L493.853 15L487.778 30.975ZM521.469 42C521.169 42 520.914 41.91 520.704 41.73C520.524 41.52 520.434 41.265 520.434 40.965V14.505H511.794C511.494 14.505 511.239 14.415 511.029 14.235C510.849 14.025 510.759 13.77 510.759 13.47V11.58C510.759 11.25 510.849 10.995 511.029 10.815C511.239 10.605 511.494 10.5 511.794 10.5H533.484C533.814 10.5 534.069 10.605 534.249 10.815C534.459 10.995 534.564 11.25 534.564 11.58V13.47C534.564 13.77 534.459 14.025 534.249 14.235C534.069 14.415 533.814 14.505 533.484 14.505H524.889V40.965C524.889 41.265 524.784 41.52 524.574 41.73C524.394 41.91 524.139 42 523.809 42H521.469ZM544.694 42C544.364 42 544.109 41.91 543.929 41.73C543.749 41.52 543.659 41.265 543.659 40.965V11.535C543.659 11.235 543.749 10.995 543.929 10.815C544.109 10.605 544.364 10.5 544.694 10.5H547.079C547.409 10.5 547.664 10.605 547.844 10.815C548.024 10.995 548.114 11.235 548.114 11.535V40.965C548.114 41.265 548.024 41.52 547.844 41.73C547.664 41.91 547.409 42 547.079 42H544.694ZM571.353 42.45C568.593 42.45 566.298 41.94 564.468 40.92C562.668 39.9 561.303 38.475 560.373 36.645C559.443 34.815 558.933 32.685 558.843 30.255C558.813 29.025 558.798 27.705 558.798 26.295C558.798 24.885 558.813 23.535 558.843 22.245C558.933 19.815 559.443 17.685 560.373 15.855C561.303 14.025 562.668 12.6 564.468 11.58C566.298 10.56 568.593 10.05 571.353 10.05C573.423 10.05 575.238 10.335 576.798 10.905C578.358 11.475 579.648 12.24 580.668 13.2C581.718 14.16 582.513 15.24 583.053 16.44C583.593 17.61 583.893 18.825 583.953 20.085C583.983 20.355 583.893 20.58 583.683 20.76C583.503 20.94 583.278 21.03 583.008 21.03H580.533C580.263 21.03 580.023 20.955 579.813 20.805C579.633 20.655 579.498 20.385 579.408 19.995C578.898 17.655 577.938 16.05 576.528 15.18C575.148 14.31 573.423 13.875 571.353 13.875C568.923 13.875 567.003 14.565 565.593 15.945C564.183 17.295 563.433 19.47 563.343 22.47C563.253 24.93 563.253 27.45 563.343 30.03C563.433 33.03 564.183 35.22 565.593 36.6C567.003 37.95 568.923 38.625 571.353 38.625C573.423 38.625 575.148 38.19 576.528 37.32C577.938 36.45 578.898 34.845 579.408 32.505C579.498 32.115 579.633 31.845 579.813 31.695C580.023 31.545 580.263 31.47 580.533 31.47H583.008C583.278 31.47 583.503 31.56 583.683 31.74C583.893 31.89 583.983 32.1 583.953 32.37C583.893 33.63 583.593 34.86 583.053 36.06C582.513 37.26 581.718 38.34 580.668 39.3C579.648 40.26 578.358 41.025 576.798 41.595C575.238 42.165 573.423 42.45 571.353 42.45Z" fill="url(#paint1_linear_198_24)"/>
<path d="M487.95 96C487.62 96 487.365 95.91 487.185 95.73C487.005 95.52 486.915 95.265 486.915 94.965V65.58C486.915 65.25 487.005 64.995 487.185 64.815C487.365 64.605 487.62 64.5 487.95 64.5H499.38C501.6 64.5 503.52 64.86 505.14 65.58C506.79 66.3 508.065 67.38 508.965 68.82C509.865 70.23 510.315 72 510.315 74.13C510.315 76.26 509.865 78.03 508.965 79.44C508.065 80.85 506.79 81.915 505.14 82.635C503.52 83.355 501.6 83.715 499.38 83.715H491.415V94.965C491.415 95.265 491.31 95.52 491.1 95.73C490.92 95.91 490.665 96 490.335 96H487.95ZM491.37 79.935H499.155C501.375 79.935 503.04 79.44 504.15 78.45C505.26 77.46 505.815 76.02 505.815 74.13C505.815 72.27 505.275 70.83 504.195 69.81C503.115 68.79 501.435 68.28 499.155 68.28H491.37V79.935ZM531.177 96.45C528.597 96.45 526.392 96.015 524.562 95.145C522.732 94.245 521.322 92.88 520.332 91.05C519.342 89.19 518.787 86.865 518.667 84.075C518.637 82.755 518.622 81.495 518.622 80.295C518.622 79.065 518.637 77.79 518.667 76.47C518.787 73.71 519.357 71.415 520.377 69.585C521.427 67.725 522.867 66.345 524.697 65.445C526.557 64.515 528.717 64.05 531.177 64.05C533.607 64.05 535.737 64.515 537.567 65.445C539.427 66.345 540.882 67.725 541.932 69.585C542.982 71.415 543.552 73.71 543.642 76.47C543.702 77.79 543.732 79.065 543.732 80.295C543.732 81.495 543.702 82.755 543.642 84.075C543.552 86.865 542.997 89.19 541.977 91.05C540.987 92.88 539.577 94.245 537.747 95.145C535.917 96.015 533.727 96.45 531.177 96.45ZM531.177 92.625C533.457 92.625 535.317 91.935 536.757 90.555C538.227 89.175 539.022 86.94 539.142 83.85C539.202 82.5 539.232 81.3 539.232 80.25C539.232 79.17 539.202 77.97 539.142 76.65C539.082 74.58 538.692 72.9 537.972 71.61C537.282 70.32 536.352 69.375 535.182 68.775C534.012 68.175 532.677 67.875 531.177 67.875C529.677 67.875 528.342 68.175 527.172 68.775C526.002 69.375 525.057 70.32 524.337 71.61C523.647 72.9 523.257 74.58 523.167 76.65C523.137 77.97 523.122 79.17 523.122 80.25C523.122 81.3 523.137 82.5 523.167 83.85C523.287 86.94 524.082 89.175 525.552 90.555C527.022 91.935 528.897 92.625 531.177 92.625ZM555.376 96C555.046 96 554.791 95.91 554.611 95.73C554.431 95.52 554.341 95.265 554.341 94.965V65.535C554.341 65.235 554.431 64.995 554.611 64.815C554.791 64.605 555.046 64.5 555.376 64.5H557.761C558.061 64.5 558.301 64.605 558.481 64.815C558.691 64.995 558.796 65.235 558.796 65.535V92.085H573.736C574.066 92.085 574.321 92.19 574.501 92.4C574.711 92.58 574.816 92.835 574.816 93.165V94.965C574.816 95.265 574.711 95.52 574.501 95.73C574.321 95.91 574.066 96 573.736 96H555.376ZM588.408 96C588.108 96 587.853 95.91 587.643 95.73C587.463 95.52 587.373 95.265 587.373 94.965V84.345L576.528 65.985C576.498 65.895 576.468 65.805 576.438 65.715C576.408 65.625 576.393 65.52 576.393 65.4C576.393 65.16 576.483 64.95 576.663 64.77C576.843 64.59 577.053 64.5 577.293 64.5H579.633C579.903 64.5 580.143 64.575 580.353 64.725C580.563 64.845 580.713 65.025 580.803 65.265L589.578 79.845L598.353 65.265C598.503 65.025 598.668 64.845 598.848 64.725C599.058 64.575 599.298 64.5 599.568 64.5H601.863C602.133 64.5 602.358 64.59 602.538 64.77C602.718 64.95 602.808 65.16 602.808 65.4C602.808 65.52 602.793 65.625 602.763 65.715C602.733 65.805 602.688 65.895 602.628 65.985L591.828 84.345V94.965C591.828 95.265 591.723 95.52 591.513 95.73C591.333 95.91 591.078 96 590.748 96H588.408ZM622.256 96.45C619.586 96.45 617.321 95.955 615.461 94.965C613.631 93.975 612.221 92.58 611.231 90.78C610.271 88.98 609.731 86.865 609.611 84.435C609.581 83.115 609.566 81.72 609.566 80.25C609.566 78.75 609.581 77.325 609.611 75.975C609.731 73.545 610.271 71.445 611.231 69.675C612.221 67.875 613.646 66.495 615.506 65.535C617.366 64.545 619.616 64.05 622.256 64.05C624.356 64.05 626.186 64.35 627.746 64.95C629.306 65.55 630.581 66.315 631.571 67.245C632.591 68.145 633.341 69.09 633.821 70.08C634.331 71.07 634.601 71.94 634.631 72.69C634.661 72.96 634.586 73.185 634.406 73.365C634.226 73.515 633.986 73.59 633.686 73.59H631.031C630.731 73.59 630.506 73.53 630.356 73.41C630.236 73.29 630.116 73.08 629.996 72.78C629.726 72 629.276 71.235 628.646 70.485C628.046 69.735 627.221 69.12 626.171 68.64C625.151 68.13 623.846 67.875 622.256 67.875C619.856 67.875 617.921 68.52 616.451 69.81C615.011 71.1 614.231 73.23 614.111 76.2C614.021 78.87 614.021 81.54 614.111 84.21C614.231 87.21 615.026 89.37 616.496 90.69C617.966 91.98 619.886 92.625 622.256 92.625C623.846 92.625 625.256 92.325 626.486 91.725C627.746 91.125 628.736 90.225 629.456 89.025C630.176 87.795 630.536 86.235 630.536 84.345V82.455H623.786C623.486 82.455 623.231 82.365 623.021 82.185C622.841 81.975 622.751 81.705 622.751 81.375V79.935C622.751 79.605 622.841 79.35 623.021 79.17C623.231 78.96 623.486 78.855 623.786 78.855H633.956C634.286 78.855 634.541 78.96 634.721 79.17C634.901 79.35 634.991 79.605 634.991 79.935V84.255C634.991 86.715 634.481 88.86 633.461 90.69C632.471 92.52 631.016 93.945 629.096 94.965C627.176 95.955 624.896 96.45 622.256 96.45ZM656.801 96.45C654.221 96.45 652.016 96.015 650.186 95.145C648.356 94.245 646.946 92.88 645.956 91.05C644.966 89.19 644.411 86.865 644.291 84.075C644.261 82.755 644.246 81.495 644.246 80.295C644.246 79.065 644.261 77.79 644.291 76.47C644.411 73.71 644.981 71.415 646.001 69.585C647.051 67.725 648.491 66.345 650.321 65.445C652.181 64.515 654.341 64.05 656.801 64.05C659.231 64.05 661.361 64.515 663.191 65.445C665.051 66.345 666.506 67.725 667.556 69.585C668.606 71.415 669.176 73.71 669.266 76.47C669.326 77.79 669.356 79.065 669.356 80.295C669.356 81.495 669.326 82.755 669.266 84.075C669.176 86.865 668.621 89.19 667.601 91.05C666.611 92.88 665.201 94.245 663.371 95.145C661.541 96.015 659.351 96.45 656.801 96.45ZM656.801 92.625C659.081 92.625 660.941 91.935 662.381 90.555C663.851 89.175 664.646 86.94 664.766 83.85C664.826 82.5 664.856 81.3 664.856 80.25C664.856 79.17 664.826 77.97 664.766 76.65C664.706 74.58 664.316 72.9 663.596 71.61C662.906 70.32 661.976 69.375 660.806 68.775C659.636 68.175 658.301 67.875 656.801 67.875C655.301 67.875 653.966 68.175 652.796 68.775C651.626 69.375 650.681 70.32 649.961 71.61C649.271 72.9 648.881 74.58 648.791 76.65C648.761 77.97 648.746 79.17 648.746 80.25C648.746 81.3 648.761 82.5 648.791 83.85C648.911 86.94 649.706 89.175 651.176 90.555C652.646 91.935 654.521 92.625 656.801 92.625ZM681 96C680.67 96 680.415 95.91 680.235 95.73C680.055 95.52 679.965 95.265 679.965 94.965V65.58C679.965 65.25 680.055 64.995 680.235 64.815C680.415 64.605 680.67 64.5 681 64.5H683.07C683.43 64.5 683.7 64.59 683.88 64.77C684.06 64.92 684.165 65.04 684.195 65.13L699.135 88.08V65.58C699.135 65.25 699.225 64.995 699.405 64.815C699.585 64.605 699.84 64.5 700.17 64.5H702.33C702.66 64.5 702.915 64.605 703.095 64.815C703.305 64.995 703.41 65.25 703.41 65.58V94.92C703.41 95.22 703.305 95.475 703.095 95.685C702.915 95.895 702.675 96 702.375 96H700.215C699.885 96 699.63 95.91 699.45 95.73C699.3 95.55 699.195 95.43 699.135 95.37L684.24 72.645V94.965C684.24 95.265 684.135 95.52 683.925 95.73C683.745 95.91 683.49 96 683.16 96H681ZM714.674 72.735C714.434 72.735 714.239 72.645 714.089 72.465C713.969 72.285 713.924 72.06 713.954 71.79L714.989 65.355C715.049 64.995 715.169 64.695 715.349 64.455C715.559 64.185 715.859 64.05 716.249 64.05H719.264C719.474 64.05 719.639 64.14 719.759 64.32C719.909 64.47 719.984 64.635 719.984 64.815C719.984 65.055 719.924 65.295 719.804 65.535L717.464 71.7C717.344 72 717.179 72.255 716.969 72.465C716.789 72.645 716.519 72.735 716.159 72.735H714.674ZM739.367 96.45C736.757 96.45 734.567 96.045 732.797 95.235C731.027 94.425 729.662 93.39 728.702 92.13C727.772 90.84 727.277 89.49 727.217 88.08C727.217 87.84 727.307 87.63 727.487 87.45C727.697 87.24 727.937 87.135 728.207 87.135H730.502C730.862 87.135 731.132 87.225 731.312 87.405C731.492 87.585 731.612 87.795 731.672 88.035C731.852 88.755 732.227 89.475 732.797 90.195C733.367 90.885 734.177 91.47 735.227 91.95C736.307 92.4 737.687 92.625 739.367 92.625C741.947 92.625 743.837 92.175 745.037 91.275C746.267 90.345 746.882 89.115 746.882 87.585C746.882 86.535 746.552 85.695 745.892 85.065C745.262 84.405 744.287 83.82 742.967 83.31C741.647 82.8 739.937 82.245 737.837 81.645C735.647 81.015 733.832 80.325 732.392 79.575C730.952 78.825 729.872 77.895 729.152 76.785C728.462 75.675 728.117 74.265 728.117 72.555C728.117 70.935 728.552 69.495 729.422 68.235C730.292 66.945 731.552 65.925 733.202 65.175C734.852 64.425 736.832 64.05 739.142 64.05C741.002 64.05 742.622 64.305 744.002 64.815C745.412 65.295 746.582 65.955 747.512 66.795C748.442 67.605 749.147 68.49 749.627 69.45C750.107 70.38 750.362 71.295 750.392 72.195C750.392 72.405 750.317 72.615 750.167 72.825C750.017 73.005 749.777 73.095 749.447 73.095H747.062C746.852 73.095 746.627 73.035 746.387 72.915C746.177 72.795 746.012 72.57 745.892 72.24C745.712 71.01 745.022 69.975 743.822 69.135C742.622 68.295 741.062 67.875 739.142 67.875C737.192 67.875 735.602 68.25 734.372 69C733.172 69.75 732.572 70.92 732.572 72.51C732.572 73.53 732.857 74.385 733.427 75.075C733.997 75.735 734.897 76.32 736.127 76.83C737.357 77.34 738.962 77.88 740.942 78.45C743.342 79.11 745.307 79.815 746.837 80.565C748.367 81.285 749.492 82.2 750.212 83.31C750.962 84.39 751.337 85.785 751.337 87.495C751.337 89.385 750.842 91.005 749.852 92.355C748.862 93.675 747.467 94.695 745.667 95.415C743.897 96.105 741.797 96.45 739.367 96.45Z" fill="white"/>
<path d="M596.328 35C596.168 35 596.032 34.952 595.92 34.856C595.824 34.744 595.776 34.608 595.776 34.448V23.072C595.776 22.912 595.824 22.784 595.92 22.688C596.032 22.576 596.168 22.52 596.328 22.52H597.48C597.64 22.52 597.768 22.576 597.864 22.688C597.976 22.784 598.032 22.912 598.032 23.072V34.448C598.032 34.608 597.976 34.744 597.864 34.856C597.768 34.952 597.64 35 597.48 35H596.328ZM596.136 20.192C595.976 20.192 595.84 20.144 595.728 20.048C595.632 19.936 595.584 19.8 595.584 19.64V18.344C595.584 18.184 595.632 18.048 595.728 17.936C595.84 17.824 595.976 17.768 596.136 17.768H597.648C597.808 17.768 597.944 17.824 598.056 17.936C598.168 18.048 598.224 18.184 598.224 18.344V19.64C598.224 19.8 598.168 19.936 598.056 20.048C597.944 20.144 597.808 20.192 597.648 20.192H596.136ZM606.049 35.24C605.153 35.24 604.385 35.128 603.745 34.904C603.105 34.68 602.585 34.408 602.185 34.088C601.785 33.768 601.481 33.448 601.273 33.128C601.081 32.808 600.977 32.552 600.961 32.36C600.945 32.184 601.001 32.048 601.129 31.952C601.257 31.856 601.385 31.808 601.513 31.808H602.593C602.673 31.808 602.737 31.824 602.785 31.856C602.849 31.872 602.929 31.936 603.025 32.048C603.233 32.272 603.465 32.496 603.721 32.72C603.977 32.944 604.289 33.128 604.657 33.272C605.041 33.416 605.513 33.488 606.073 33.488C606.889 33.488 607.561 33.336 608.089 33.032C608.617 32.712 608.881 32.248 608.881 31.64C608.881 31.24 608.769 30.92 608.545 30.68C608.337 30.44 607.953 30.224 607.393 30.032C606.849 29.84 606.097 29.64 605.137 29.432C604.177 29.208 603.417 28.936 602.857 28.616C602.297 28.28 601.897 27.888 601.657 27.44C601.417 26.976 601.297 26.456 601.297 25.88C601.297 25.288 601.473 24.72 601.825 24.176C602.177 23.616 602.689 23.16 603.361 22.808C604.049 22.456 604.905 22.28 605.929 22.28C606.761 22.28 607.473 22.384 608.065 22.592C608.657 22.8 609.145 23.064 609.529 23.384C609.913 23.688 610.201 23.992 610.393 24.296C610.585 24.6 610.689 24.856 610.705 25.064C610.721 25.224 610.673 25.36 610.561 25.472C610.449 25.568 610.321 25.616 610.177 25.616H609.169C609.057 25.616 608.961 25.592 608.881 25.544C608.817 25.496 608.753 25.44 608.689 25.376C608.529 25.168 608.337 24.96 608.113 24.752C607.905 24.544 607.625 24.376 607.273 24.248C606.937 24.104 606.489 24.032 605.929 24.032C605.129 24.032 604.529 24.2 604.129 24.536C603.729 24.872 603.529 25.296 603.529 25.808C603.529 26.112 603.617 26.384 603.793 26.624C603.969 26.864 604.305 27.08 604.801 27.272C605.297 27.464 606.033 27.672 607.009 27.896C608.065 28.104 608.897 28.384 609.505 28.736C610.113 29.088 610.545 29.496 610.801 29.96C611.057 30.424 611.185 30.96 611.185 31.568C611.185 32.24 610.993 32.856 610.609 33.416C610.225 33.976 609.649 34.424 608.881 34.76C608.113 35.08 607.169 35.24 606.049 35.24ZM624.886 35.24C623.75 35.24 622.766 35.024 621.934 34.592C621.118 34.144 620.486 33.512 620.038 32.696C619.59 31.864 619.35 30.872 619.318 29.72C619.302 29.48 619.294 29.16 619.294 28.76C619.294 28.36 619.302 28.04 619.318 27.8C619.35 26.648 619.59 25.664 620.038 24.848C620.486 24.016 621.118 23.384 621.934 22.952C622.766 22.504 623.75 22.28 624.886 22.28C625.814 22.28 626.606 22.408 627.262 22.664C627.934 22.92 628.486 23.248 628.918 23.648C629.35 24.048 629.67 24.48 629.878 24.944C630.102 25.408 630.222 25.848 630.238 26.264C630.254 26.424 630.206 26.552 630.094 26.648C629.982 26.744 629.846 26.792 629.686 26.792H628.534C628.374 26.792 628.254 26.76 628.174 26.696C628.094 26.616 628.014 26.488 627.934 26.312C627.646 25.528 627.254 24.976 626.758 24.656C626.262 24.336 625.646 24.176 624.91 24.176C623.95 24.176 623.166 24.472 622.558 25.064C621.966 25.656 621.646 26.608 621.598 27.92C621.582 28.496 621.582 29.056 621.598 29.6C621.646 30.928 621.966 31.888 622.558 32.48C623.166 33.056 623.95 33.344 624.91 33.344C625.646 33.344 626.262 33.184 626.758 32.864C627.254 32.544 627.646 31.992 627.934 31.208C628.014 31.032 628.094 30.904 628.174 30.824C628.254 30.744 628.374 30.704 628.534 30.704H629.686C629.846 30.704 629.982 30.76 630.094 30.872C630.206 30.968 630.254 31.096 630.238 31.256C630.222 31.592 630.15 31.936 630.022 32.288C629.894 32.64 629.686 33 629.398 33.368C629.126 33.72 628.782 34.04 628.366 34.328C627.95 34.6 627.454 34.824 626.878 35C626.302 35.16 625.638 35.24 624.886 35.24ZM638.201 35.24C636.985 35.24 635.969 35.008 635.153 34.544C634.337 34.08 633.713 33.44 633.281 32.624C632.849 31.792 632.609 30.848 632.561 29.792C632.545 29.52 632.537 29.176 632.537 28.76C632.537 28.328 632.545 27.984 632.561 27.728C632.609 26.656 632.849 25.712 633.281 24.896C633.729 24.08 634.361 23.44 635.177 22.976C635.993 22.512 637.001 22.28 638.201 22.28C639.401 22.28 640.409 22.512 641.225 22.976C642.041 23.44 642.665 24.08 643.097 24.896C643.545 25.712 643.793 26.656 643.841 27.728C643.857 27.984 643.865 28.328 643.865 28.76C643.865 29.176 643.857 29.52 643.841 29.792C643.793 30.848 643.553 31.792 643.121 32.624C642.689 33.44 642.065 34.08 641.249 34.544C640.433 35.008 639.417 35.24 638.201 35.24ZM638.201 33.392C639.193 33.392 639.985 33.08 640.577 32.456C641.169 31.816 641.489 30.888 641.537 29.672C641.553 29.432 641.561 29.128 641.561 28.76C641.561 28.392 641.553 28.088 641.537 27.848C641.489 26.632 641.169 25.712 640.577 25.088C639.985 24.448 639.193 24.128 638.201 24.128C637.209 24.128 636.409 24.448 635.801 25.088C635.209 25.712 634.897 26.632 634.865 27.848C634.849 28.088 634.84 28.392 634.84 28.76C634.84 29.128 634.849 29.432 634.865 29.672C634.897 30.888 635.209 31.816 635.801 32.456C636.409 33.08 637.209 33.392 638.201 33.392ZM647.422 35C647.262 35 647.126 34.952 647.014 34.856C646.918 34.744 646.87 34.608 646.87 34.448V23.072C646.87 22.912 646.918 22.784 647.014 22.688C647.126 22.576 647.262 22.52 647.422 22.52H648.574C648.734 22.52 648.862 22.576 648.958 22.688C649.07 22.784 649.126 22.912 649.126 23.072V34.448C649.126 34.608 649.07 34.744 648.958 34.856C648.862 34.952 648.734 35 648.574 35H647.422ZM647.23 20.192C647.07 20.192 646.934 20.144 646.822 20.048C646.726 19.936 646.678 19.8 646.678 19.64V18.344C646.678 18.184 646.726 18.048 646.822 17.936C646.934 17.824 647.07 17.768 647.23 17.768H648.742C648.902 17.768 649.038 17.824 649.15 17.936C649.262 18.048 649.318 18.184 649.318 18.344V19.64C649.318 19.8 649.262 19.936 649.15 20.048C649.038 20.144 648.902 20.192 648.742 20.192H647.23ZM653.445 35C653.285 35 653.149 34.952 653.037 34.856C652.941 34.744 652.893 34.608 652.893 34.448V23.072C652.893 22.912 652.941 22.784 653.037 22.688C653.149 22.576 653.285 22.52 653.445 22.52H654.573C654.733 22.52 654.861 22.576 654.957 22.688C655.069 22.784 655.125 22.912 655.125 23.072V24.128C655.541 23.584 656.061 23.144 656.685 22.808C657.325 22.456 658.141 22.28 659.133 22.28C660.173 22.28 661.053 22.512 661.773 22.976C662.509 23.424 663.061 24.056 663.429 24.872C663.813 25.672 664.005 26.608 664.005 27.68V34.448C664.005 34.608 663.949 34.744 663.837 34.856C663.741 34.952 663.613 35 663.453 35H662.253C662.093 35 661.957 34.952 661.845 34.856C661.749 34.744 661.701 34.608 661.701 34.448V27.8C661.701 26.68 661.429 25.808 660.885 25.184C660.341 24.544 659.541 24.224 658.485 24.224C657.493 24.224 656.693 24.544 656.085 25.184C655.493 25.808 655.197 26.68 655.197 27.8V34.448C655.197 34.608 655.141 34.744 655.029 34.856C654.933 34.952 654.805 35 654.645 35H653.445ZM672.44 35.24C670.776 35.24 669.456 34.736 668.48 33.728C667.504 32.704 666.968 31.312 666.872 29.552C666.856 29.344 666.848 29.08 666.848 28.76C666.848 28.424 666.856 28.152 666.872 27.944C666.936 26.808 667.2 25.816 667.664 24.968C668.128 24.104 668.76 23.44 669.56 22.976C670.376 22.512 671.328 22.28 672.416 22.28C673.632 22.28 674.648 22.536 675.464 23.048C676.296 23.56 676.928 24.288 677.36 25.232C677.792 26.176 678.008 27.28 678.008 28.544V28.952C678.008 29.128 677.952 29.264 677.84 29.36C677.744 29.456 677.616 29.504 677.456 29.504H669.152C669.152 29.52 669.152 29.552 669.152 29.6C669.152 29.648 669.152 29.688 669.152 29.72C669.184 30.376 669.328 30.992 669.584 31.568C669.84 32.128 670.208 32.584 670.688 32.936C671.184 33.288 671.76 33.464 672.416 33.464C672.992 33.464 673.472 33.376 673.856 33.2C674.24 33.024 674.552 32.832 674.792 32.624C675.032 32.4 675.192 32.224 675.272 32.096C675.416 31.904 675.528 31.792 675.608 31.76C675.688 31.712 675.816 31.688 675.992 31.688H677.168C677.312 31.688 677.432 31.736 677.528 31.832C677.64 31.912 677.688 32.032 677.672 32.192C677.656 32.432 677.528 32.728 677.288 33.08C677.048 33.416 676.704 33.752 676.256 34.088C675.824 34.424 675.28 34.704 674.624 34.928C673.984 35.136 673.256 35.24 672.44 35.24ZM669.152 27.848H675.728V27.776C675.728 27.056 675.592 26.416 675.32 25.856C675.064 25.296 674.688 24.856 674.192 24.536C673.696 24.2 673.104 24.032 672.416 24.032C671.728 24.032 671.136 24.2 670.64 24.536C670.16 24.856 669.792 25.296 669.536 25.856C669.28 26.416 669.152 27.056 669.152 27.776V27.848ZM685.438 35.24C684.558 35.24 683.798 35.088 683.158 34.784C682.518 34.464 681.99 34.04 681.574 33.512C681.174 32.968 680.87 32.352 680.662 31.664C680.47 30.976 680.358 30.248 680.326 29.48C680.31 29.224 680.302 28.984 680.302 28.76C680.302 28.536 680.31 28.296 680.326 28.04C680.358 27.288 680.47 26.568 680.662 25.88C680.87 25.192 681.174 24.576 681.574 24.032C681.99 23.488 682.518 23.064 683.158 22.76C683.798 22.44 684.558 22.28 685.438 22.28C686.382 22.28 687.166 22.448 687.79 22.784C688.414 23.12 688.926 23.536 689.326 24.032V18.512C689.326 18.352 689.374 18.224 689.47 18.128C689.582 18.016 689.718 17.96 689.878 17.96H691.03C691.19 17.96 691.318 18.016 691.414 18.128C691.526 18.224 691.582 18.352 691.582 18.512V34.448C691.582 34.608 691.526 34.744 691.414 34.856C691.318 34.952 691.19 35 691.03 35H689.95C689.774 35 689.638 34.952 689.542 34.856C689.446 34.744 689.398 34.608 689.398 34.448V33.44C688.998 33.952 688.478 34.384 687.838 34.736C687.198 35.072 686.398 35.24 685.438 35.24ZM685.942 33.296C686.742 33.296 687.382 33.112 687.862 32.744C688.342 32.376 688.702 31.912 688.942 31.352C689.182 30.776 689.31 30.192 689.326 29.6C689.342 29.344 689.35 29.04 689.35 28.688C689.35 28.32 689.342 28.008 689.326 27.752C689.31 27.192 689.174 26.64 688.918 26.096C688.678 25.552 688.31 25.104 687.814 24.752C687.334 24.4 686.71 24.224 685.942 24.224C685.126 24.224 684.478 24.408 683.998 24.776C683.518 25.128 683.174 25.6 682.966 26.192C682.758 26.768 682.638 27.392 682.606 28.064C682.59 28.528 682.59 28.992 682.606 29.456C682.638 30.128 682.758 30.76 682.966 31.352C683.174 31.928 683.518 32.4 683.998 32.768C684.478 33.12 685.126 33.296 685.942 33.296ZM702.389 35C702.229 35 702.093 34.952 701.98 34.856C701.885 34.744 701.837 34.608 701.837 34.448V24.44H699.797C699.637 24.44 699.501 24.392 699.389 24.296C699.293 24.184 699.245 24.048 699.245 23.888V23.072C699.245 22.912 699.293 22.784 699.389 22.688C699.501 22.576 699.637 22.52 699.797 22.52H701.837V21.32C701.837 20.504 701.973 19.792 702.245 19.184C702.517 18.56 702.949 18.08 703.541 17.744C704.149 17.408 704.957 17.24 705.965 17.24H707.405C707.565 17.24 707.693 17.296 707.789 17.408C707.901 17.504 707.957 17.632 707.957 17.792V18.608C707.957 18.768 707.901 18.904 707.789 19.016C707.693 19.112 707.565 19.16 707.405 19.16H706.013C705.261 19.16 704.749 19.36 704.477 19.76C704.205 20.144 704.069 20.704 704.069 21.44V22.52H707.165C707.325 22.52 707.453 22.576 707.549 22.688C707.661 22.784 707.717 22.912 707.717 23.072V23.888C707.717 24.048 707.661 24.184 707.549 24.296C707.453 24.392 707.325 24.44 707.165 24.44H704.069V34.448C704.069 34.608 704.013 34.744 703.901 34.856C703.805 34.952 703.677 35 703.517 35H702.389ZM710.375 35C710.215 35 710.079 34.952 709.967 34.856C709.871 34.744 709.823 34.608 709.823 34.448V23.096C709.823 22.936 709.871 22.8 709.967 22.688C710.079 22.576 710.215 22.52 710.375 22.52H711.479C711.639 22.52 711.775 22.576 711.887 22.688C711.999 22.8 712.055 22.936 712.055 23.096V24.152C712.375 23.608 712.815 23.2 713.375 22.928C713.935 22.656 714.615 22.52 715.415 22.52H716.351C716.511 22.52 716.639 22.576 716.735 22.688C716.847 22.784 716.903 22.912 716.903 23.072V24.056C716.903 24.216 716.847 24.344 716.735 24.44C716.639 24.536 716.511 24.584 716.351 24.584H714.911C714.047 24.584 713.367 24.84 712.871 25.352C712.375 25.848 712.127 26.528 712.127 27.392V34.448C712.127 34.608 712.071 34.744 711.959 34.856C711.847 34.952 711.711 35 711.551 35H710.375ZM723.818 35.24C722.602 35.24 721.586 35.008 720.77 34.544C719.954 34.08 719.33 33.44 718.898 32.624C718.466 31.792 718.226 30.848 718.178 29.792C718.162 29.52 718.154 29.176 718.154 28.76C718.154 28.328 718.162 27.984 718.178 27.728C718.226 26.656 718.466 25.712 718.898 24.896C719.346 24.08 719.978 23.44 720.794 22.976C721.61 22.512 722.618 22.28 723.818 22.28C725.018 22.28 726.026 22.512 726.842 22.976C727.658 23.44 728.282 24.08 728.714 24.896C729.162 25.712 729.41 26.656 729.458 27.728C729.474 27.984 729.482 28.328 729.482 28.76C729.482 29.176 729.474 29.52 729.458 29.792C729.41 30.848 729.17 31.792 728.738 32.624C728.306 33.44 727.682 34.08 726.866 34.544C726.05 35.008 725.034 35.24 723.818 35.24ZM723.818 33.392C724.81 33.392 725.602 33.08 726.194 32.456C726.786 31.816 727.106 30.888 727.154 29.672C727.17 29.432 727.178 29.128 727.178 28.76C727.178 28.392 727.17 28.088 727.154 27.848C727.106 26.632 726.786 25.712 726.194 25.088C725.602 24.448 724.81 24.128 723.818 24.128C722.826 24.128 722.026 24.448 721.418 25.088C720.826 25.712 720.514 26.632 720.482 27.848C720.466 28.088 720.458 28.392 720.458 28.76C720.458 29.128 720.466 29.432 720.482 29.672C720.514 30.888 720.826 31.816 721.418 32.456C722.026 33.08 722.826 33.392 723.818 33.392ZM733.039 35C732.879 35 732.743 34.952 732.631 34.856C732.535 34.744 732.487 34.608 732.487 34.448V23.072C732.487 22.912 732.535 22.784 732.631 22.688C732.743 22.576 732.879 22.52 733.039 22.52H734.119C734.279 22.52 734.407 22.576 734.503 22.688C734.615 22.784 734.671 22.912 734.671 23.072V23.912C735.039 23.416 735.503 23.024 736.063 22.736C736.623 22.432 737.295 22.28 738.079 22.28C739.887 22.264 741.167 23 741.919 24.488C742.287 23.816 742.823 23.28 743.527 22.88C744.231 22.48 745.031 22.28 745.927 22.28C746.759 22.28 747.511 22.472 748.183 22.856C748.871 23.24 749.407 23.824 749.791 24.608C750.191 25.376 750.391 26.344 750.391 27.512V34.448C750.391 34.608 750.335 34.744 750.223 34.856C750.127 34.952 749.999 35 749.839 35H748.711C748.551 35 748.415 34.952 748.303 34.856C748.207 34.744 748.159 34.608 748.159 34.448V27.728C748.159 26.832 748.031 26.128 747.775 25.616C747.519 25.104 747.175 24.744 746.743 24.536C746.311 24.328 745.839 24.224 745.327 24.224C744.911 24.224 744.487 24.328 744.055 24.536C743.623 24.744 743.263 25.104 742.975 25.616C742.703 26.128 742.567 26.832 742.567 27.728V34.448C742.567 34.608 742.511 34.744 742.399 34.856C742.303 34.952 742.175 35 742.015 35H740.887C740.727 35 740.591 34.952 740.479 34.856C740.383 34.744 740.335 34.608 740.335 34.448V27.728C740.335 26.832 740.199 26.128 739.927 25.616C739.655 25.104 739.303 24.744 738.871 24.536C738.439 24.328 737.983 24.224 737.503 24.224C737.087 24.224 736.663 24.328 736.231 24.536C735.799 24.744 735.439 25.104 735.151 25.616C734.879 26.128 734.743 26.824 734.743 27.704V34.448C734.743 34.608 734.687 34.744 734.575 34.856C734.479 34.952 734.351 35 734.191 35H733.039Z" fill="#B6BEC9"/>
<path d="M765.64 89C765.48 89 765.344 88.952 765.232 88.856C765.136 88.744 765.088 88.608 765.088 88.448V72.776C765.088 72.6 765.136 72.464 765.232 72.368C765.344 72.256 765.48 72.2 765.64 72.2H766.84C767.032 72.2 767.176 72.248 767.272 72.344C767.368 72.44 767.432 72.52 767.464 72.584L772.528 82.28L777.64 72.584C777.672 72.52 777.728 72.44 777.808 72.344C777.904 72.248 778.048 72.2 778.24 72.2H779.416C779.592 72.2 779.728 72.256 779.824 72.368C779.936 72.464 779.992 72.6 779.992 72.776V88.448C779.992 88.608 779.936 88.744 779.824 88.856C779.728 88.952 779.592 89 779.416 89H778.24C778.08 89 777.944 88.952 777.832 88.856C777.736 88.744 777.688 88.608 777.688 88.448V76.64L773.68 84.464C773.616 84.624 773.52 84.752 773.392 84.848C773.264 84.928 773.104 84.968 772.912 84.968H772.168C771.96 84.968 771.8 84.928 771.688 84.848C771.576 84.752 771.48 84.624 771.4 84.464L767.368 76.64V88.448C767.368 88.608 767.312 88.744 767.2 88.856C767.104 88.952 766.976 89 766.816 89H765.64ZM787.311 89.24C786.511 89.24 785.783 89.08 785.127 88.76C784.471 88.44 783.943 88.008 783.543 87.464C783.143 86.92 782.943 86.304 782.943 85.616C782.943 84.512 783.391 83.632 784.287 82.976C785.183 82.32 786.351 81.888 787.791 81.68L791.367 81.176V80.48C791.367 79.712 791.143 79.112 790.695 78.68C790.263 78.248 789.551 78.032 788.559 78.032C787.855 78.032 787.279 78.176 786.831 78.464C786.383 78.752 786.071 79.12 785.895 79.568C785.799 79.808 785.631 79.928 785.391 79.928H784.311C784.135 79.928 783.999 79.88 783.903 79.784C783.823 79.672 783.783 79.544 783.783 79.4C783.783 79.16 783.871 78.864 784.047 78.512C784.239 78.16 784.527 77.816 784.911 77.48C785.295 77.144 785.783 76.864 786.375 76.64C786.983 76.4 787.719 76.28 788.583 76.28C789.543 76.28 790.351 76.408 791.007 76.664C791.663 76.904 792.175 77.232 792.543 77.648C792.927 78.064 793.199 78.536 793.359 79.064C793.535 79.592 793.623 80.128 793.623 80.672V88.448C793.623 88.608 793.567 88.744 793.455 88.856C793.359 88.952 793.231 89 793.071 89H791.967C791.791 89 791.655 88.952 791.559 88.856C791.463 88.744 791.415 88.608 791.415 88.448V87.416C791.207 87.704 790.927 87.992 790.575 88.28C790.223 88.552 789.783 88.784 789.255 88.976C788.727 89.152 788.079 89.24 787.311 89.24ZM787.815 87.44C788.471 87.44 789.071 87.304 789.615 87.032C790.159 86.744 790.583 86.304 790.887 85.712C791.207 85.12 791.367 84.376 791.367 83.48V82.808L788.583 83.216C787.447 83.376 786.591 83.648 786.015 84.032C785.439 84.4 785.151 84.872 785.151 85.448C785.151 85.896 785.279 86.272 785.535 86.576C785.807 86.864 786.143 87.08 786.543 87.224C786.959 87.368 787.383 87.44 787.815 87.44ZM801.828 89C800.932 89 800.204 88.832 799.644 88.496C799.084 88.144 798.676 87.656 798.42 87.032C798.164 86.392 798.036 85.64 798.036 84.776V78.44H796.164C796.004 78.44 795.868 78.392 795.756 78.296C795.66 78.184 795.612 78.048 795.612 77.888V77.072C795.612 76.912 795.66 76.784 795.756 76.688C795.868 76.576 796.004 76.52 796.164 76.52H798.036V72.512C798.036 72.352 798.084 72.224 798.18 72.128C798.292 72.016 798.428 71.96 798.588 71.96H799.716C799.876 71.96 800.004 72.016 800.1 72.128C800.212 72.224 800.268 72.352 800.268 72.512V76.52H803.244C803.42 76.52 803.556 76.576 803.652 76.688C803.748 76.784 803.796 76.912 803.796 77.072V77.888C803.796 78.048 803.748 78.184 803.652 78.296C803.556 78.392 803.42 78.44 803.244 78.44H800.268V84.608C800.268 85.36 800.396 85.952 800.652 86.384C800.908 86.816 801.364 87.032 802.02 87.032H803.484C803.644 87.032 803.772 87.088 803.868 87.2C803.98 87.296 804.036 87.424 804.036 87.584V88.448C804.036 88.608 803.98 88.744 803.868 88.856C803.772 88.952 803.644 89 803.484 89H801.828ZM806.883 89C806.723 89 806.587 88.952 806.475 88.856C806.379 88.744 806.331 88.608 806.331 88.448V77.072C806.331 76.912 806.379 76.784 806.475 76.688C806.587 76.576 806.723 76.52 806.883 76.52H808.035C808.195 76.52 808.323 76.576 808.419 76.688C808.531 76.784 808.587 76.912 808.587 77.072V88.448C808.587 88.608 808.531 88.744 808.419 88.856C808.323 88.952 808.195 89 808.035 89H806.883ZM806.691 74.192C806.531 74.192 806.395 74.144 806.283 74.048C806.187 73.936 806.139 73.8 806.139 73.64V72.344C806.139 72.184 806.187 72.048 806.283 71.936C806.395 71.824 806.531 71.768 806.691 71.768H808.203C808.363 71.768 808.499 71.824 808.611 71.936C808.723 72.048 808.779 72.184 808.779 72.344V73.64C808.779 73.8 808.723 73.936 808.611 74.048C808.499 74.144 808.363 74.192 808.203 74.192H806.691ZM817.23 89.24C816.094 89.24 815.11 89.024 814.278 88.592C813.462 88.144 812.83 87.512 812.382 86.696C811.934 85.864 811.694 84.872 811.662 83.72C811.646 83.48 811.638 83.16 811.638 82.76C811.638 82.36 811.646 82.04 811.662 81.8C811.694 80.648 811.934 79.664 812.382 78.848C812.83 78.016 813.462 77.384 814.278 76.952C815.11 76.504 816.094 76.28 817.23 76.28C818.158 76.28 818.95 76.408 819.606 76.664C820.278 76.92 820.83 77.248 821.262 77.648C821.694 78.048 822.014 78.48 822.222 78.944C822.446 79.408 822.566 79.848 822.582 80.264C822.598 80.424 822.55 80.552 822.438 80.648C822.326 80.744 822.19 80.792 822.03 80.792H820.878C820.718 80.792 820.598 80.76 820.518 80.696C820.438 80.616 820.358 80.488 820.278 80.312C819.99 79.528 819.598 78.976 819.102 78.656C818.606 78.336 817.99 78.176 817.254 78.176C816.294 78.176 815.51 78.472 814.902 79.064C814.31 79.656 813.99 80.608 813.942 81.92C813.926 82.496 813.926 83.056 813.942 83.6C813.99 84.928 814.31 85.888 814.902 86.48C815.51 87.056 816.294 87.344 817.254 87.344C817.99 87.344 818.606 87.184 819.102 86.864C819.598 86.544 819.99 85.992 820.278 85.208C820.358 85.032 820.438 84.904 820.518 84.824C820.598 84.744 820.718 84.704 820.878 84.704H822.03C822.19 84.704 822.326 84.76 822.438 84.872C822.55 84.968 822.598 85.096 822.582 85.256C822.566 85.592 822.494 85.936 822.366 86.288C822.238 86.64 822.03 87 821.742 87.368C821.47 87.72 821.126 88.04 820.71 88.328C820.294 88.6 819.798 88.824 819.222 89C818.646 89.16 817.982 89.24 817.23 89.24Z" fill="#B6BEC9"/>
<defs>
<linearGradient id="paint0_linear_198_24" x1="-13.0437" y1="-0.794287" x2="119.774" y2="1.71589" gradientUnits="userSpaceOnUse">
<stop stop-color="#674AD2"/>
<stop offset="1" stop-color="#44BCFF"/>
</linearGradient>
<linearGradient id="paint1_linear_198_24" x1="422.64" y1="-1.79429" x2="589.19" y2="2.15369" gradientUnits="userSpaceOnUse">
<stop stop-color="#674AD2"/>
<stop offset="1" stop-color="#44BCFF"/>
</linearGradient>
</defs>
</svg>
