<svg width="52" height="51" viewBox="0 0 52 51" fill="none" xmlns="http://www.w3.org/2000/svg">
<ellipse cx="26" cy="25.5" rx="26" ry="25.5" fill="black" fill-opacity="0.26"/>
<path fill-rule="evenodd" clip-rule="evenodd" d="M20.3792 15.0051C17.907 15.1901 15.7893 16.9605 15.178 19.3532C14.9873 20.0997 15.0002 19.6556 15.0002 25.4817C15.0002 29.6982 15.0066 30.7402 15.0338 30.9235C15.3242 32.8832 16.4725 34.4949 18.1999 35.3669C18.8844 35.7125 19.5768 35.9056 20.3792 35.9747C20.7746 36.0087 30.1892 36.0083 30.5954 35.9742C31.397 35.9069 32.0365 35.731 32.7369 35.385C33.3137 35.1002 33.746 34.796 34.2058 34.3514C34.7139 33.86 35.0754 33.365 35.3841 32.7375C35.731 32.0323 35.9066 31.3951 35.9727 30.601C36.0083 30.1734 36.0094 20.8198 35.9739 20.3926C35.8917 19.4034 35.6151 18.5535 35.1089 17.7346C34.8764 17.3586 34.3754 16.7486 34.1318 16.545C34.0713 16.4945 33.9822 16.4177 33.9337 16.3744C33.7859 16.2424 33.3532 15.9324 33.1447 15.8092C32.5761 15.4732 31.9548 15.2308 31.3581 15.1122C30.7924 14.9997 31.1135 15.006 25.6448 15.0011C22.811 14.9986 20.4415 15.0004 20.3792 15.0051ZM32.7117 17.3314C33.3086 17.429 33.7529 18.0511 33.6565 18.6543C33.5636 19.2359 33.083 19.6494 32.4999 19.6494C32.1688 19.6494 31.938 19.5587 31.6941 19.3329C31.2148 18.8892 31.2002 18.132 31.6618 17.6621C31.9415 17.3773 32.3008 17.2642 32.7117 17.3314ZM26.451 19.7223C27.0634 19.8329 27.4866 19.9685 28.0284 20.2277C29.6776 21.0169 30.8708 22.5587 31.2267 24.3606C31.5469 25.9817 31.1645 27.6561 30.1688 28.9925C29.9083 29.3421 29.3328 29.916 28.9834 30.1745C28.1166 30.8159 27.1846 31.1822 26.1156 31.3016C23.5203 31.5916 21.0281 30.0867 20.0539 27.6416C19.6396 26.6015 19.5378 25.4275 19.7652 24.3102C20.1429 22.4541 21.4258 20.8787 23.1772 20.1204C23.6809 19.9023 24.2977 19.7384 24.8511 19.6756C25.2023 19.6358 26.1204 19.6625 26.451 19.7223ZM25.0856 22.0178C24.809 22.0497 24.4154 22.1543 24.1415 22.2687C23.0703 22.7163 22.3156 23.6384 22.0635 24.8074C21.9927 25.136 21.9861 25.7788 22.0502 26.1116C22.5039 28.4678 25.0668 29.6904 27.1678 28.5528C27.4429 28.4039 27.7533 28.165 27.9928 27.918C28.4419 27.455 28.7273 26.9408 28.8799 26.3198C29.3532 24.3941 28.1292 22.4677 26.1773 22.0661C25.8992 22.0089 25.3674 21.9854 25.0856 22.0178Z" fill="white"/>
</svg>
