<svg width="52" height="52" viewBox="0 0 52 52" fill="none" xmlns="http://www.w3.org/2000/svg">
<circle cx="26" cy="26" r="26" fill="black" fill-opacity="0.26"/>
<path fill-rule="evenodd" clip-rule="evenodd" d="M34.2774 17.0264C34.1127 17.0873 21.6596 21.8136 17.6389 23.3411C15.8363 24.026 14.3161 24.6154 14.2608 24.6512C14.1261 24.738 14.0002 24.9482 14 25.0866C13.9998 25.2572 14.1002 25.4577 14.2312 25.5483C14.2959 25.593 15.4293 26.0254 16.75 26.5092C18.0707 26.993 19.1713 27.4089 19.1956 27.4336C19.22 27.4582 19.6515 28.787 20.1544 30.3865C20.6573 31.9859 21.0977 33.3558 21.133 33.4306C21.1683 33.5054 21.254 33.6007 21.3236 33.6425C21.4679 33.7291 21.7734 33.7418 21.9062 33.6667C21.954 33.6398 22.614 33.1178 23.3731 32.5069C24.9011 31.2771 25.0108 31.2105 25.3682 31.2948C25.5143 31.3293 25.9699 31.6348 27.423 32.6727C30.646 34.9746 30.6487 34.9764 30.8184 34.9968C31.0107 35.0199 31.2269 34.9167 31.3421 34.7468C31.398 34.6644 31.503 34.2573 31.6599 33.5149C31.7888 32.905 32.1353 31.2609 32.4298 29.8614C32.7244 28.4619 33.0109 27.1078 33.0665 26.8523C33.122 26.5969 33.4087 25.2428 33.7035 23.8433C33.9982 22.4438 34.3323 20.8625 34.4458 20.3293C34.9202 18.1016 35.0202 17.58 34.9969 17.4556C34.9387 17.1456 34.562 16.9209 34.2774 17.0264ZM30.4684 20.8161C30.5123 20.911 30.5015 20.9332 30.3341 21.0932C30.234 21.1888 28.4619 22.8115 26.3962 24.699C24.3305 26.5865 22.5777 28.2012 22.5011 28.2871C22.2406 28.5796 22.1822 28.7814 22.02 29.9517C21.9375 30.5471 21.8445 31.0735 21.813 31.1236C21.7539 31.2176 21.5839 31.2455 21.4767 31.1787C21.4463 31.1597 21.1801 30.3194 20.8852 29.3113C20.4874 27.9513 20.349 27.4211 20.3492 27.2562C20.3495 27.0118 20.4475 26.7794 20.6237 26.6061C20.6817 26.549 22.5261 25.4134 24.7223 24.0827C26.9185 22.752 29.0664 21.4496 29.4953 21.1886C29.9243 20.9276 30.3079 20.7138 30.3479 20.7136C30.3879 20.7133 30.4421 20.7595 30.4684 20.8161Z" fill="white"/>
</svg>
