<svg width="62" height="62" viewBox="0 0 62 62" fill="none" xmlns="http://www.w3.org/2000/svg">
<circle cx="31" cy="31" r="31" fill="black" fill-opacity="0.26"/>
<path fill-rule="evenodd" clip-rule="evenodd" d="M35.9888 19.0177C35.29 19.1271 34.1821 19.4889 33.8331 19.7216C33.7336 19.788 33.6353 19.8422 33.6147 19.8422C33.5361 19.8422 33.0436 20.1985 32.6365 20.5499C31.187 21.8012 30.4162 23.7931 30.6357 25.7203C30.6748 26.0635 30.6914 26.3594 30.6725 26.3779C30.6536 26.3964 30.2484 26.3767 29.7721 26.3343C26.6207 26.0531 23.2492 24.6909 20.6652 22.6547C20.0959 22.2061 18.6894 20.8695 18.3259 20.4318C18.1836 20.2605 18.0388 20.1403 18.0041 20.1648C17.9694 20.1893 17.8565 20.3896 17.7532 20.61C17.1413 21.9156 17.018 23.395 17.409 24.7402C17.7531 25.9237 18.2379 26.7068 19.1676 27.5805L19.7648 28.1417L19.2824 28.0978C18.7626 28.0504 17.7956 27.7725 17.4643 27.5753C17.3519 27.5084 17.2324 27.4536 17.1986 27.4534C17.1636 27.4533 17.1552 27.7206 17.179 28.0759C17.2868 29.6851 18.2022 31.3005 19.6046 32.3558C20.168 32.7799 21.1847 33.2711 21.6786 33.358C22.3943 33.4837 21.0708 33.6919 20.0012 33.6217C19.5006 33.5889 19.3372 33.5982 19.3372 33.6594C19.3372 33.7951 19.7324 34.5874 19.9997 34.9877C20.3803 35.5576 20.7576 35.9795 21.21 36.3412C21.4348 36.5208 21.6583 36.7 21.7067 36.7392C21.9022 36.8977 22.9215 37.3576 23.4119 37.5085C23.6991 37.597 24.1717 37.6885 24.462 37.7119C25.0885 37.7624 25.0858 37.7713 24.2868 38.2796C23.52 38.7674 23.5425 38.7549 22.7765 39.1227C21.716 39.6318 20.8176 39.9171 19.5415 40.1498C18.8336 40.2789 18.4634 40.305 17.3451 40.305C16.6053 40.305 16 40.3091 16 40.3141C16 40.3191 16.2222 40.4529 16.4938 40.6114C19.1283 42.1493 22.3185 43.0018 25.4326 43C28.6307 42.9982 31.6258 42.2364 34.2359 40.7611C34.9344 40.3663 35.98 39.6757 36.3659 39.3541C38.1641 37.8566 39.0601 36.8342 40.4342 34.7123C40.9269 33.9515 41.683 32.3163 42.0619 31.1919C42.6224 29.5292 42.8996 27.9916 42.9498 26.2681C42.9714 25.5246 43.0136 24.9162 43.0436 24.9162C43.1267 24.9162 43.971 24.2047 44.4679 23.7158C44.9761 23.2159 45.4905 22.6234 45.8233 22.1547C46.0446 21.843 46.0474 21.832 45.8909 21.8794C45.8012 21.9066 45.645 21.9701 45.5438 22.0205C45.1675 22.2081 43.7596 22.5894 42.8747 22.7433C42.5731 22.7957 42.5969 22.7567 43.0718 22.4194C43.8347 21.8775 44.7318 20.7118 45.0913 19.7954C45.2186 19.4709 45.1671 19.437 44.842 19.6313C44.2138 20.0069 42.7925 20.5455 41.8196 20.7768L41.3165 20.8964L41.0364 20.6496C39.8168 19.5752 38.5021 19.0473 36.9423 19.0057C36.5303 18.9947 36.1012 19.0001 35.9888 19.0177Z" fill="white"/>
</svg>
